<?xml version="1.0" encoding="utf-8" standalone="no"?>
<!DOCTYPE svg PUBLIC "-//W3C//DTD SVG 1.1//EN"
  "http://www.w3.org/Graphics/SVG/1.1/DTD/svg11.dtd">
<svg xmlns:xlink="http://www.w3.org/1999/xlink" width="1000.318125pt" height="330.541644pt" viewBox="0 0 1000.318125 330.541644" xmlns="http://www.w3.org/2000/svg" version="1.1">
 <metadata>
  <rdf:RDF xmlns:dc="http://purl.org/dc/elements/1.1/" xmlns:cc="http://creativecommons.org/ns#" xmlns:rdf="http://www.w3.org/1999/02/22-rdf-syntax-ns#">
   <cc:Work>
    <dc:type rdf:resource="http://purl.org/dc/dcmitype/StillImage"/>
    <dc:date>2024-02-01T21:52:34.206585</dc:date>
    <dc:format>image/svg+xml</dc:format>
    <dc:creator>
     <cc:Agent>
      <dc:title>Matplotlib v3.6.2, https://matplotlib.org/</dc:title>
     </cc:Agent>
    </dc:creator>
   </cc:Work>
  </rdf:RDF>
 </metadata>
 <defs>
  <style type="text/css">*{stroke-linejoin: round; stroke-linecap: butt}</style>
 </defs>
 <g id="figure_1">
  <g id="axes_1">
   <g id="patch_1">
    <path d="M 38.058125 273.99006 
L 993.118125 273.99006 
L 993.118125 31.48286 
L 38.058125 31.48286 
z
" style="fill: #ffffff"/>
   </g>
   <g id="patch_2">
    <path d="M 38.058125 120.537442 
L 949.855925 120.537442 
L 949.855925 -274.055003 
L 38.058125 -274.055003 
z
" clip-path="url(#p723019523f)" style="fill: #c3e6c3"/>
   </g>
   <g id="patch_3">
    <path d="M 38.058125 164.381047 
L 949.855925 164.381047 
L 949.855925 120.537442 
L 38.058125 120.537442 
z
" clip-path="url(#p723019523f)" style="fill: #e6dcc3"/>
   </g>
   <g id="patch_4">
    <path d="M 38.058125 273.99006 
L 949.855925 273.99006 
L 949.855925 164.381047 
L 38.058125 164.381047 
z
" clip-path="url(#p723019523f)" style="fill: #e6c3c3"/>
   </g>
   <g id="matplotlib.axis_1">
    <g id="xtick_1">
     <g id="text_1">
      <!-- 0 -->
      <g transform="translate(78.775325 287.06881) scale(0.08 -0.08)">
       <defs>
        <path id="DejaVuSans-30" d="M 2034 4250 
Q 1547 4250 1301 3770 
Q 1056 3291 1056 2328 
Q 1056 1369 1301 889 
Q 1547 409 2034 409 
Q 2525 409 2770 889 
Q 3016 1369 3016 2328 
Q 3016 3291 2770 3770 
Q 2525 4250 2034 4250 
z
M 2034 4750 
Q 2819 4750 3233 4129 
Q 3647 3509 3647 2328 
Q 3647 1150 3233 529 
Q 2819 -91 2034 -91 
Q 1250 -91 836 529 
Q 422 1150 422 2328 
Q 422 3509 836 4129 
Q 1250 4750 2034 4750 
z
" transform="scale(0.015625)"/>
       </defs>
       <use xlink:href="#DejaVuSans-30"/>
      </g>
     </g>
    </g>
    <g id="xtick_2">
     <g id="text_2">
      <!-- 1000 -->
      <g transform="translate(220.758861 287.06881) scale(0.08 -0.08)">
       <defs>
        <path id="DejaVuSans-31" d="M 794 531 
L 1825 531 
L 1825 4091 
L 703 3866 
L 703 4441 
L 1819 4666 
L 2450 4666 
L 2450 531 
L 3481 531 
L 3481 0 
L 794 0 
L 794 531 
z
" transform="scale(0.015625)"/>
       </defs>
       <use xlink:href="#DejaVuSans-31"/>
       <use xlink:href="#DejaVuSans-30" x="63.623047"/>
       <use xlink:href="#DejaVuSans-30" x="127.246094"/>
       <use xlink:href="#DejaVuSans-30" x="190.869141"/>
      </g>
     </g>
    </g>
    <g id="xtick_3">
     <g id="text_3">
      <!-- 2000 -->
      <g transform="translate(370.377396 287.06881) scale(0.08 -0.08)">
       <defs>
        <path id="DejaVuSans-32" d="M 1228 531 
L 3431 531 
L 3431 0 
L 469 0 
L 469 531 
Q 828 903 1448 1529 
Q 2069 2156 2228 2338 
Q 2531 2678 2651 2914 
Q 2772 3150 2772 3378 
Q 2772 3750 2511 3984 
Q 2250 4219 1831 4219 
Q 1534 4219 1204 4116 
Q 875 4013 500 3803 
L 500 4441 
Q 881 4594 1212 4672 
Q 1544 4750 1819 4750 
Q 2544 4750 2975 4387 
Q 3406 4025 3406 3419 
Q 3406 3131 3298 2873 
Q 3191 2616 2906 2266 
Q 2828 2175 2409 1742 
Q 1991 1309 1228 531 
z
" transform="scale(0.015625)"/>
       </defs>
       <use xlink:href="#DejaVuSans-32"/>
       <use xlink:href="#DejaVuSans-30" x="63.623047"/>
       <use xlink:href="#DejaVuSans-30" x="127.246094"/>
       <use xlink:href="#DejaVuSans-30" x="190.869141"/>
      </g>
     </g>
    </g>
    <g id="xtick_4">
     <g id="text_4">
      <!-- 3000 -->
      <g transform="translate(519.995932 287.06881) scale(0.08 -0.08)">
       <defs>
        <path id="DejaVuSans-33" d="M 2597 2516 
Q 3050 2419 3304 2112 
Q 3559 1806 3559 1356 
Q 3559 666 3084 287 
Q 2609 -91 1734 -91 
Q 1441 -91 1130 -33 
Q 819 25 488 141 
L 488 750 
Q 750 597 1062 519 
Q 1375 441 1716 441 
Q 2309 441 2620 675 
Q 2931 909 2931 1356 
Q 2931 1769 2642 2001 
Q 2353 2234 1838 2234 
L 1294 2234 
L 1294 2753 
L 1863 2753 
Q 2328 2753 2575 2939 
Q 2822 3125 2822 3475 
Q 2822 3834 2567 4026 
Q 2313 4219 1838 4219 
Q 1578 4219 1281 4162 
Q 984 4106 628 3988 
L 628 4550 
Q 988 4650 1302 4700 
Q 1616 4750 1894 4750 
Q 2613 4750 3031 4423 
Q 3450 4097 3450 3541 
Q 3450 3153 3228 2886 
Q 3006 2619 2597 2516 
z
" transform="scale(0.015625)"/>
       </defs>
       <use xlink:href="#DejaVuSans-33"/>
       <use xlink:href="#DejaVuSans-30" x="63.623047"/>
       <use xlink:href="#DejaVuSans-30" x="127.246094"/>
       <use xlink:href="#DejaVuSans-30" x="190.869141"/>
      </g>
     </g>
    </g>
    <g id="xtick_5">
     <g id="text_5">
      <!-- 4000 -->
      <g transform="translate(669.614468 287.06881) scale(0.08 -0.08)">
       <defs>
        <path id="DejaVuSans-34" d="M 2419 4116 
L 825 1625 
L 2419 1625 
L 2419 4116 
z
M 2253 4666 
L 3047 4666 
L 3047 1625 
L 3713 1625 
L 3713 1100 
L 3047 1100 
L 3047 0 
L 2419 0 
L 2419 1100 
L 313 1100 
L 313 1709 
L 2253 4666 
z
" transform="scale(0.015625)"/>
       </defs>
       <use xlink:href="#DejaVuSans-34"/>
       <use xlink:href="#DejaVuSans-30" x="63.623047"/>
       <use xlink:href="#DejaVuSans-30" x="127.246094"/>
       <use xlink:href="#DejaVuSans-30" x="190.869141"/>
      </g>
     </g>
    </g>
    <g id="xtick_6">
     <g id="text_6">
      <!-- 5000 -->
      <g transform="translate(819.233004 287.06881) scale(0.08 -0.08)">
       <defs>
        <path id="DejaVuSans-35" d="M 691 4666 
L 3169 4666 
L 3169 4134 
L 1269 4134 
L 1269 2991 
Q 1406 3038 1543 3061 
Q 1681 3084 1819 3084 
Q 2600 3084 3056 2656 
Q 3513 2228 3513 1497 
Q 3513 744 3044 326 
Q 2575 -91 1722 -91 
Q 1428 -91 1123 -41 
Q 819 9 494 109 
L 494 744 
Q 775 591 1075 516 
Q 1375 441 1709 441 
Q 2250 441 2565 725 
Q 2881 1009 2881 1497 
Q 2881 1984 2565 2268 
Q 2250 2553 1709 2553 
Q 1456 2553 1204 2497 
Q 953 2441 691 2322 
L 691 4666 
z
" transform="scale(0.015625)"/>
       </defs>
       <use xlink:href="#DejaVuSans-35"/>
       <use xlink:href="#DejaVuSans-30" x="63.623047"/>
       <use xlink:href="#DejaVuSans-30" x="127.246094"/>
       <use xlink:href="#DejaVuSans-30" x="190.869141"/>
      </g>
     </g>
    </g>
    <g id="xtick_7">
     <g id="text_7">
      <!-- 6000 -->
      <g transform="translate(968.85154 287.06881) scale(0.08 -0.08)">
       <defs>
        <path id="DejaVuSans-36" d="M 2113 2584 
Q 1688 2584 1439 2293 
Q 1191 2003 1191 1497 
Q 1191 994 1439 701 
Q 1688 409 2113 409 
Q 2538 409 2786 701 
Q 3034 994 3034 1497 
Q 3034 2003 2786 2293 
Q 2538 2584 2113 2584 
z
M 3366 4563 
L 3366 3988 
Q 3128 4100 2886 4159 
Q 2644 4219 2406 4219 
Q 1781 4219 1451 3797 
Q 1122 3375 1075 2522 
Q 1259 2794 1537 2939 
Q 1816 3084 2150 3084 
Q 2853 3084 3261 2657 
Q 3669 2231 3669 1497 
Q 3669 778 3244 343 
Q 2819 -91 2113 -91 
Q 1303 -91 875 529 
Q 447 1150 447 2328 
Q 447 3434 972 4092 
Q 1497 4750 2381 4750 
Q 2619 4750 2861 4703 
Q 3103 4656 3366 4563 
z
" transform="scale(0.015625)"/>
       </defs>
       <use xlink:href="#DejaVuSans-36"/>
       <use xlink:href="#DejaVuSans-30" x="63.623047"/>
       <use xlink:href="#DejaVuSans-30" x="127.246094"/>
       <use xlink:href="#DejaVuSans-30" x="190.869141"/>
      </g>
     </g>
    </g>
    <g id="text_8">
     <!-- Position (bp) -->
     <g transform="translate(484.285 300.330997) scale(0.1 -0.1)">
      <defs>
       <path id="DejaVuSans-50" d="M 1259 4147 
L 1259 2394 
L 2053 2394 
Q 2494 2394 2734 2622 
Q 2975 2850 2975 3272 
Q 2975 3691 2734 3919 
Q 2494 4147 2053 4147 
L 1259 4147 
z
M 628 4666 
L 2053 4666 
Q 2838 4666 3239 4311 
Q 3641 3956 3641 3272 
Q 3641 2581 3239 2228 
Q 2838 1875 2053 1875 
L 1259 1875 
L 1259 0 
L 628 0 
L 628 4666 
z
" transform="scale(0.015625)"/>
       <path id="DejaVuSans-6f" d="M 1959 3097 
Q 1497 3097 1228 2736 
Q 959 2375 959 1747 
Q 959 1119 1226 758 
Q 1494 397 1959 397 
Q 2419 397 2687 759 
Q 2956 1122 2956 1747 
Q 2956 2369 2687 2733 
Q 2419 3097 1959 3097 
z
M 1959 3584 
Q 2709 3584 3137 3096 
Q 3566 2609 3566 1747 
Q 3566 888 3137 398 
Q 2709 -91 1959 -91 
Q 1206 -91 779 398 
Q 353 888 353 1747 
Q 353 2609 779 3096 
Q 1206 3584 1959 3584 
z
" transform="scale(0.015625)"/>
       <path id="DejaVuSans-73" d="M 2834 3397 
L 2834 2853 
Q 2591 2978 2328 3040 
Q 2066 3103 1784 3103 
Q 1356 3103 1142 2972 
Q 928 2841 928 2578 
Q 928 2378 1081 2264 
Q 1234 2150 1697 2047 
L 1894 2003 
Q 2506 1872 2764 1633 
Q 3022 1394 3022 966 
Q 3022 478 2636 193 
Q 2250 -91 1575 -91 
Q 1294 -91 989 -36 
Q 684 19 347 128 
L 347 722 
Q 666 556 975 473 
Q 1284 391 1588 391 
Q 1994 391 2212 530 
Q 2431 669 2431 922 
Q 2431 1156 2273 1281 
Q 2116 1406 1581 1522 
L 1381 1569 
Q 847 1681 609 1914 
Q 372 2147 372 2553 
Q 372 3047 722 3315 
Q 1072 3584 1716 3584 
Q 2034 3584 2315 3537 
Q 2597 3491 2834 3397 
z
" transform="scale(0.015625)"/>
       <path id="DejaVuSans-69" d="M 603 3500 
L 1178 3500 
L 1178 0 
L 603 0 
L 603 3500 
z
M 603 4863 
L 1178 4863 
L 1178 4134 
L 603 4134 
L 603 4863 
z
" transform="scale(0.015625)"/>
       <path id="DejaVuSans-74" d="M 1172 4494 
L 1172 3500 
L 2356 3500 
L 2356 3053 
L 1172 3053 
L 1172 1153 
Q 1172 725 1289 603 
Q 1406 481 1766 481 
L 2356 481 
L 2356 0 
L 1766 0 
Q 1100 0 847 248 
Q 594 497 594 1153 
L 594 3053 
L 172 3053 
L 172 3500 
L 594 3500 
L 594 4494 
L 1172 4494 
z
" transform="scale(0.015625)"/>
       <path id="DejaVuSans-6e" d="M 3513 2113 
L 3513 0 
L 2938 0 
L 2938 2094 
Q 2938 2591 2744 2837 
Q 2550 3084 2163 3084 
Q 1697 3084 1428 2787 
Q 1159 2491 1159 1978 
L 1159 0 
L 581 0 
L 581 3500 
L 1159 3500 
L 1159 2956 
Q 1366 3272 1645 3428 
Q 1925 3584 2291 3584 
Q 2894 3584 3203 3211 
Q 3513 2838 3513 2113 
z
" transform="scale(0.015625)"/>
       <path id="DejaVuSans-20" transform="scale(0.015625)"/>
       <path id="DejaVuSans-28" d="M 1984 4856 
Q 1566 4138 1362 3434 
Q 1159 2731 1159 2009 
Q 1159 1288 1364 580 
Q 1569 -128 1984 -844 
L 1484 -844 
Q 1016 -109 783 600 
Q 550 1309 550 2009 
Q 550 2706 781 3412 
Q 1013 4119 1484 4856 
L 1984 4856 
z
" transform="scale(0.015625)"/>
       <path id="DejaVuSans-62" d="M 3116 1747 
Q 3116 2381 2855 2742 
Q 2594 3103 2138 3103 
Q 1681 3103 1420 2742 
Q 1159 2381 1159 1747 
Q 1159 1113 1420 752 
Q 1681 391 2138 391 
Q 2594 391 2855 752 
Q 3116 1113 3116 1747 
z
M 1159 2969 
Q 1341 3281 1617 3432 
Q 1894 3584 2278 3584 
Q 2916 3584 3314 3078 
Q 3713 2572 3713 1747 
Q 3713 922 3314 415 
Q 2916 -91 2278 -91 
Q 1894 -91 1617 61 
Q 1341 213 1159 525 
L 1159 0 
L 581 0 
L 581 4863 
L 1159 4863 
L 1159 2969 
z
" transform="scale(0.015625)"/>
       <path id="DejaVuSans-70" d="M 1159 525 
L 1159 -1331 
L 581 -1331 
L 581 3500 
L 1159 3500 
L 1159 2969 
Q 1341 3281 1617 3432 
Q 1894 3584 2278 3584 
Q 2916 3584 3314 3078 
Q 3713 2572 3713 1747 
Q 3713 922 3314 415 
Q 2916 -91 2278 -91 
Q 1894 -91 1617 61 
Q 1341 213 1159 525 
z
M 3116 1747 
Q 3116 2381 2855 2742 
Q 2594 3103 2138 3103 
Q 1681 3103 1420 2742 
Q 1159 2381 1159 1747 
Q 1159 1113 1420 752 
Q 1681 391 2138 391 
Q 2594 391 2855 752 
Q 3116 1113 3116 1747 
z
" transform="scale(0.015625)"/>
       <path id="DejaVuSans-29" d="M 513 4856 
L 1013 4856 
Q 1481 4119 1714 3412 
Q 1947 2706 1947 2009 
Q 1947 1309 1714 600 
Q 1481 -109 1013 -844 
L 513 -844 
Q 928 -128 1133 580 
Q 1338 1288 1338 2009 
Q 1338 2731 1133 3434 
Q 928 4138 513 4856 
z
" transform="scale(0.015625)"/>
      </defs>
      <use xlink:href="#DejaVuSans-50"/>
      <use xlink:href="#DejaVuSans-6f" x="56.677734"/>
      <use xlink:href="#DejaVuSans-73" x="117.859375"/>
      <use xlink:href="#DejaVuSans-69" x="169.958984"/>
      <use xlink:href="#DejaVuSans-74" x="197.742188"/>
      <use xlink:href="#DejaVuSans-69" x="236.951172"/>
      <use xlink:href="#DejaVuSans-6f" x="264.734375"/>
      <use xlink:href="#DejaVuSans-6e" x="325.916016"/>
      <use xlink:href="#DejaVuSans-20" x="389.294922"/>
      <use xlink:href="#DejaVuSans-28" x="421.082031"/>
      <use xlink:href="#DejaVuSans-62" x="460.095703"/>
      <use xlink:href="#DejaVuSans-70" x="523.572266"/>
      <use xlink:href="#DejaVuSans-29" x="587.048828"/>
     </g>
    </g>
   </g>
   <g id="matplotlib.axis_2">
    <g id="ytick_1">
     <g id="line2d_1">
      <path d="M 38.058125 273.99006 
L 993.118125 273.99006 
" clip-path="url(#p723019523f)" style="fill: none; stroke: #dedede; stroke-linecap: square"/>
     </g>
     <g id="text_9">
      <!-- 0 -->
      <g transform="translate(25.968125 277.029435) scale(0.08 -0.08)">
       <use xlink:href="#DejaVuSans-30"/>
      </g>
     </g>
    </g>
    <g id="ytick_2">
     <g id="line2d_2">
      <path d="M 38.058125 246.587807 
L 993.118125 246.587807 
" clip-path="url(#p723019523f)" style="fill: none; stroke: #dedede; stroke-linecap: square"/>
     </g>
     <g id="text_10">
      <!-- 5 -->
      <g transform="translate(25.968125 249.627182) scale(0.08 -0.08)">
       <use xlink:href="#DejaVuSans-35"/>
      </g>
     </g>
    </g>
    <g id="ytick_3">
     <g id="line2d_3">
      <path d="M 38.058125 219.185554 
L 993.118125 219.185554 
" clip-path="url(#p723019523f)" style="fill: none; stroke: #dedede; stroke-linecap: square"/>
     </g>
     <g id="text_11">
      <!-- 10 -->
      <g transform="translate(20.878125 222.224929) scale(0.08 -0.08)">
       <use xlink:href="#DejaVuSans-31"/>
       <use xlink:href="#DejaVuSans-30" x="63.623047"/>
      </g>
     </g>
    </g>
    <g id="ytick_4">
     <g id="line2d_4">
      <path d="M 38.058125 191.783301 
L 993.118125 191.783301 
" clip-path="url(#p723019523f)" style="fill: none; stroke: #dedede; stroke-linecap: square"/>
     </g>
     <g id="text_12">
      <!-- 15 -->
      <g transform="translate(20.878125 194.822676) scale(0.08 -0.08)">
       <use xlink:href="#DejaVuSans-31"/>
       <use xlink:href="#DejaVuSans-35" x="63.623047"/>
      </g>
     </g>
    </g>
    <g id="ytick_5">
     <g id="line2d_5">
      <path d="M 38.058125 164.381047 
L 993.118125 164.381047 
" clip-path="url(#p723019523f)" style="fill: none; stroke: #dedede; stroke-linecap: square"/>
     </g>
     <g id="text_13">
      <!-- 20 -->
      <g transform="translate(20.878125 167.420422) scale(0.08 -0.08)">
       <use xlink:href="#DejaVuSans-32"/>
       <use xlink:href="#DejaVuSans-30" x="63.623047"/>
      </g>
     </g>
    </g>
    <g id="ytick_6">
     <g id="line2d_6">
      <path d="M 38.058125 136.978794 
L 993.118125 136.978794 
" clip-path="url(#p723019523f)" style="fill: none; stroke: #dedede; stroke-linecap: square"/>
     </g>
     <g id="text_14">
      <!-- 25 -->
      <g transform="translate(20.878125 140.018169) scale(0.08 -0.08)">
       <use xlink:href="#DejaVuSans-32"/>
       <use xlink:href="#DejaVuSans-35" x="63.623047"/>
      </g>
     </g>
    </g>
    <g id="ytick_7">
     <g id="line2d_7">
      <path d="M 38.058125 109.576541 
L 993.118125 109.576541 
" clip-path="url(#p723019523f)" style="fill: none; stroke: #dedede; stroke-linecap: square"/>
     </g>
     <g id="text_15">
      <!-- 30 -->
      <g transform="translate(20.878125 112.615916) scale(0.08 -0.08)">
       <use xlink:href="#DejaVuSans-33"/>
       <use xlink:href="#DejaVuSans-30" x="63.623047"/>
      </g>
     </g>
    </g>
    <g id="ytick_8">
     <g id="line2d_8">
      <path d="M 38.058125 82.174288 
L 993.118125 82.174288 
" clip-path="url(#p723019523f)" style="fill: none; stroke: #dedede; stroke-linecap: square"/>
     </g>
     <g id="text_16">
      <!-- 35 -->
      <g transform="translate(20.878125 85.213663) scale(0.08 -0.08)">
       <use xlink:href="#DejaVuSans-33"/>
       <use xlink:href="#DejaVuSans-35" x="63.623047"/>
      </g>
     </g>
    </g>
    <g id="ytick_9">
     <g id="line2d_9">
      <path d="M 38.058125 54.772035 
L 993.118125 54.772035 
" clip-path="url(#p723019523f)" style="fill: none; stroke: #dedede; stroke-linecap: square"/>
     </g>
     <g id="text_17">
      <!-- 40 -->
      <g transform="translate(20.878125 57.81141) scale(0.08 -0.08)">
       <use xlink:href="#DejaVuSans-34"/>
       <use xlink:href="#DejaVuSans-30" x="63.623047"/>
      </g>
     </g>
    </g>
    <g id="text_18">
     <!-- Phred Score -->
     <g transform="translate(14.798438 182.70521) rotate(-90) scale(0.1 -0.1)">
      <defs>
       <path id="DejaVuSans-68" d="M 3513 2113 
L 3513 0 
L 2938 0 
L 2938 2094 
Q 2938 2591 2744 2837 
Q 2550 3084 2163 3084 
Q 1697 3084 1428 2787 
Q 1159 2491 1159 1978 
L 1159 0 
L 581 0 
L 581 4863 
L 1159 4863 
L 1159 2956 
Q 1366 3272 1645 3428 
Q 1925 3584 2291 3584 
Q 2894 3584 3203 3211 
Q 3513 2838 3513 2113 
z
" transform="scale(0.015625)"/>
       <path id="DejaVuSans-72" d="M 2631 2963 
Q 2534 3019 2420 3045 
Q 2306 3072 2169 3072 
Q 1681 3072 1420 2755 
Q 1159 2438 1159 1844 
L 1159 0 
L 581 0 
L 581 3500 
L 1159 3500 
L 1159 2956 
Q 1341 3275 1631 3429 
Q 1922 3584 2338 3584 
Q 2397 3584 2469 3576 
Q 2541 3569 2628 3553 
L 2631 2963 
z
" transform="scale(0.015625)"/>
       <path id="DejaVuSans-65" d="M 3597 1894 
L 3597 1613 
L 953 1613 
Q 991 1019 1311 708 
Q 1631 397 2203 397 
Q 2534 397 2845 478 
Q 3156 559 3463 722 
L 3463 178 
Q 3153 47 2828 -22 
Q 2503 -91 2169 -91 
Q 1331 -91 842 396 
Q 353 884 353 1716 
Q 353 2575 817 3079 
Q 1281 3584 2069 3584 
Q 2775 3584 3186 3129 
Q 3597 2675 3597 1894 
z
M 3022 2063 
Q 3016 2534 2758 2815 
Q 2500 3097 2075 3097 
Q 1594 3097 1305 2825 
Q 1016 2553 972 2059 
L 3022 2063 
z
" transform="scale(0.015625)"/>
       <path id="DejaVuSans-64" d="M 2906 2969 
L 2906 4863 
L 3481 4863 
L 3481 0 
L 2906 0 
L 2906 525 
Q 2725 213 2448 61 
Q 2172 -91 1784 -91 
Q 1150 -91 751 415 
Q 353 922 353 1747 
Q 353 2572 751 3078 
Q 1150 3584 1784 3584 
Q 2172 3584 2448 3432 
Q 2725 3281 2906 2969 
z
M 947 1747 
Q 947 1113 1208 752 
Q 1469 391 1925 391 
Q 2381 391 2643 752 
Q 2906 1113 2906 1747 
Q 2906 2381 2643 2742 
Q 2381 3103 1925 3103 
Q 1469 3103 1208 2742 
Q 947 2381 947 1747 
z
" transform="scale(0.015625)"/>
       <path id="DejaVuSans-53" d="M 3425 4513 
L 3425 3897 
Q 3066 4069 2747 4153 
Q 2428 4238 2131 4238 
Q 1616 4238 1336 4038 
Q 1056 3838 1056 3469 
Q 1056 3159 1242 3001 
Q 1428 2844 1947 2747 
L 2328 2669 
Q 3034 2534 3370 2195 
Q 3706 1856 3706 1288 
Q 3706 609 3251 259 
Q 2797 -91 1919 -91 
Q 1588 -91 1214 -16 
Q 841 59 441 206 
L 441 856 
Q 825 641 1194 531 
Q 1563 422 1919 422 
Q 2459 422 2753 634 
Q 3047 847 3047 1241 
Q 3047 1584 2836 1778 
Q 2625 1972 2144 2069 
L 1759 2144 
Q 1053 2284 737 2584 
Q 422 2884 422 3419 
Q 422 4038 858 4394 
Q 1294 4750 2059 4750 
Q 2388 4750 2728 4690 
Q 3069 4631 3425 4513 
z
" transform="scale(0.015625)"/>
       <path id="DejaVuSans-63" d="M 3122 3366 
L 3122 2828 
Q 2878 2963 2633 3030 
Q 2388 3097 2138 3097 
Q 1578 3097 1268 2742 
Q 959 2388 959 1747 
Q 959 1106 1268 751 
Q 1578 397 2138 397 
Q 2388 397 2633 464 
Q 2878 531 3122 666 
L 3122 134 
Q 2881 22 2623 -34 
Q 2366 -91 2075 -91 
Q 1284 -91 818 406 
Q 353 903 353 1747 
Q 353 2603 823 3093 
Q 1294 3584 2113 3584 
Q 2378 3584 2631 3529 
Q 2884 3475 3122 3366 
z
" transform="scale(0.015625)"/>
      </defs>
      <use xlink:href="#DejaVuSans-50"/>
      <use xlink:href="#DejaVuSans-68" x="60.302734"/>
      <use xlink:href="#DejaVuSans-72" x="123.681641"/>
      <use xlink:href="#DejaVuSans-65" x="162.544922"/>
      <use xlink:href="#DejaVuSans-64" x="224.068359"/>
      <use xlink:href="#DejaVuSans-20" x="287.544922"/>
      <use xlink:href="#DejaVuSans-53" x="319.332031"/>
      <use xlink:href="#DejaVuSans-63" x="382.808594"/>
      <use xlink:href="#DejaVuSans-6f" x="437.789062"/>
      <use xlink:href="#DejaVuSans-72" x="498.970703"/>
      <use xlink:href="#DejaVuSans-65" x="537.833984"/>
     </g>
    </g>
   </g>
   <g id="line2d_10">
    <path d="M 81.469943 161.782795 
L 81.619562 168.515048 
L 81.76918 174.575602 
L 81.918799 171.388849 
L 82.068417 159.471541 
L 82.218036 163.483289 
L 82.367654 162.617593 
L 82.517273 165.70402 
L 82.666891 175.148045 
L 89.399726 158.093373 
L 103.613486 150.805227 
L 118.57534 149.09154 
L 133.537194 154.561794 
L 148.499047 154.122622 
L 163.460901 154.492142 
L 178.422754 156.89648 
L 193.384608 155.638865 
L 208.346462 154.675554 
L 223.308315 154.798283 
L 238.270169 155.200954 
L 253.232022 153.893972 
L 268.193876 153.80687 
L 283.15573 156.306141 
L 298.117583 156.334391 
L 313.079437 154.824522 
L 328.04129 154.501672 
L 343.003144 156.369636 
L 357.964997 156.973127 
L 372.926851 155.142695 
L 387.888705 156.911043 
L 402.850558 155.543755 
L 417.812412 155.715824 
L 432.774265 154.019245 
L 447.736119 152.103896 
L 462.697973 156.002023 
L 477.659826 149.891531 
L 492.62168 147.079467 
L 507.583533 149.587482 
L 522.545387 154.259568 
L 537.507241 155.022488 
L 552.469094 157.669032 
L 567.430948 158.97004 
L 582.392801 165.160447 
L 597.354655 166.577951 
L 612.316508 162.210789 
L 627.278362 170.425382 
L 642.240216 170.387059 
L 657.202069 156.288249 
L 672.163923 161.53578 
L 687.125776 162.727557 
L 702.08763 170.840367 
L 717.049484 153.339244 
L 732.011337 155.109952 
L 746.973191 121.752276 
L 761.935044 153.127856 
L 776.896898 161.430738 
L 791.858751 42.769848 
L 806.820605 70.911962 
L 821.782459 172.957953 
L 836.744312 228.776342 
L 847.965702 268.509609 
" clip-path="url(#p723019523f)" style="fill: none; stroke: #d9534f; stroke-linecap: square"/>
   </g>
   <g id="line2d_11">
    <path d="M 81.469943 179.034659 
L 81.619562 179.503574 
L 81.76918 178.360593 
L 81.918799 176.162551 
L 82.068417 164.703427 
L 82.218036 163.941439 
L 82.367654 165.553336 
L 82.517273 165.20165 
L 82.666891 173.085293 
L 85.659262 160.761992 
L 92.392096 157.453474 
L 99.873023 156.499902 
L 107.35395 156.455043 
L 114.834877 153.947102 
L 122.315803 154.178248 
L 129.79673 157.075715 
L 137.277657 153.189802 
L 144.758584 146.352998 
L 152.239511 153.393753 
L 159.720437 151.334773 
L 167.201364 144.131818 
L 174.682291 145.546213 
L 182.163218 147.968284 
L 189.644145 148.574093 
L 197.125071 150.543844 
L 204.605998 152.832255 
L 212.086925 147.089229 
L 219.567852 155.191693 
L 227.048779 151.249762 
L 234.529705 156.95273 
L 242.010632 153.699209 
L 249.491559 153.323108 
L 256.972486 149.340191 
L 264.453413 150.820211 
L 271.934339 145.990109 
L 279.415266 167.004813 
L 286.896193 152.899503 
L 294.37712 165.655252 
L 301.858047 156.845428 
L 309.338973 152.284323 
L 316.8199 143.584564 
L 324.300827 162.277799 
L 331.781754 158.082745 
L 339.26268 159.878646 
L 346.743607 167.377091 
L 354.224534 161.736481 
L 361.705461 158.045647 
L 369.186388 152.588336 
L 376.667314 170.653119 
L 384.148241 169.289095 
L 391.629168 169.764068 
L 399.110095 168.034681 
L 406.591022 147.805729 
L 414.071948 165.367529 
L 421.552875 157.30061 
L 429.033802 162.370896 
L 436.514729 165.602405 
L 443.995656 150.674701 
L 451.476582 145.309079 
L 458.957509 142.121284 
L 466.438436 129.196554 
L 473.919363 139.554606 
L 481.40029 107.165143 
L 488.881216 162.024454 
L 496.362143 154.406627 
L 503.84307 184.768324 
L 511.323997 183.672234 
L 518.804924 159.448642 
L 526.28585 126.127502 
L 533.766777 148.268523 
L 541.247704 142.788072 
L 548.728631 145.857124 
L 556.209557 158.352552 
L 563.690484 182.904971 
L 568.17904 249.876077 
" clip-path="url(#p723019523f)" style="fill: none; stroke: #d9534f; stroke-linecap: square"/>
   </g>
   <g id="line2d_12">
    <path d="M 81.469943 177.674692 
L 81.619562 179.693412 
L 81.76918 179.095272 
L 81.918799 173.353136 
L 82.068417 171.282079 
L 82.218036 171.207311 
L 82.367654 171.626009 
L 82.517273 171.857788 
L 82.666891 177.263471 
L 89.399726 160.014103 
L 103.613486 155.535307 
L 118.57534 150.292774 
L 133.537194 147.926503 
L 148.499047 151.344506 
L 163.460901 151.157152 
L 178.422754 149.204612 
L 193.384608 152.050198 
L 208.346462 154.916566 
L 223.308315 152.635709 
L 238.270169 156.628034 
L 253.232022 154.323399 
L 268.193876 155.766629 
L 283.15573 148.107925 
L 298.117583 147.320374 
L 313.079437 140.746299 
L 328.04129 143.750788 
L 343.003144 141.082442 
L 357.964997 152.412315 
L 372.926851 153.695418 
L 387.888705 162.342558 
L 402.850558 158.051969 
L 417.812412 151.039378 
L 432.774265 154.603763 
L 447.736119 143.814632 
L 462.697973 114.912586 
L 477.659826 115.260551 
L 492.62168 143.662334 
L 507.583533 155.851639 
L 522.545387 168.896939 
L 537.507241 155.16567 
L 552.469094 158.836658 
L 567.430948 141.673714 
L 582.392801 145.747515 
L 597.354655 137.983544 
L 612.316508 150.259753 
L 627.278362 140.769439 
L 642.240216 149.775647 
L 653.461606 148.051542 
" clip-path="url(#p723019523f)" style="fill: none; stroke: #d9534f; stroke-linecap: square"/>
   </g>
   <g id="line2d_13">
    <path d="M 81.469943 172.844988 
L 81.619562 171.215375 
L 81.76918 156.417921 
L 81.918799 151.334526 
L 82.068417 108.265921 
L 82.218036 120.76308 
L 82.367654 154.298306 
L 82.517273 194.657076 
L 82.666891 200.705452 
L 89.399726 159.533126 
L 103.613486 154.965475 
L 118.57534 158.632751 
L 133.537194 155.653992 
L 148.499047 162.177406 
L 163.460901 159.841588 
L 178.422754 147.638245 
L 193.384608 151.79802 
L 208.346462 153.664856 
L 223.308315 151.647361 
L 238.270169 150.694299 
L 253.232022 146.195479 
L 268.193876 153.116639 
L 283.15573 153.094747 
L 298.117583 150.320387 
L 313.079437 154.488256 
L 328.04129 152.704324 
L 343.003144 154.756412 
L 357.964997 153.745408 
L 372.926851 150.750614 
L 387.888705 153.035303 
L 402.850558 149.219853 
L 417.812412 150.897376 
L 432.774265 152.433499 
L 447.736119 150.330954 
L 462.697973 153.404352 
L 477.659826 151.467063 
L 492.62168 153.54723 
L 507.583533 154.073556 
L 522.545387 151.753891 
L 537.507241 162.267591 
L 552.469094 158.282592 
L 567.430948 150.22965 
L 582.392801 143.768506 
L 597.354655 161.466787 
L 612.316508 172.128674 
L 627.278362 157.030513 
L 642.240216 166.014866 
L 657.202069 141.942186 
L 672.163923 146.805242 
L 687.125776 170.869901 
L 702.08763 155.884283 
L 717.049484 181.182282 
L 732.011337 80.598659 
L 746.973191 139.216645 
L 761.935044 139.061366 
L 776.896898 149.255004 
L 791.858751 143.089497 
L 806.820605 147.610869 
L 821.782459 169.587476 
L 836.744312 147.884891 
L 844.524476 141.089132 
" clip-path="url(#p723019523f)" style="fill: none; stroke: #d9534f; stroke-linecap: square"/>
   </g>
   <g id="line2d_14">
    <path d="M 81.469943 165.765924 
L 81.619562 155.994436 
L 81.76918 151.234287 
L 81.918799 146.233761 
L 82.068417 133.056226 
L 82.218036 133.759893 
L 82.367654 153.809409 
L 82.517273 151.932964 
L 82.666891 157.242072 
L 89.399726 150.760962 
L 103.613486 151.907689 
L 118.57534 154.284607 
L 133.537194 153.67036 
L 148.499047 151.946444 
L 163.460901 151.770775 
L 178.422754 153.585018 
L 193.384608 152.321611 
L 208.346462 150.177921 
L 223.308315 156.324355 
L 238.270169 154.02085 
L 253.232022 156.373775 
L 268.193876 154.213427 
L 283.15573 151.179529 
L 298.117583 154.136848 
L 313.079437 156.841147 
L 328.04129 158.628082 
L 343.003144 156.917917 
L 357.964997 161.890009 
L 372.926851 160.269278 
L 387.888705 154.801071 
L 402.850558 156.905979 
L 417.812412 155.779755 
L 432.774265 155.156387 
L 447.736119 151.096723 
L 462.697973 161.744553 
L 477.659826 159.173943 
L 492.62168 153.023522 
L 507.583533 147.100321 
L 522.545387 167.82849 
L 537.507241 166.569779 
L 552.469094 149.56595 
L 567.430948 155.965511 
L 582.392801 155.170737 
L 597.354655 156.167679 
L 612.316508 150.252446 
L 627.278362 154.286057 
L 642.240216 164.435852 
L 657.202069 157.069213 
L 672.163923 183.608295 
L 687.125776 144.487012 
L 702.08763 169.697085 
L 717.049484 151.447184 
L 730.365533 150.359635 
" clip-path="url(#p723019523f)" style="fill: none; stroke: #f0ad4e; stroke-linecap: square"/>
   </g>
   <g id="line2d_15">
    <path d="M 81.469943 166.96564 
L 81.619562 163.13491 
L 81.76918 156.531643 
L 81.918799 138.986862 
L 82.068417 96.619238 
L 82.218036 109.701941 
L 82.367654 146.865025 
L 82.517273 158.719254 
L 82.666891 167.084112 
L 89.399726 147.384523 
L 103.613486 148.194784 
L 118.57534 149.461073 
L 133.537194 150.34628 
L 148.499047 147.153646 
L 163.460901 146.860693 
L 178.422754 152.638087 
L 193.384608 150.858726 
L 208.346462 150.269182 
L 223.308315 152.776534 
L 238.270169 150.259362 
L 253.232022 154.031374 
L 268.193876 150.660865 
L 283.15573 148.761713 
L 298.117583 148.871779 
L 313.079437 152.682651 
L 328.04129 152.115238 
L 343.003144 147.356893 
L 357.964997 149.211379 
L 372.926851 152.314997 
L 387.888705 152.285507 
L 402.850558 149.781704 
L 417.812412 154.710943 
L 432.774265 149.533017 
L 447.736119 154.270228 
L 462.697973 155.907733 
L 477.659826 156.212527 
L 492.62168 155.648791 
L 507.583533 156.633729 
L 522.545387 155.730363 
L 537.507241 155.658442 
L 552.469094 156.608901 
L 567.430948 158.321707 
L 582.392801 156.023764 
L 597.354655 158.652878 
L 612.316508 157.084857 
L 627.278362 154.159598 
L 642.240216 156.889128 
L 657.202069 160.20532 
L 672.163923 158.740614 
L 687.125776 163.101321 
L 702.08763 164.434318 
L 717.049484 169.374087 
L 732.011337 176.206174 
L 746.973191 173.758942 
L 761.935044 178.122281 
L 776.896898 193.118051 
L 791.858751 166.030663 
L 806.820605 172.396207 
L 821.782459 166.952292 
L 836.744312 163.96088 
L 851.706166 163.887807 
L 866.668019 183.288602 
L 881.629873 158.982804 
L 896.591727 203.45666 
L 911.55358 152.899503 
L 926.515434 175.287144 
L 940.130721 153.420146 
" clip-path="url(#p723019523f)" style="fill: none; stroke: #f0ad4e; stroke-linecap: square"/>
   </g>
   <g id="line2d_16">
    <path d="M 81.469943 170.100484 
L 81.619562 175.247043 
L 81.76918 179.778434 
L 81.918799 177.492331 
L 82.068417 164.735101 
L 82.218036 174.55418 
L 82.367654 173.899181 
L 82.517273 183.908073 
L 82.666891 192.73236 
L 89.399726 158.49961 
L 103.613486 155.999395 
L 118.57534 161.816067 
L 133.537194 165.295732 
L 148.499047 165.289068 
L 163.460901 163.062415 
L 178.422754 162.382158 
L 193.384608 163.056296 
L 208.346462 161.413732 
L 223.308315 161.880132 
L 238.270169 164.980408 
L 253.232022 163.358024 
L 268.193876 164.329751 
L 283.15573 159.786184 
L 298.117583 158.129918 
L 313.079437 163.193782 
L 328.04129 158.45453 
L 343.003144 153.95714 
L 357.964997 165.139113 
L 372.926851 179.638634 
L 387.888705 180.213296 
L 402.850558 179.513606 
L 417.812412 180.736843 
L 432.774265 180.299245 
L 447.736119 177.626538 
L 462.697973 179.19986 
L 477.659826 182.09807 
L 492.62168 180.618123 
L 507.583533 177.264489 
L 522.545387 174.251844 
L 537.507241 173.215242 
L 552.469094 175.197861 
L 567.430948 168.439421 
L 582.392801 169.677112 
L 597.354655 171.594053 
L 612.316508 166.651853 
L 627.278362 175.149288 
L 642.240216 174.066048 
L 657.202069 158.533407 
L 672.163923 165.175713 
L 687.125776 165.984079 
L 702.08763 158.57177 
L 717.049484 149.09059 
L 732.011337 153.38361 
L 746.973191 150.38763 
L 761.935044 168.381776 
L 776.896898 160.151966 
L 791.858751 197.948808 
L 806.820605 194.276906 
L 821.782459 198.633864 
L 836.744312 230.09165 
L 851.706166 230.146455 
L 866.668019 233.160703 
L 881.629873 223.021869 
L 896.591727 222.91226 
L 911.55358 224.00835 
L 926.515434 224.6112 
L 941.327669 224.945619 
" clip-path="url(#p723019523f)" style="fill: none; stroke: #d9534f; stroke-linecap: square"/>
   </g>
   <g id="line2d_17">
    <path d="M 81.469943 194.539594 
L 81.619562 195.305231 
L 81.76918 199.00185 
L 81.918799 185.162291 
L 82.068417 170.919382 
L 82.218036 173.538891 
L 82.367654 170.331867 
L 82.517273 174.114045 
L 82.666891 182.713351 
L 89.399726 145.520884 
L 103.613486 143.493329 
L 118.57534 148.369192 
L 133.537194 156.399626 
L 148.499047 154.306797 
L 163.460901 150.123744 
L 178.422754 151.045058 
L 193.384608 153.058724 
L 208.346462 149.179377 
L 223.308315 151.134143 
L 238.270169 154.066395 
L 253.232022 152.448359 
L 268.193876 153.90188 
L 283.15573 148.55847 
L 298.117583 147.348736 
L 313.079437 148.425649 
L 328.04129 148.393953 
L 343.003144 144.480345 
L 357.964997 154.067804 
L 372.926851 177.707303 
L 387.888705 177.186834 
L 402.850558 176.672744 
L 417.812412 178.029231 
L 432.774265 178.384146 
L 447.736119 177.099121 
L 462.697973 177.394814 
L 477.659826 177.642023 
L 492.62168 176.072004 
L 507.583533 172.554551 
L 522.545387 167.135711 
L 537.507241 165.718517 
L 552.469094 167.557317 
L 567.430948 157.608296 
L 582.392801 160.166745 
L 597.354655 170.955505 
L 612.316508 177.427787 
L 627.278362 165.190915 
L 642.240216 155.30141 
L 657.202069 153.446645 
L 672.163923 159.461015 
L 687.125776 146.197823 
L 702.08763 138.838162 
L 717.049484 116.676335 
L 732.011337 139.120085 
L 746.973191 167.788061 
L 761.935044 177.406252 
L 776.896898 189.410265 
L 791.858751 186.796091 
L 806.820605 197.259184 
L 821.782459 210.088006 
L 836.744312 201.611575 
L 851.706166 213.394544 
L 866.668019 223.076674 
L 881.629873 223.295892 
L 896.591727 224.391982 
L 911.55358 227.022598 
L 926.515434 229.927237 
L 941.477287 217.486614 
L 949.706307 164.381047 
" clip-path="url(#p723019523f)" style="fill: none; stroke: #d9534f; stroke-linecap: square"/>
   </g>
   <g id="line2d_18">
    <path d="M 81.469943 166.371741 
L 81.619562 165.493257 
L 81.76918 162.237224 
L 81.918799 151.566464 
L 82.068417 128.471585 
L 82.218036 132.031053 
L 82.367654 151.862375 
L 82.517273 161.313932 
L 82.666891 167.520805 
L 89.399726 152.156255 
L 103.613486 150.263534 
L 118.57534 149.566467 
L 133.537194 151.800773 
L 148.499047 152.39828 
L 163.460901 150.947619 
L 178.422754 150.096268 
L 193.384608 150.203859 
L 208.346462 147.321901 
L 223.308315 154.13947 
L 238.270169 152.324779 
L 253.232022 149.559967 
L 268.193876 148.829488 
L 283.15573 146.969292 
L 298.117583 149.28867 
L 313.079437 155.729241 
L 328.04129 152.428077 
L 343.003144 154.824254 
L 357.964997 154.75024 
L 372.926851 146.473841 
L 387.888705 151.464095 
L 402.850558 152.815527 
L 417.812412 146.574025 
L 432.774265 130.896849 
L 447.736119 134.920574 
L 462.697973 132.886022 
L 477.659826 135.641112 
L 492.62168 146.414303 
L 507.583533 170.382141 
L 522.545387 152.214447 
L 537.507241 156.544003 
L 552.469094 154.242214 
L 567.430948 127.497615 
L 582.392801 128.429291 
L 594.661521 146.460844 
" clip-path="url(#p723019523f)" style="fill: none; stroke: #f0ad4e; stroke-linecap: square"/>
   </g>
   <g id="line2d_19">
    <path d="M 81.469943 171.193598 
L 81.619562 163.987608 
L 81.76918 149.562111 
L 81.918799 149.986231 
L 82.068417 155.007827 
L 82.218036 143.681598 
L 82.367654 136.682532 
L 82.517273 141.158772 
L 82.666891 139.345921 
L 89.399726 130.514173 
L 103.613486 128.423256 
L 118.57534 129.612015 
L 133.537194 134.875731 
L 148.499047 132.735929 
L 163.460901 129.235191 
L 178.422754 138.292736 
L 193.384608 138.723374 
L 208.346462 144.435721 
L 223.308315 144.65959 
L 238.270169 145.4384 
L 253.232022 147.038212 
L 268.193876 142.212369 
L 283.15573 141.839195 
L 298.117583 143.201306 
L 313.079437 142.338549 
L 328.04129 131.743282 
L 343.003144 139.78991 
L 357.964997 153.557113 
L 372.926851 161.117292 
L 387.888705 156.071069 
L 402.850558 158.800801 
L 417.812412 158.910768 
L 432.774265 161.856073 
L 447.736119 156.782366 
L 462.697973 156.504293 
L 477.659826 155.683305 
L 492.62168 155.384735 
L 507.583533 154.712374 
L 522.545387 151.784396 
L 537.507241 150.825277 
L 552.469094 150.21362 
L 567.430948 149.474837 
L 582.392801 154.635057 
L 597.354655 147.647223 
L 612.316508 147.845785 
L 627.278362 154.534178 
L 642.240216 143.939073 
L 657.202069 153.910614 
L 672.163923 138.990007 
L 687.125776 132.431695 
L 702.08763 158.652019 
L 717.049484 128.472222 
L 732.011337 152.022631 
L 746.973191 147.50126 
L 761.935044 194.523526 
L 776.896898 174.793904 
L 790.362566 178.698725 
" clip-path="url(#p723019523f)" style="fill: none; stroke: #d9534f; stroke-linecap: square"/>
   </g>
   <g id="line2d_20">
    <path d="M 81.469943 199.315062 
L 81.619562 196.318711 
L 81.76918 186.977714 
L 81.918799 161.721207 
L 82.068417 156.558841 
L 82.218036 142.535714 
L 82.367654 130.805974 
L 82.517273 139.05452 
L 82.666891 141.888259 
L 89.399726 126.900962 
L 103.613486 117.386334 
L 118.57534 113.782188 
L 133.537194 125.953908 
L 148.499047 125.82346 
L 163.460901 129.061175 
L 178.422754 129.61716 
L 193.384608 121.891253 
L 208.346462 122.750605 
L 223.308315 128.621525 
L 238.270169 131.932562 
L 253.232022 129.184779 
L 268.193876 129.325649 
L 283.15573 139.653843 
L 298.117583 146.122776 
L 313.079437 134.32808 
L 328.04129 122.455063 
L 343.003144 125.511967 
L 357.964997 94.136075 
L 372.926851 98.182682 
L 387.888705 110.463451 
L 402.850558 133.139198 
L 417.812412 138.177822 
L 432.774265 142.173979 
L 447.736119 138.2254 
L 462.697973 137.918901 
L 477.659826 143.019982 
L 492.62168 144.976983 
L 507.583533 144.115962 
L 522.545387 143.543496 
L 537.507241 146.807787 
L 552.469094 147.323419 
L 567.430948 142.998768 
L 582.392801 149.098974 
L 597.354655 144.046456 
L 612.316508 131.688566 
L 627.278362 157.26676 
L 642.240216 166.6563 
L 657.202069 173.136197 
L 672.163923 179.802446 
L 687.125776 147.199248 
L 702.08763 125.141021 
L 717.049484 140.952121 
L 732.011337 176.547648 
L 746.973191 173.643009 
L 761.935044 175.287144 
L 776.896898 171.998874 
L 791.858751 174.300663 
L 806.820605 171.779656 
L 821.782459 169.14904 
L 836.744312 172.218092 
L 850.509218 195.436934 
" clip-path="url(#p723019523f)" style="fill: none; stroke: #d9534f; stroke-linecap: square"/>
   </g>
   <g id="line2d_21">
    <path d="M 38.058125 273.99006 
L 993.118125 273.99006 
" clip-path="url(#p723019523f)" style="fill: none; stroke: #dedede; stroke-width: 2; stroke-linecap: square"/>
   </g>
   <g id="text_19">
    <!-- FastQC: Mean Quality Scores -->
    <g transform="translate(400.349375 19.3575) scale(0.16 -0.16)">
     <defs>
      <path id="DejaVuSans-46" d="M 628 4666 
L 3309 4666 
L 3309 4134 
L 1259 4134 
L 1259 2759 
L 3109 2759 
L 3109 2228 
L 1259 2228 
L 1259 0 
L 628 0 
L 628 4666 
z
" transform="scale(0.015625)"/>
      <path id="DejaVuSans-61" d="M 2194 1759 
Q 1497 1759 1228 1600 
Q 959 1441 959 1056 
Q 959 750 1161 570 
Q 1363 391 1709 391 
Q 2188 391 2477 730 
Q 2766 1069 2766 1631 
L 2766 1759 
L 2194 1759 
z
M 3341 1997 
L 3341 0 
L 2766 0 
L 2766 531 
Q 2569 213 2275 61 
Q 1981 -91 1556 -91 
Q 1019 -91 701 211 
Q 384 513 384 1019 
Q 384 1609 779 1909 
Q 1175 2209 1959 2209 
L 2766 2209 
L 2766 2266 
Q 2766 2663 2505 2880 
Q 2244 3097 1772 3097 
Q 1472 3097 1187 3025 
Q 903 2953 641 2809 
L 641 3341 
Q 956 3463 1253 3523 
Q 1550 3584 1831 3584 
Q 2591 3584 2966 3190 
Q 3341 2797 3341 1997 
z
" transform="scale(0.015625)"/>
      <path id="DejaVuSans-51" d="M 2522 4238 
Q 1834 4238 1429 3725 
Q 1025 3213 1025 2328 
Q 1025 1447 1429 934 
Q 1834 422 2522 422 
Q 3209 422 3611 934 
Q 4013 1447 4013 2328 
Q 4013 3213 3611 3725 
Q 3209 4238 2522 4238 
z
M 3406 84 
L 4238 -825 
L 3475 -825 
L 2784 -78 
Q 2681 -84 2626 -87 
Q 2572 -91 2522 -91 
Q 1538 -91 948 567 
Q 359 1225 359 2328 
Q 359 3434 948 4092 
Q 1538 4750 2522 4750 
Q 3503 4750 4090 4092 
Q 4678 3434 4678 2328 
Q 4678 1516 4351 937 
Q 4025 359 3406 84 
z
" transform="scale(0.015625)"/>
      <path id="DejaVuSans-43" d="M 4122 4306 
L 4122 3641 
Q 3803 3938 3442 4084 
Q 3081 4231 2675 4231 
Q 1875 4231 1450 3742 
Q 1025 3253 1025 2328 
Q 1025 1406 1450 917 
Q 1875 428 2675 428 
Q 3081 428 3442 575 
Q 3803 722 4122 1019 
L 4122 359 
Q 3791 134 3420 21 
Q 3050 -91 2638 -91 
Q 1578 -91 968 557 
Q 359 1206 359 2328 
Q 359 3453 968 4101 
Q 1578 4750 2638 4750 
Q 3056 4750 3426 4639 
Q 3797 4528 4122 4306 
z
" transform="scale(0.015625)"/>
      <path id="DejaVuSans-3a" d="M 750 794 
L 1409 794 
L 1409 0 
L 750 0 
L 750 794 
z
M 750 3309 
L 1409 3309 
L 1409 2516 
L 750 2516 
L 750 3309 
z
" transform="scale(0.015625)"/>
      <path id="DejaVuSans-4d" d="M 628 4666 
L 1569 4666 
L 2759 1491 
L 3956 4666 
L 4897 4666 
L 4897 0 
L 4281 0 
L 4281 4097 
L 3078 897 
L 2444 897 
L 1241 4097 
L 1241 0 
L 628 0 
L 628 4666 
z
" transform="scale(0.015625)"/>
      <path id="DejaVuSans-75" d="M 544 1381 
L 544 3500 
L 1119 3500 
L 1119 1403 
Q 1119 906 1312 657 
Q 1506 409 1894 409 
Q 2359 409 2629 706 
Q 2900 1003 2900 1516 
L 2900 3500 
L 3475 3500 
L 3475 0 
L 2900 0 
L 2900 538 
Q 2691 219 2414 64 
Q 2138 -91 1772 -91 
Q 1169 -91 856 284 
Q 544 659 544 1381 
z
M 1991 3584 
L 1991 3584 
z
" transform="scale(0.015625)"/>
      <path id="DejaVuSans-6c" d="M 603 4863 
L 1178 4863 
L 1178 0 
L 603 0 
L 603 4863 
z
" transform="scale(0.015625)"/>
      <path id="DejaVuSans-79" d="M 2059 -325 
Q 1816 -950 1584 -1140 
Q 1353 -1331 966 -1331 
L 506 -1331 
L 506 -850 
L 844 -850 
Q 1081 -850 1212 -737 
Q 1344 -625 1503 -206 
L 1606 56 
L 191 3500 
L 800 3500 
L 1894 763 
L 2988 3500 
L 3597 3500 
L 2059 -325 
z
" transform="scale(0.015625)"/>
     </defs>
     <use xlink:href="#DejaVuSans-46"/>
     <use xlink:href="#DejaVuSans-61" x="48.394531"/>
     <use xlink:href="#DejaVuSans-73" x="109.673828"/>
     <use xlink:href="#DejaVuSans-74" x="161.773438"/>
     <use xlink:href="#DejaVuSans-51" x="200.982422"/>
     <use xlink:href="#DejaVuSans-43" x="279.693359"/>
     <use xlink:href="#DejaVuSans-3a" x="349.517578"/>
     <use xlink:href="#DejaVuSans-20" x="383.208984"/>
     <use xlink:href="#DejaVuSans-4d" x="414.996094"/>
     <use xlink:href="#DejaVuSans-65" x="501.275391"/>
     <use xlink:href="#DejaVuSans-61" x="562.798828"/>
     <use xlink:href="#DejaVuSans-6e" x="624.078125"/>
     <use xlink:href="#DejaVuSans-20" x="687.457031"/>
     <use xlink:href="#DejaVuSans-51" x="719.244141"/>
     <use xlink:href="#DejaVuSans-75" x="797.955078"/>
     <use xlink:href="#DejaVuSans-61" x="861.333984"/>
     <use xlink:href="#DejaVuSans-6c" x="922.613281"/>
     <use xlink:href="#DejaVuSans-69" x="950.396484"/>
     <use xlink:href="#DejaVuSans-74" x="978.179688"/>
     <use xlink:href="#DejaVuSans-79" x="1017.388672"/>
     <use xlink:href="#DejaVuSans-20" x="1076.568359"/>
     <use xlink:href="#DejaVuSans-53" x="1108.355469"/>
     <use xlink:href="#DejaVuSans-63" x="1171.832031"/>
     <use xlink:href="#DejaVuSans-6f" x="1226.8125"/>
     <use xlink:href="#DejaVuSans-72" x="1287.994141"/>
     <use xlink:href="#DejaVuSans-65" x="1326.857422"/>
     <use xlink:href="#DejaVuSans-73" x="1388.380859"/>
    </g>
   </g>
   <g id="legend_1">
    <g id="line2d_22">
     <path d="M 45.258125 291.525394 
L 53.258125 291.525394 
L 61.258125 291.525394 
" style="fill: none; stroke: #d9534f; stroke-linecap: square"/>
    </g>
    <g id="text_20">
     <!-- 252232567_N -->
     <g transform="translate(67.658125 294.325394) scale(0.08 -0.08)">
      <defs>
       <path id="DejaVuSans-37" d="M 525 4666 
L 3525 4666 
L 3525 4397 
L 1831 0 
L 1172 0 
L 2766 4134 
L 525 4134 
L 525 4666 
z
" transform="scale(0.015625)"/>
       <path id="DejaVuSans-5f" d="M 3263 -1063 
L 3263 -1509 
L -63 -1509 
L -63 -1063 
L 3263 -1063 
z
" transform="scale(0.015625)"/>
       <path id="DejaVuSans-4e" d="M 628 4666 
L 1478 4666 
L 3547 763 
L 3547 4666 
L 4159 4666 
L 4159 0 
L 3309 0 
L 1241 3903 
L 1241 0 
L 628 0 
L 628 4666 
z
" transform="scale(0.015625)"/>
      </defs>
      <use xlink:href="#DejaVuSans-32"/>
      <use xlink:href="#DejaVuSans-35" x="63.623047"/>
      <use xlink:href="#DejaVuSans-32" x="127.246094"/>
      <use xlink:href="#DejaVuSans-32" x="190.869141"/>
      <use xlink:href="#DejaVuSans-33" x="254.492188"/>
      <use xlink:href="#DejaVuSans-32" x="318.115234"/>
      <use xlink:href="#DejaVuSans-35" x="381.738281"/>
      <use xlink:href="#DejaVuSans-36" x="445.361328"/>
      <use xlink:href="#DejaVuSans-37" x="508.984375"/>
      <use xlink:href="#DejaVuSans-5f" x="572.607422"/>
      <use xlink:href="#DejaVuSans-4e" x="622.607422"/>
     </g>
    </g>
    <g id="line2d_23">
     <path d="M 45.258125 303.490394 
L 53.258125 303.490394 
L 61.258125 303.490394 
" style="fill: none; stroke: #d9534f; stroke-linecap: square"/>
    </g>
    <g id="text_21">
     <!-- 252232865_N -->
     <g transform="translate(67.658125 306.290394) scale(0.08 -0.08)">
      <defs>
       <path id="DejaVuSans-38" d="M 2034 2216 
Q 1584 2216 1326 1975 
Q 1069 1734 1069 1313 
Q 1069 891 1326 650 
Q 1584 409 2034 409 
Q 2484 409 2743 651 
Q 3003 894 3003 1313 
Q 3003 1734 2745 1975 
Q 2488 2216 2034 2216 
z
M 1403 2484 
Q 997 2584 770 2862 
Q 544 3141 544 3541 
Q 544 4100 942 4425 
Q 1341 4750 2034 4750 
Q 2731 4750 3128 4425 
Q 3525 4100 3525 3541 
Q 3525 3141 3298 2862 
Q 3072 2584 2669 2484 
Q 3125 2378 3379 2068 
Q 3634 1759 3634 1313 
Q 3634 634 3220 271 
Q 2806 -91 2034 -91 
Q 1263 -91 848 271 
Q 434 634 434 1313 
Q 434 1759 690 2068 
Q 947 2378 1403 2484 
z
M 1172 3481 
Q 1172 3119 1398 2916 
Q 1625 2713 2034 2713 
Q 2441 2713 2670 2916 
Q 2900 3119 2900 3481 
Q 2900 3844 2670 4047 
Q 2441 4250 2034 4250 
Q 1625 4250 1398 4047 
Q 1172 3844 1172 3481 
z
" transform="scale(0.015625)"/>
      </defs>
      <use xlink:href="#DejaVuSans-32"/>
      <use xlink:href="#DejaVuSans-35" x="63.623047"/>
      <use xlink:href="#DejaVuSans-32" x="127.246094"/>
      <use xlink:href="#DejaVuSans-32" x="190.869141"/>
      <use xlink:href="#DejaVuSans-33" x="254.492188"/>
      <use xlink:href="#DejaVuSans-32" x="318.115234"/>
      <use xlink:href="#DejaVuSans-38" x="381.738281"/>
      <use xlink:href="#DejaVuSans-36" x="445.361328"/>
      <use xlink:href="#DejaVuSans-35" x="508.984375"/>
      <use xlink:href="#DejaVuSans-5f" x="572.607422"/>
      <use xlink:href="#DejaVuSans-4e" x="622.607422"/>
     </g>
    </g>
    <g id="line2d_24">
     <path d="M 45.258125 315.455394 
L 53.258125 315.455394 
L 61.258125 315.455394 
" style="fill: none; stroke: #d9534f; stroke-linecap: square"/>
    </g>
    <g id="text_22">
     <!-- 252233208_N -->
     <g transform="translate(67.658125 318.255394) scale(0.08 -0.08)">
      <use xlink:href="#DejaVuSans-32"/>
      <use xlink:href="#DejaVuSans-35" x="63.623047"/>
      <use xlink:href="#DejaVuSans-32" x="127.246094"/>
      <use xlink:href="#DejaVuSans-32" x="190.869141"/>
      <use xlink:href="#DejaVuSans-33" x="254.492188"/>
      <use xlink:href="#DejaVuSans-33" x="318.115234"/>
      <use xlink:href="#DejaVuSans-32" x="381.738281"/>
      <use xlink:href="#DejaVuSans-30" x="445.361328"/>
      <use xlink:href="#DejaVuSans-38" x="508.984375"/>
      <use xlink:href="#DejaVuSans-5f" x="572.607422"/>
      <use xlink:href="#DejaVuSans-4e" x="622.607422"/>
     </g>
    </g>
    <g id="line2d_25">
     <path d="M 259.502188 291.525394 
L 267.502188 291.525394 
L 275.502188 291.525394 
" style="fill: none; stroke: #d9534f; stroke-linecap: square"/>
    </g>
    <g id="text_23">
     <!-- 252233210_N -->
     <g transform="translate(281.902188 294.325394) scale(0.08 -0.08)">
      <use xlink:href="#DejaVuSans-32"/>
      <use xlink:href="#DejaVuSans-35" x="63.623047"/>
      <use xlink:href="#DejaVuSans-32" x="127.246094"/>
      <use xlink:href="#DejaVuSans-32" x="190.869141"/>
      <use xlink:href="#DejaVuSans-33" x="254.492188"/>
      <use xlink:href="#DejaVuSans-33" x="318.115234"/>
      <use xlink:href="#DejaVuSans-32" x="381.738281"/>
      <use xlink:href="#DejaVuSans-31" x="445.361328"/>
      <use xlink:href="#DejaVuSans-30" x="508.984375"/>
      <use xlink:href="#DejaVuSans-5f" x="572.607422"/>
      <use xlink:href="#DejaVuSans-4e" x="622.607422"/>
     </g>
    </g>
    <g id="line2d_26">
     <path d="M 259.502188 303.490394 
L 267.502188 303.490394 
L 275.502188 303.490394 
" style="fill: none; stroke: #f0ad4e; stroke-linecap: square"/>
    </g>
    <g id="text_24">
     <!-- 252234481_N -->
     <g transform="translate(281.902188 306.290394) scale(0.08 -0.08)">
      <use xlink:href="#DejaVuSans-32"/>
      <use xlink:href="#DejaVuSans-35" x="63.623047"/>
      <use xlink:href="#DejaVuSans-32" x="127.246094"/>
      <use xlink:href="#DejaVuSans-32" x="190.869141"/>
      <use xlink:href="#DejaVuSans-33" x="254.492188"/>
      <use xlink:href="#DejaVuSans-34" x="318.115234"/>
      <use xlink:href="#DejaVuSans-34" x="381.738281"/>
      <use xlink:href="#DejaVuSans-38" x="445.361328"/>
      <use xlink:href="#DejaVuSans-31" x="508.984375"/>
      <use xlink:href="#DejaVuSans-5f" x="572.607422"/>
      <use xlink:href="#DejaVuSans-4e" x="622.607422"/>
     </g>
    </g>
    <g id="line2d_27">
     <path d="M 473.74625 291.525394 
L 481.74625 291.525394 
L 489.74625 291.525394 
" style="fill: none; stroke: #f0ad4e; stroke-linecap: square"/>
    </g>
    <g id="text_25">
     <!-- 252236587_N -->
     <g transform="translate(496.14625 294.325394) scale(0.08 -0.08)">
      <use xlink:href="#DejaVuSans-32"/>
      <use xlink:href="#DejaVuSans-35" x="63.623047"/>
      <use xlink:href="#DejaVuSans-32" x="127.246094"/>
      <use xlink:href="#DejaVuSans-32" x="190.869141"/>
      <use xlink:href="#DejaVuSans-33" x="254.492188"/>
      <use xlink:href="#DejaVuSans-36" x="318.115234"/>
      <use xlink:href="#DejaVuSans-35" x="381.738281"/>
      <use xlink:href="#DejaVuSans-38" x="445.361328"/>
      <use xlink:href="#DejaVuSans-37" x="508.984375"/>
      <use xlink:href="#DejaVuSans-5f" x="572.607422"/>
      <use xlink:href="#DejaVuSans-4e" x="622.607422"/>
     </g>
    </g>
    <g id="line2d_28">
     <path d="M 473.74625 303.490394 
L 481.74625 303.490394 
L 489.74625 303.490394 
" style="fill: none; stroke: #d9534f; stroke-linecap: square"/>
    </g>
    <g id="text_26">
     <!-- 252238148_N -->
     <g transform="translate(496.14625 306.290394) scale(0.08 -0.08)">
      <use xlink:href="#DejaVuSans-32"/>
      <use xlink:href="#DejaVuSans-35" x="63.623047"/>
      <use xlink:href="#DejaVuSans-32" x="127.246094"/>
      <use xlink:href="#DejaVuSans-32" x="190.869141"/>
      <use xlink:href="#DejaVuSans-33" x="254.492188"/>
      <use xlink:href="#DejaVuSans-38" x="318.115234"/>
      <use xlink:href="#DejaVuSans-31" x="381.738281"/>
      <use xlink:href="#DejaVuSans-34" x="445.361328"/>
      <use xlink:href="#DejaVuSans-38" x="508.984375"/>
      <use xlink:href="#DejaVuSans-5f" x="572.607422"/>
      <use xlink:href="#DejaVuSans-4e" x="622.607422"/>
     </g>
    </g>
    <g id="line2d_29">
     <path d="M 687.990313 291.525394 
L 695.990313 291.525394 
L 703.990313 291.525394 
" style="fill: none; stroke: #d9534f; stroke-linecap: square"/>
    </g>
    <g id="text_27">
     <!-- 252303316B_N -->
     <g transform="translate(710.390313 294.325394) scale(0.08 -0.08)">
      <defs>
       <path id="DejaVuSans-42" d="M 1259 2228 
L 1259 519 
L 2272 519 
Q 2781 519 3026 730 
Q 3272 941 3272 1375 
Q 3272 1813 3026 2020 
Q 2781 2228 2272 2228 
L 1259 2228 
z
M 1259 4147 
L 1259 2741 
L 2194 2741 
Q 2656 2741 2882 2914 
Q 3109 3088 3109 3444 
Q 3109 3797 2882 3972 
Q 2656 4147 2194 4147 
L 1259 4147 
z
M 628 4666 
L 2241 4666 
Q 2963 4666 3353 4366 
Q 3744 4066 3744 3513 
Q 3744 3084 3544 2831 
Q 3344 2578 2956 2516 
Q 3422 2416 3680 2098 
Q 3938 1781 3938 1306 
Q 3938 681 3513 340 
Q 3088 0 2303 0 
L 628 0 
L 628 4666 
z
" transform="scale(0.015625)"/>
      </defs>
      <use xlink:href="#DejaVuSans-32"/>
      <use xlink:href="#DejaVuSans-35" x="63.623047"/>
      <use xlink:href="#DejaVuSans-32" x="127.246094"/>
      <use xlink:href="#DejaVuSans-33" x="190.869141"/>
      <use xlink:href="#DejaVuSans-30" x="254.492188"/>
      <use xlink:href="#DejaVuSans-33" x="318.115234"/>
      <use xlink:href="#DejaVuSans-33" x="381.738281"/>
      <use xlink:href="#DejaVuSans-31" x="445.361328"/>
      <use xlink:href="#DejaVuSans-36" x="508.984375"/>
      <use xlink:href="#DejaVuSans-42" x="572.607422"/>
      <use xlink:href="#DejaVuSans-5f" x="641.210938"/>
      <use xlink:href="#DejaVuSans-4e" x="691.210938"/>
     </g>
    </g>
    <g id="line2d_30">
     <path d="M 687.990313 303.490394 
L 695.990313 303.490394 
L 703.990313 303.490394 
" style="fill: none; stroke: #f0ad4e; stroke-linecap: square"/>
    </g>
    <g id="text_28">
     <!-- 252303316_N -->
     <g transform="translate(710.390313 306.290394) scale(0.08 -0.08)">
      <use xlink:href="#DejaVuSans-32"/>
      <use xlink:href="#DejaVuSans-35" x="63.623047"/>
      <use xlink:href="#DejaVuSans-32" x="127.246094"/>
      <use xlink:href="#DejaVuSans-33" x="190.869141"/>
      <use xlink:href="#DejaVuSans-30" x="254.492188"/>
      <use xlink:href="#DejaVuSans-33" x="318.115234"/>
      <use xlink:href="#DejaVuSans-33" x="381.738281"/>
      <use xlink:href="#DejaVuSans-31" x="445.361328"/>
      <use xlink:href="#DejaVuSans-36" x="508.984375"/>
      <use xlink:href="#DejaVuSans-5f" x="572.607422"/>
      <use xlink:href="#DejaVuSans-4e" x="622.607422"/>
     </g>
    </g>
    <g id="line2d_31">
     <path d="M 907.723125 291.525394 
L 915.723125 291.525394 
L 923.723125 291.525394 
" style="fill: none; stroke: #d9534f; stroke-linecap: square"/>
    </g>
    <g id="text_29">
     <!-- 252308239_N -->
     <g transform="translate(930.123125 294.325394) scale(0.08 -0.08)">
      <defs>
       <path id="DejaVuSans-39" d="M 703 97 
L 703 672 
Q 941 559 1184 500 
Q 1428 441 1663 441 
Q 2288 441 2617 861 
Q 2947 1281 2994 2138 
Q 2813 1869 2534 1725 
Q 2256 1581 1919 1581 
Q 1219 1581 811 2004 
Q 403 2428 403 3163 
Q 403 3881 828 4315 
Q 1253 4750 1959 4750 
Q 2769 4750 3195 4129 
Q 3622 3509 3622 2328 
Q 3622 1225 3098 567 
Q 2575 -91 1691 -91 
Q 1453 -91 1209 -44 
Q 966 3 703 97 
z
M 1959 2075 
Q 2384 2075 2632 2365 
Q 2881 2656 2881 3163 
Q 2881 3666 2632 3958 
Q 2384 4250 1959 4250 
Q 1534 4250 1286 3958 
Q 1038 3666 1038 3163 
Q 1038 2656 1286 2365 
Q 1534 2075 1959 2075 
z
" transform="scale(0.015625)"/>
      </defs>
      <use xlink:href="#DejaVuSans-32"/>
      <use xlink:href="#DejaVuSans-35" x="63.623047"/>
      <use xlink:href="#DejaVuSans-32" x="127.246094"/>
      <use xlink:href="#DejaVuSans-33" x="190.869141"/>
      <use xlink:href="#DejaVuSans-30" x="254.492188"/>
      <use xlink:href="#DejaVuSans-38" x="318.115234"/>
      <use xlink:href="#DejaVuSans-32" x="381.738281"/>
      <use xlink:href="#DejaVuSans-33" x="445.361328"/>
      <use xlink:href="#DejaVuSans-39" x="508.984375"/>
      <use xlink:href="#DejaVuSans-5f" x="572.607422"/>
      <use xlink:href="#DejaVuSans-4e" x="622.607422"/>
     </g>
    </g>
    <g id="line2d_32">
     <path d="M 907.723125 303.490394 
L 915.723125 303.490394 
L 923.723125 303.490394 
" style="fill: none; stroke: #d9534f; stroke-linecap: square"/>
    </g>
    <g id="text_30">
     <!-- 252308330_N -->
     <g transform="translate(930.123125 306.290394) scale(0.08 -0.08)">
      <use xlink:href="#DejaVuSans-32"/>
      <use xlink:href="#DejaVuSans-35" x="63.623047"/>
      <use xlink:href="#DejaVuSans-32" x="127.246094"/>
      <use xlink:href="#DejaVuSans-33" x="190.869141"/>
      <use xlink:href="#DejaVuSans-30" x="254.492188"/>
      <use xlink:href="#DejaVuSans-38" x="318.115234"/>
      <use xlink:href="#DejaVuSans-33" x="381.738281"/>
      <use xlink:href="#DejaVuSans-33" x="445.361328"/>
      <use xlink:href="#DejaVuSans-30" x="508.984375"/>
      <use xlink:href="#DejaVuSans-5f" x="572.607422"/>
      <use xlink:href="#DejaVuSans-4e" x="622.607422"/>
     </g>
    </g>
   </g>
  </g>
 </g>
 <defs>
  <clipPath id="p723019523f">
   <rect x="38.058125" y="31.48286" width="955.06" height="242.5072"/>
  </clipPath>
 </defs>
</svg>
