<?xml version="1.0" encoding="utf-8" standalone="no"?>
<!DOCTYPE svg PUBLIC "-//W3C//DTD SVG 1.1//EN"
  "http://www.w3.org/Graphics/SVG/1.1/DTD/svg11.dtd">
<svg xmlns:xlink="http://www.w3.org/1999/xlink" width="1000.178125pt" height="330.541644pt" viewBox="0 0 1000.178125 330.541644" xmlns="http://www.w3.org/2000/svg" version="1.1">
 <metadata>
  <rdf:RDF xmlns:dc="http://purl.org/dc/elements/1.1/" xmlns:cc="http://creativecommons.org/ns#" xmlns:rdf="http://www.w3.org/1999/02/22-rdf-syntax-ns#">
   <cc:Work>
    <dc:type rdf:resource="http://purl.org/dc/dcmitype/StillImage"/>
    <dc:date>2024-02-01T21:52:36.134396</dc:date>
    <dc:format>image/svg+xml</dc:format>
    <dc:creator>
     <cc:Agent>
      <dc:title>Matplotlib v3.6.2, https://matplotlib.org/</dc:title>
     </cc:Agent>
    </dc:creator>
   </cc:Work>
  </rdf:RDF>
 </metadata>
 <defs>
  <style type="text/css">*{stroke-linejoin: round; stroke-linecap: butt}</style>
 </defs>
 <g id="figure_1">
  <g id="axes_1">
   <g id="patch_1">
    <path d="M 48.238125 273.99006 
L 985.343125 273.99006 
L 985.343125 31.48286 
L 48.238125 31.48286 
z
" style="fill: #ffffff"/>
   </g>
   <g id="matplotlib.axis_1">
    <g id="xtick_1">
     <g id="text_1">
      <!-- 0 -->
      <g transform="translate(45.693125 287.06881) scale(0.08 -0.08)">
       <defs>
        <path id="DejaVuSans-30" d="M 2034 4250 
Q 1547 4250 1301 3770 
Q 1056 3291 1056 2328 
Q 1056 1369 1301 889 
Q 1547 409 2034 409 
Q 2525 409 2770 889 
Q 3016 1369 3016 2328 
Q 3016 3291 2770 3770 
Q 2525 4250 2034 4250 
z
M 2034 4750 
Q 2819 4750 3233 4129 
Q 3647 3509 3647 2328 
Q 3647 1150 3233 529 
Q 2819 -91 2034 -91 
Q 1250 -91 836 529 
Q 422 1150 422 2328 
Q 422 3509 836 4129 
Q 1250 4750 2034 4750 
z
" transform="scale(0.015625)"/>
       </defs>
       <use xlink:href="#DejaVuSans-30"/>
      </g>
     </g>
    </g>
    <g id="xtick_2">
     <g id="text_2">
      <!-- 20 -->
      <g transform="translate(230.569125 287.06881) scale(0.08 -0.08)">
       <defs>
        <path id="DejaVuSans-32" d="M 1228 531 
L 3431 531 
L 3431 0 
L 469 0 
L 469 531 
Q 828 903 1448 1529 
Q 2069 2156 2228 2338 
Q 2531 2678 2651 2914 
Q 2772 3150 2772 3378 
Q 2772 3750 2511 3984 
Q 2250 4219 1831 4219 
Q 1534 4219 1204 4116 
Q 875 4013 500 3803 
L 500 4441 
Q 881 4594 1212 4672 
Q 1544 4750 1819 4750 
Q 2544 4750 2975 4387 
Q 3406 4025 3406 3419 
Q 3406 3131 3298 2873 
Q 3191 2616 2906 2266 
Q 2828 2175 2409 1742 
Q 1991 1309 1228 531 
z
" transform="scale(0.015625)"/>
       </defs>
       <use xlink:href="#DejaVuSans-32"/>
       <use xlink:href="#DejaVuSans-30" x="63.623047"/>
      </g>
     </g>
    </g>
    <g id="xtick_3">
     <g id="text_3">
      <!-- 40 -->
      <g transform="translate(417.990125 287.06881) scale(0.08 -0.08)">
       <defs>
        <path id="DejaVuSans-34" d="M 2419 4116 
L 825 1625 
L 2419 1625 
L 2419 4116 
z
M 2253 4666 
L 3047 4666 
L 3047 1625 
L 3713 1625 
L 3713 1100 
L 3047 1100 
L 3047 0 
L 2419 0 
L 2419 1100 
L 313 1100 
L 313 1709 
L 2253 4666 
z
" transform="scale(0.015625)"/>
       </defs>
       <use xlink:href="#DejaVuSans-34"/>
       <use xlink:href="#DejaVuSans-30" x="63.623047"/>
      </g>
     </g>
    </g>
    <g id="xtick_4">
     <g id="text_4">
      <!-- 60 -->
      <g transform="translate(605.411125 287.06881) scale(0.08 -0.08)">
       <defs>
        <path id="DejaVuSans-36" d="M 2113 2584 
Q 1688 2584 1439 2293 
Q 1191 2003 1191 1497 
Q 1191 994 1439 701 
Q 1688 409 2113 409 
Q 2538 409 2786 701 
Q 3034 994 3034 1497 
Q 3034 2003 2786 2293 
Q 2538 2584 2113 2584 
z
M 3366 4563 
L 3366 3988 
Q 3128 4100 2886 4159 
Q 2644 4219 2406 4219 
Q 1781 4219 1451 3797 
Q 1122 3375 1075 2522 
Q 1259 2794 1537 2939 
Q 1816 3084 2150 3084 
Q 2853 3084 3261 2657 
Q 3669 2231 3669 1497 
Q 3669 778 3244 343 
Q 2819 -91 2113 -91 
Q 1303 -91 875 529 
Q 447 1150 447 2328 
Q 447 3434 972 4092 
Q 1497 4750 2381 4750 
Q 2619 4750 2861 4703 
Q 3103 4656 3366 4563 
z
" transform="scale(0.015625)"/>
       </defs>
       <use xlink:href="#DejaVuSans-36"/>
       <use xlink:href="#DejaVuSans-30" x="63.623047"/>
      </g>
     </g>
    </g>
    <g id="xtick_5">
     <g id="text_5">
      <!-- 80 -->
      <g transform="translate(792.832125 287.06881) scale(0.08 -0.08)">
       <defs>
        <path id="DejaVuSans-38" d="M 2034 2216 
Q 1584 2216 1326 1975 
Q 1069 1734 1069 1313 
Q 1069 891 1326 650 
Q 1584 409 2034 409 
Q 2484 409 2743 651 
Q 3003 894 3003 1313 
Q 3003 1734 2745 1975 
Q 2488 2216 2034 2216 
z
M 1403 2484 
Q 997 2584 770 2862 
Q 544 3141 544 3541 
Q 544 4100 942 4425 
Q 1341 4750 2034 4750 
Q 2731 4750 3128 4425 
Q 3525 4100 3525 3541 
Q 3525 3141 3298 2862 
Q 3072 2584 2669 2484 
Q 3125 2378 3379 2068 
Q 3634 1759 3634 1313 
Q 3634 634 3220 271 
Q 2806 -91 2034 -91 
Q 1263 -91 848 271 
Q 434 634 434 1313 
Q 434 1759 690 2068 
Q 947 2378 1403 2484 
z
M 1172 3481 
Q 1172 3119 1398 2916 
Q 1625 2713 2034 2713 
Q 2441 2713 2670 2916 
Q 2900 3119 2900 3481 
Q 2900 3844 2670 4047 
Q 2441 4250 2034 4250 
Q 1625 4250 1398 4047 
Q 1172 3844 1172 3481 
z
" transform="scale(0.015625)"/>
       </defs>
       <use xlink:href="#DejaVuSans-38"/>
       <use xlink:href="#DejaVuSans-30" x="63.623047"/>
      </g>
     </g>
    </g>
    <g id="xtick_6">
     <g id="text_6">
      <!-- 100 -->
      <g transform="translate(977.708125 287.06881) scale(0.08 -0.08)">
       <defs>
        <path id="DejaVuSans-31" d="M 794 531 
L 1825 531 
L 1825 4091 
L 703 3866 
L 703 4441 
L 1819 4666 
L 2450 4666 
L 2450 531 
L 3481 531 
L 3481 0 
L 794 0 
L 794 531 
z
" transform="scale(0.015625)"/>
       </defs>
       <use xlink:href="#DejaVuSans-31"/>
       <use xlink:href="#DejaVuSans-30" x="63.623047"/>
       <use xlink:href="#DejaVuSans-30" x="127.246094"/>
      </g>
     </g>
    </g>
    <g id="text_7">
     <!-- % GC -->
     <g transform="translate(503.085156 300.330997) scale(0.1 -0.1)">
      <defs>
       <path id="DejaVuSans-25" d="M 4653 2053 
Q 4381 2053 4226 1822 
Q 4072 1591 4072 1178 
Q 4072 772 4226 539 
Q 4381 306 4653 306 
Q 4919 306 5073 539 
Q 5228 772 5228 1178 
Q 5228 1588 5073 1820 
Q 4919 2053 4653 2053 
z
M 4653 2450 
Q 5147 2450 5437 2106 
Q 5728 1763 5728 1178 
Q 5728 594 5436 251 
Q 5144 -91 4653 -91 
Q 4153 -91 3862 251 
Q 3572 594 3572 1178 
Q 3572 1766 3864 2108 
Q 4156 2450 4653 2450 
z
M 1428 4353 
Q 1159 4353 1004 4120 
Q 850 3888 850 3481 
Q 850 3069 1003 2837 
Q 1156 2606 1428 2606 
Q 1700 2606 1854 2837 
Q 2009 3069 2009 3481 
Q 2009 3884 1853 4118 
Q 1697 4353 1428 4353 
z
M 4250 4750 
L 4750 4750 
L 1831 -91 
L 1331 -91 
L 4250 4750 
z
M 1428 4750 
Q 1922 4750 2215 4408 
Q 2509 4066 2509 3481 
Q 2509 2891 2217 2550 
Q 1925 2209 1428 2209 
Q 931 2209 642 2551 
Q 353 2894 353 3481 
Q 353 4063 643 4406 
Q 934 4750 1428 4750 
z
" transform="scale(0.015625)"/>
       <path id="DejaVuSans-20" transform="scale(0.015625)"/>
       <path id="DejaVuSans-47" d="M 3809 666 
L 3809 1919 
L 2778 1919 
L 2778 2438 
L 4434 2438 
L 4434 434 
Q 4069 175 3628 42 
Q 3188 -91 2688 -91 
Q 1594 -91 976 548 
Q 359 1188 359 2328 
Q 359 3472 976 4111 
Q 1594 4750 2688 4750 
Q 3144 4750 3555 4637 
Q 3966 4525 4313 4306 
L 4313 3634 
Q 3963 3931 3569 4081 
Q 3175 4231 2741 4231 
Q 1884 4231 1454 3753 
Q 1025 3275 1025 2328 
Q 1025 1384 1454 906 
Q 1884 428 2741 428 
Q 3075 428 3337 486 
Q 3600 544 3809 666 
z
" transform="scale(0.015625)"/>
       <path id="DejaVuSans-43" d="M 4122 4306 
L 4122 3641 
Q 3803 3938 3442 4084 
Q 3081 4231 2675 4231 
Q 1875 4231 1450 3742 
Q 1025 3253 1025 2328 
Q 1025 1406 1450 917 
Q 1875 428 2675 428 
Q 3081 428 3442 575 
Q 3803 722 4122 1019 
L 4122 359 
Q 3791 134 3420 21 
Q 3050 -91 2638 -91 
Q 1578 -91 968 557 
Q 359 1206 359 2328 
Q 359 3453 968 4101 
Q 1578 4750 2638 4750 
Q 3056 4750 3426 4639 
Q 3797 4528 4122 4306 
z
" transform="scale(0.015625)"/>
      </defs>
      <use xlink:href="#DejaVuSans-25"/>
      <use xlink:href="#DejaVuSans-20" x="95.019531"/>
      <use xlink:href="#DejaVuSans-47" x="126.806641"/>
      <use xlink:href="#DejaVuSans-43" x="204.296875"/>
     </g>
    </g>
   </g>
   <g id="matplotlib.axis_2">
    <g id="ytick_1">
     <g id="line2d_1">
      <path d="M 48.238125 273.99006 
L 985.343125 273.99006 
" clip-path="url(#p08b778ad73)" style="fill: none; stroke: #dedede; stroke-linecap: square"/>
     </g>
     <g id="text_8">
      <!-- 0 -->
      <g transform="translate(36.148125 277.029435) scale(0.08 -0.08)">
       <use xlink:href="#DejaVuSans-30"/>
      </g>
     </g>
    </g>
    <g id="ytick_2">
     <g id="line2d_2">
      <path d="M 48.238125 244.022023 
L 985.343125 244.022023 
" clip-path="url(#p08b778ad73)" style="fill: none; stroke: #dedede; stroke-linecap: square"/>
     </g>
     <g id="text_9">
      <!-- 500 -->
      <g transform="translate(25.968125 247.061398) scale(0.08 -0.08)">
       <defs>
        <path id="DejaVuSans-35" d="M 691 4666 
L 3169 4666 
L 3169 4134 
L 1269 4134 
L 1269 2991 
Q 1406 3038 1543 3061 
Q 1681 3084 1819 3084 
Q 2600 3084 3056 2656 
Q 3513 2228 3513 1497 
Q 3513 744 3044 326 
Q 2575 -91 1722 -91 
Q 1428 -91 1123 -41 
Q 819 9 494 109 
L 494 744 
Q 775 591 1075 516 
Q 1375 441 1709 441 
Q 2250 441 2565 725 
Q 2881 1009 2881 1497 
Q 2881 1984 2565 2268 
Q 2250 2553 1709 2553 
Q 1456 2553 1204 2497 
Q 953 2441 691 2322 
L 691 4666 
z
" transform="scale(0.015625)"/>
       </defs>
       <use xlink:href="#DejaVuSans-35"/>
       <use xlink:href="#DejaVuSans-30" x="63.623047"/>
       <use xlink:href="#DejaVuSans-30" x="127.246094"/>
      </g>
     </g>
    </g>
    <g id="ytick_3">
     <g id="line2d_3">
      <path d="M 48.238125 214.053987 
L 985.343125 214.053987 
" clip-path="url(#p08b778ad73)" style="fill: none; stroke: #dedede; stroke-linecap: square"/>
     </g>
     <g id="text_10">
      <!-- 1000 -->
      <g transform="translate(20.878125 217.093362) scale(0.08 -0.08)">
       <use xlink:href="#DejaVuSans-31"/>
       <use xlink:href="#DejaVuSans-30" x="63.623047"/>
       <use xlink:href="#DejaVuSans-30" x="127.246094"/>
       <use xlink:href="#DejaVuSans-30" x="190.869141"/>
      </g>
     </g>
    </g>
    <g id="ytick_4">
     <g id="line2d_4">
      <path d="M 48.238125 184.08595 
L 985.343125 184.08595 
" clip-path="url(#p08b778ad73)" style="fill: none; stroke: #dedede; stroke-linecap: square"/>
     </g>
     <g id="text_11">
      <!-- 1500 -->
      <g transform="translate(20.878125 187.125325) scale(0.08 -0.08)">
       <use xlink:href="#DejaVuSans-31"/>
       <use xlink:href="#DejaVuSans-35" x="63.623047"/>
       <use xlink:href="#DejaVuSans-30" x="127.246094"/>
       <use xlink:href="#DejaVuSans-30" x="190.869141"/>
      </g>
     </g>
    </g>
    <g id="ytick_5">
     <g id="line2d_5">
      <path d="M 48.238125 154.117914 
L 985.343125 154.117914 
" clip-path="url(#p08b778ad73)" style="fill: none; stroke: #dedede; stroke-linecap: square"/>
     </g>
     <g id="text_12">
      <!-- 2000 -->
      <g transform="translate(20.878125 157.157289) scale(0.08 -0.08)">
       <use xlink:href="#DejaVuSans-32"/>
       <use xlink:href="#DejaVuSans-30" x="63.623047"/>
       <use xlink:href="#DejaVuSans-30" x="127.246094"/>
       <use xlink:href="#DejaVuSans-30" x="190.869141"/>
      </g>
     </g>
    </g>
    <g id="ytick_6">
     <g id="line2d_6">
      <path d="M 48.238125 124.149877 
L 985.343125 124.149877 
" clip-path="url(#p08b778ad73)" style="fill: none; stroke: #dedede; stroke-linecap: square"/>
     </g>
     <g id="text_13">
      <!-- 2500 -->
      <g transform="translate(20.878125 127.189252) scale(0.08 -0.08)">
       <use xlink:href="#DejaVuSans-32"/>
       <use xlink:href="#DejaVuSans-35" x="63.623047"/>
       <use xlink:href="#DejaVuSans-30" x="127.246094"/>
       <use xlink:href="#DejaVuSans-30" x="190.869141"/>
      </g>
     </g>
    </g>
    <g id="ytick_7">
     <g id="line2d_7">
      <path d="M 48.238125 94.181841 
L 985.343125 94.181841 
" clip-path="url(#p08b778ad73)" style="fill: none; stroke: #dedede; stroke-linecap: square"/>
     </g>
     <g id="text_14">
      <!-- 3000 -->
      <g transform="translate(20.878125 97.221216) scale(0.08 -0.08)">
       <defs>
        <path id="DejaVuSans-33" d="M 2597 2516 
Q 3050 2419 3304 2112 
Q 3559 1806 3559 1356 
Q 3559 666 3084 287 
Q 2609 -91 1734 -91 
Q 1441 -91 1130 -33 
Q 819 25 488 141 
L 488 750 
Q 750 597 1062 519 
Q 1375 441 1716 441 
Q 2309 441 2620 675 
Q 2931 909 2931 1356 
Q 2931 1769 2642 2001 
Q 2353 2234 1838 2234 
L 1294 2234 
L 1294 2753 
L 1863 2753 
Q 2328 2753 2575 2939 
Q 2822 3125 2822 3475 
Q 2822 3834 2567 4026 
Q 2313 4219 1838 4219 
Q 1578 4219 1281 4162 
Q 984 4106 628 3988 
L 628 4550 
Q 988 4650 1302 4700 
Q 1616 4750 1894 4750 
Q 2613 4750 3031 4423 
Q 3450 4097 3450 3541 
Q 3450 3153 3228 2886 
Q 3006 2619 2597 2516 
z
" transform="scale(0.015625)"/>
       </defs>
       <use xlink:href="#DejaVuSans-33"/>
       <use xlink:href="#DejaVuSans-30" x="63.623047"/>
       <use xlink:href="#DejaVuSans-30" x="127.246094"/>
       <use xlink:href="#DejaVuSans-30" x="190.869141"/>
      </g>
     </g>
    </g>
    <g id="ytick_8">
     <g id="line2d_8">
      <path d="M 48.238125 64.213804 
L 985.343125 64.213804 
" clip-path="url(#p08b778ad73)" style="fill: none; stroke: #dedede; stroke-linecap: square"/>
     </g>
     <g id="text_15">
      <!-- 3500 -->
      <g transform="translate(20.878125 67.253179) scale(0.08 -0.08)">
       <use xlink:href="#DejaVuSans-33"/>
       <use xlink:href="#DejaVuSans-35" x="63.623047"/>
       <use xlink:href="#DejaVuSans-30" x="127.246094"/>
       <use xlink:href="#DejaVuSans-30" x="190.869141"/>
      </g>
     </g>
    </g>
    <g id="ytick_9">
     <g id="line2d_9">
      <path d="M 48.238125 34.245768 
L 985.343125 34.245768 
" clip-path="url(#p08b778ad73)" style="fill: none; stroke: #dedede; stroke-linecap: square"/>
     </g>
     <g id="text_16">
      <!-- 4000 -->
      <g transform="translate(20.878125 37.285143) scale(0.08 -0.08)">
       <use xlink:href="#DejaVuSans-34"/>
       <use xlink:href="#DejaVuSans-30" x="63.623047"/>
       <use xlink:href="#DejaVuSans-30" x="127.246094"/>
       <use xlink:href="#DejaVuSans-30" x="190.869141"/>
      </g>
     </g>
    </g>
    <g id="text_17">
     <!-- Count -->
     <g transform="translate(14.798438 167.584897) rotate(-90) scale(0.1 -0.1)">
      <defs>
       <path id="DejaVuSans-6f" d="M 1959 3097 
Q 1497 3097 1228 2736 
Q 959 2375 959 1747 
Q 959 1119 1226 758 
Q 1494 397 1959 397 
Q 2419 397 2687 759 
Q 2956 1122 2956 1747 
Q 2956 2369 2687 2733 
Q 2419 3097 1959 3097 
z
M 1959 3584 
Q 2709 3584 3137 3096 
Q 3566 2609 3566 1747 
Q 3566 888 3137 398 
Q 2709 -91 1959 -91 
Q 1206 -91 779 398 
Q 353 888 353 1747 
Q 353 2609 779 3096 
Q 1206 3584 1959 3584 
z
" transform="scale(0.015625)"/>
       <path id="DejaVuSans-75" d="M 544 1381 
L 544 3500 
L 1119 3500 
L 1119 1403 
Q 1119 906 1312 657 
Q 1506 409 1894 409 
Q 2359 409 2629 706 
Q 2900 1003 2900 1516 
L 2900 3500 
L 3475 3500 
L 3475 0 
L 2900 0 
L 2900 538 
Q 2691 219 2414 64 
Q 2138 -91 1772 -91 
Q 1169 -91 856 284 
Q 544 659 544 1381 
z
M 1991 3584 
L 1991 3584 
z
" transform="scale(0.015625)"/>
       <path id="DejaVuSans-6e" d="M 3513 2113 
L 3513 0 
L 2938 0 
L 2938 2094 
Q 2938 2591 2744 2837 
Q 2550 3084 2163 3084 
Q 1697 3084 1428 2787 
Q 1159 2491 1159 1978 
L 1159 0 
L 581 0 
L 581 3500 
L 1159 3500 
L 1159 2956 
Q 1366 3272 1645 3428 
Q 1925 3584 2291 3584 
Q 2894 3584 3203 3211 
Q 3513 2838 3513 2113 
z
" transform="scale(0.015625)"/>
       <path id="DejaVuSans-74" d="M 1172 4494 
L 1172 3500 
L 2356 3500 
L 2356 3053 
L 1172 3053 
L 1172 1153 
Q 1172 725 1289 603 
Q 1406 481 1766 481 
L 2356 481 
L 2356 0 
L 1766 0 
Q 1100 0 847 248 
Q 594 497 594 1153 
L 594 3053 
L 172 3053 
L 172 3500 
L 594 3500 
L 594 4494 
L 1172 4494 
z
" transform="scale(0.015625)"/>
      </defs>
      <use xlink:href="#DejaVuSans-43"/>
      <use xlink:href="#DejaVuSans-6f" x="69.824219"/>
      <use xlink:href="#DejaVuSans-75" x="131.005859"/>
      <use xlink:href="#DejaVuSans-6e" x="194.384766"/>
      <use xlink:href="#DejaVuSans-74" x="257.763672"/>
     </g>
    </g>
   </g>
   <g id="line2d_10">
    <path d="M 48.238125 273.99006 
L 57.609175 273.99006 
L 66.980225 273.99006 
L 76.351275 273.99006 
L 85.722325 273.99006 
L 95.093375 273.99006 
L 104.464425 273.99006 
L 113.835475 273.99006 
L 123.206525 273.99006 
L 132.577575 273.99006 
L 141.948625 273.99006 
L 151.319675 273.99006 
L 160.690725 273.99006 
L 170.061775 273.99006 
L 179.432825 273.99006 
L 188.803875 273.99006 
L 198.174925 273.99006 
L 207.545975 273.99006 
L 216.917025 273.970081 
L 226.288075 273.960092 
L 235.659125 273.960092 
L 245.030175 273.99006 
L 254.401225 273.960092 
L 263.772275 273.960092 
L 273.143325 273.99006 
L 282.514375 273.99006 
L 291.885425 273.99006 
L 301.256475 273.905151 
L 310.627525 273.75531 
L 319.998575 273.706363 
L 329.369625 273.618002 
L 338.740675 273.699915 
L 348.111725 273.417002 
L 357.482775 273.01702 
L 366.853825 272.574511 
L 376.224875 272.420548 
L 385.595925 272.463653 
L 394.966975 271.58258 
L 404.338025 271.117081 
L 413.709075 270.727449 
L 423.080125 269.958829 
L 432.451175 269.069282 
L 441.822225 267.033846 
L 451.193275 262.507422 
L 460.564325 256.948379 
L 469.935375 257.084487 
L 479.306425 258.399924 
L 488.677475 258.884751 
L 498.048525 258.734097 
L 507.419575 259.102528 
L 516.790625 261.302013 
L 526.161675 261.928243 
L 535.532725 263.085323 
L 544.903775 257.53644 
L 554.274825 251.796704 
L 563.645875 253.953459 
L 573.016925 256.340329 
L 582.387975 256.6946 
L 591.759025 257.039659 
L 601.130075 263.424232 
L 610.501125 269.744508 
L 619.872175 270.112302 
L 629.243225 270.084743 
L 638.614275 270.808697 
L 647.985325 271.053739 
L 657.356375 270.901687 
L 666.727425 272.322721 
L 676.098475 273.2767 
L 685.469525 273.274989 
L 694.840575 273.285811 
L 704.211625 273.470614 
L 713.582675 273.660412 
L 722.953725 273.70491 
L 732.324775 273.780284 
L 741.695825 273.84022 
L 751.066875 273.960092 
L 760.437925 273.960092 
L 769.808975 273.930124 
L 779.180025 273.930124 
L 788.551075 273.930124 
L 797.922125 273.930124 
L 807.293175 273.930124 
L 816.664225 273.960092 
L 826.035275 273.99006 
L 835.406325 273.99006 
L 844.777375 273.99006 
L 854.148425 273.99006 
L 863.519475 273.99006 
L 872.890525 273.99006 
L 882.261575 273.99006 
L 891.632625 273.99006 
L 901.003675 273.99006 
L 910.374725 273.99006 
L 919.745775 273.99006 
L 929.116825 273.99006 
L 938.487875 273.99006 
L 947.858925 273.99006 
L 957.229975 273.99006 
L 966.601025 273.99006 
L 975.972075 273.99006 
L 985.343125 273.99006 
" clip-path="url(#p08b778ad73)" style="fill: none; stroke: #d9534f; stroke-linecap: square"/>
   </g>
   <g id="line2d_11">
    <path d="M 48.238125 273.99006 
L 57.609175 273.99006 
L 66.980225 273.99006 
L 76.351275 273.99006 
L 85.722325 273.99006 
L 95.093375 273.99006 
L 104.464425 273.99006 
L 113.835475 273.99006 
L 123.206525 273.99006 
L 132.577575 273.99006 
L 141.948625 273.99006 
L 151.319675 273.99006 
L 160.690725 273.99006 
L 170.061775 273.99006 
L 179.432825 273.99006 
L 188.803875 273.99006 
L 198.174925 273.99006 
L 207.545975 273.99006 
L 216.917025 273.99006 
L 226.288075 273.99006 
L 235.659125 273.99006 
L 245.030175 273.99006 
L 254.401225 273.99006 
L 263.772275 273.99006 
L 273.143325 273.99006 
L 282.514375 273.984611 
L 291.885425 273.99006 
L 301.256475 273.99006 
L 310.627525 273.960092 
L 319.998575 273.960092 
L 329.369625 273.99006 
L 338.740675 273.969082 
L 348.111725 273.984066 
L 357.482775 273.982568 
L 366.853825 273.969627 
L 376.224875 273.936805 
L 385.595925 273.903788 
L 394.966975 273.852025 
L 404.338025 273.827506 
L 413.709075 273.751334 
L 423.080125 273.843307 
L 432.451175 273.923464 
L 441.822225 273.8724 
L 451.193275 273.873634 
L 460.564325 273.901388 
L 469.935375 273.870897 
L 479.306425 273.857928 
L 488.677475 273.825115 
L 498.048525 273.773624 
L 507.419575 273.573396 
L 516.790625 273.582828 
L 526.161675 273.75707 
L 535.532725 273.765728 
L 544.903775 273.789819 
L 554.274825 273.880177 
L 563.645875 273.900156 
L 573.016925 273.92727 
L 582.387975 273.940113 
L 591.759025 273.790273 
L 601.130075 273.745321 
L 610.501125 273.775289 
L 619.872175 273.795696 
L 629.243225 273.897659 
L 638.614275 273.960092 
L 647.985325 273.950103 
L 657.356375 273.930124 
L 666.727425 273.934665 
L 676.098475 273.954643 
L 685.469525 273.960092 
L 694.840575 273.99006 
L 704.211625 273.99006 
L 713.582675 273.99006 
L 722.953725 273.99006 
L 732.324775 273.99006 
L 741.695825 273.99006 
L 751.066875 273.99006 
L 760.437925 273.99006 
L 769.808975 273.99006 
L 779.180025 273.99006 
L 788.551075 273.99006 
L 797.922125 273.99006 
L 807.293175 273.99006 
L 816.664225 273.99006 
L 826.035275 273.99006 
L 835.406325 273.99006 
L 844.777375 273.99006 
L 854.148425 273.99006 
L 863.519475 273.99006 
L 872.890525 273.99006 
L 882.261575 273.99006 
L 891.632625 273.99006 
L 901.003675 273.99006 
L 910.374725 273.99006 
L 919.745775 273.99006 
L 929.116825 273.99006 
L 938.487875 273.99006 
L 947.858925 273.99006 
L 957.229975 273.99006 
L 966.601025 273.99006 
L 975.972075 273.99006 
L 985.343125 273.99006 
" clip-path="url(#p08b778ad73)" style="fill: none; stroke: #d9534f; stroke-linecap: square"/>
   </g>
   <g id="line2d_12">
    <path d="M 48.238125 273.99006 
L 57.609175 273.99006 
L 66.980225 273.99006 
L 76.351275 273.99006 
L 85.722325 273.99006 
L 95.093375 273.99006 
L 104.464425 273.99006 
L 113.835475 273.99006 
L 123.206525 273.99006 
L 132.577575 273.99006 
L 141.948625 273.99006 
L 151.319675 273.99006 
L 160.690725 273.99006 
L 170.061775 273.99006 
L 179.432825 273.99006 
L 188.803875 273.99006 
L 198.174925 273.99006 
L 207.545975 273.960092 
L 216.917025 273.960092 
L 226.288075 273.99006 
L 235.659125 273.99006 
L 245.030175 273.99006 
L 254.401225 273.99006 
L 263.772275 273.99006 
L 273.143325 273.99006 
L 282.514375 273.99006 
L 291.885425 273.99006 
L 301.256475 273.99006 
L 310.627525 273.99006 
L 319.998575 273.980071 
L 329.369625 273.970081 
L 338.740675 273.904009 
L 348.111725 273.87661 
L 357.482775 273.779023 
L 366.853825 273.631442 
L 376.224875 273.664705 
L 385.595925 273.70382 
L 394.966975 273.641894 
L 404.338025 273.594538 
L 413.709075 273.614761 
L 423.080125 273.706862 
L 432.451175 273.529125 
L 441.822225 273.429547 
L 451.193275 273.172347 
L 460.564325 273.050413 
L 469.935375 273.032743 
L 479.306425 272.931073 
L 488.677475 272.538971 
L 498.048525 272.081723 
L 507.419575 272.467087 
L 516.790625 272.861407 
L 526.161675 273.073103 
L 535.532725 273.063775 
L 544.903775 273.15259 
L 554.274825 273.270918 
L 563.645875 273.483146 
L 573.016925 273.467111 
L 582.387975 273.324316 
L 591.759025 273.353739 
L 601.130075 273.462123 
L 610.501125 273.641765 
L 619.872175 273.571935 
L 629.243225 273.535331 
L 638.614275 273.647354 
L 647.985325 273.670401 
L 657.356375 273.502269 
L 666.727425 273.511998 
L 676.098475 273.763159 
L 685.469525 273.860199 
L 694.840575 273.890167 
L 704.211625 273.84022 
L 713.582675 273.910145 
L 722.953725 273.960092 
L 732.324775 273.960092 
L 741.695825 273.99006 
L 751.066875 273.99006 
L 760.437925 273.99006 
L 769.808975 273.99006 
L 779.180025 273.99006 
L 788.551075 273.99006 
L 797.922125 273.99006 
L 807.293175 273.99006 
L 816.664225 273.99006 
L 826.035275 273.99006 
L 835.406325 273.99006 
L 844.777375 273.99006 
L 854.148425 273.99006 
L 863.519475 273.99006 
L 872.890525 273.99006 
L 882.261575 273.99006 
L 891.632625 273.99006 
L 901.003675 273.99006 
L 910.374725 273.99006 
L 919.745775 273.99006 
L 929.116825 273.99006 
L 938.487875 273.99006 
L 947.858925 273.99006 
L 957.229975 273.99006 
L 966.601025 273.99006 
L 975.972075 273.99006 
L 985.343125 273.99006 
" clip-path="url(#p08b778ad73)" style="fill: none; stroke: #f0ad4e; stroke-linecap: square"/>
   </g>
   <g id="line2d_13">
    <path d="M 48.238125 273.99006 
L 57.609175 273.99006 
L 66.980225 273.99006 
L 76.351275 273.99006 
L 85.722325 273.99006 
L 95.093375 273.99006 
L 104.464425 273.99006 
L 113.835475 273.99006 
L 123.206525 273.99006 
L 132.577575 273.99006 
L 141.948625 273.99006 
L 151.319675 273.99006 
L 160.690725 273.99006 
L 170.061775 273.960092 
L 179.432825 273.930124 
L 188.803875 273.930124 
L 198.174925 273.930124 
L 207.545975 273.930124 
L 216.917025 273.930124 
L 226.288075 273.930124 
L 235.659125 273.930124 
L 245.030175 273.900156 
L 254.401225 273.900156 
L 263.772275 273.930124 
L 273.143325 273.930124 
L 282.514375 273.930124 
L 291.885425 273.84022 
L 301.256475 273.783614 
L 310.627525 273.753494 
L 319.998575 273.443734 
L 329.369625 273.395705 
L 338.740675 273.260477 
L 348.111725 272.897174 
L 357.482775 272.265194 
L 366.853825 272.199887 
L 376.224875 272.219449 
L 385.595925 272.197059 
L 394.966975 271.788529 
L 404.338025 271.803592 
L 413.709075 271.625563 
L 423.080125 271.633287 
L 432.451175 271.232744 
L 441.822225 271.14887 
L 451.193275 270.764984 
L 460.564325 270.628902 
L 469.935375 271.254001 
L 479.306425 271.198995 
L 488.677475 271.372496 
L 498.048525 271.020928 
L 507.419575 270.948591 
L 516.790625 271.06036 
L 526.161675 269.752318 
L 535.532725 270.598857 
L 544.903775 270.1491 
L 554.274825 266.929585 
L 563.645875 270.487065 
L 573.016925 270.446304 
L 582.387975 271.701078 
L 591.759025 272.342627 
L 601.130075 270.408622 
L 610.501125 267.841428 
L 619.872175 250.54613 
L 629.243225 122.289876 
L 638.614275 43.030822 
L 647.985325 189.50772 
L 657.356375 266.736801 
L 666.727425 271.472129 
L 676.098475 270.349235 
L 685.469525 271.027765 
L 694.840575 272.825847 
L 704.211625 273.585037 
L 713.582675 273.882599 
L 722.953725 273.954643 
L 732.324775 273.99006 
L 741.695825 273.99006 
L 751.066875 273.99006 
L 760.437925 273.99006 
L 769.808975 273.99006 
L 779.180025 273.99006 
L 788.551075 273.99006 
L 797.922125 273.99006 
L 807.293175 273.99006 
L 816.664225 273.99006 
L 826.035275 273.99006 
L 835.406325 273.99006 
L 844.777375 273.99006 
L 854.148425 273.99006 
L 863.519475 273.99006 
L 872.890525 273.99006 
L 882.261575 273.99006 
L 891.632625 273.99006 
L 901.003675 273.99006 
L 910.374725 273.99006 
L 919.745775 273.99006 
L 929.116825 273.99006 
L 938.487875 273.99006 
L 947.858925 273.99006 
L 957.229975 273.99006 
L 966.601025 273.99006 
L 975.972075 273.99006 
L 985.343125 273.99006 
" clip-path="url(#p08b778ad73)" style="fill: none; stroke: #d9534f; stroke-linecap: square"/>
   </g>
   <g id="line2d_14">
    <path d="M 48.238125 273.99006 
L 57.609175 273.99006 
L 66.980225 273.99006 
L 76.351275 273.99006 
L 85.722325 273.99006 
L 95.093375 273.99006 
L 104.464425 273.99006 
L 113.835475 273.99006 
L 123.206525 273.99006 
L 132.577575 273.99006 
L 141.948625 273.99006 
L 151.319675 273.99006 
L 160.690725 273.99006 
L 170.061775 273.99006 
L 179.432825 273.99006 
L 188.803875 273.99006 
L 198.174925 273.99006 
L 207.545975 273.99006 
L 216.917025 273.99006 
L 226.288075 273.99006 
L 235.659125 273.99006 
L 245.030175 273.99006 
L 254.401225 273.99006 
L 263.772275 273.99006 
L 273.143325 273.99006 
L 282.514375 273.99006 
L 291.885425 273.99006 
L 301.256475 273.99006 
L 310.627525 273.99006 
L 319.998575 273.99006 
L 329.369625 273.99006 
L 338.740675 273.960092 
L 348.111725 273.960092 
L 357.482775 273.99006 
L 366.853825 273.99006 
L 376.224875 273.950103 
L 385.595925 273.955097 
L 394.966975 273.906578 
L 404.338025 273.926128 
L 413.709075 273.889674 
L 423.080125 273.63034 
L 432.451175 272.859385 
L 441.822225 272.584744 
L 451.193275 270.07802 
L 460.564325 267.537659 
L 469.935375 268.947409 
L 479.306425 269.220181 
L 488.677475 263.148577 
L 498.048525 265.134258 
L 507.419575 270.054809 
L 516.790625 273.432914 
L 526.161675 273.783043 
L 535.532725 273.970081 
L 544.903775 273.984611 
L 554.274825 273.940113 
L 563.645875 273.900156 
L 573.016925 273.970081 
L 582.387975 273.99006 
L 591.759025 273.99006 
L 601.130075 273.99006 
L 610.501125 273.99006 
L 619.872175 273.99006 
L 629.243225 273.984611 
L 638.614275 273.99006 
L 647.985325 273.99006 
L 657.356375 273.99006 
L 666.727425 273.99006 
L 676.098475 273.99006 
L 685.469525 273.99006 
L 694.840575 273.99006 
L 704.211625 273.99006 
L 713.582675 273.99006 
L 722.953725 273.99006 
L 732.324775 273.99006 
L 741.695825 273.99006 
L 751.066875 273.99006 
L 760.437925 273.99006 
L 769.808975 273.99006 
L 779.180025 273.99006 
L 788.551075 273.99006 
L 797.922125 273.99006 
L 807.293175 273.99006 
L 816.664225 273.99006 
L 826.035275 273.99006 
L 835.406325 273.99006 
L 844.777375 273.99006 
L 854.148425 273.99006 
L 863.519475 273.99006 
L 872.890525 273.99006 
L 882.261575 273.99006 
L 891.632625 273.99006 
L 901.003675 273.99006 
L 910.374725 273.99006 
L 919.745775 273.99006 
L 929.116825 273.99006 
L 938.487875 273.99006 
L 947.858925 273.99006 
L 957.229975 273.99006 
L 966.601025 273.99006 
L 975.972075 273.99006 
L 985.343125 273.99006 
" clip-path="url(#p08b778ad73)" style="fill: none; stroke: #d9534f; stroke-linecap: square"/>
   </g>
   <g id="line2d_15">
    <path d="M 48.238125 273.99006 
L 57.609175 273.99006 
L 66.980225 273.99006 
L 76.351275 273.99006 
L 85.722325 273.99006 
L 95.093375 273.99006 
L 104.464425 273.99006 
L 113.835475 273.99006 
L 123.206525 273.99006 
L 132.577575 273.99006 
L 141.948625 273.99006 
L 151.319675 273.99006 
L 160.690725 273.99006 
L 170.061775 273.960092 
L 179.432825 273.930124 
L 188.803875 273.930124 
L 198.174925 273.930124 
L 207.545975 273.930124 
L 216.917025 273.930124 
L 226.288075 273.930124 
L 235.659125 273.930124 
L 245.030175 273.930124 
L 254.401225 273.930124 
L 263.772275 273.930124 
L 273.143325 273.930124 
L 282.514375 273.780284 
L 291.885425 273.630444 
L 301.256475 273.624995 
L 310.627525 273.630444 
L 319.998575 273.630444 
L 329.369625 273.600476 
L 338.740675 273.480603 
L 348.111725 273.460625 
L 357.482775 273.419759 
L 366.853825 272.974877 
L 376.224875 272.351353 
L 385.595925 272.085922 
L 394.966975 272.462157 
L 404.338025 272.294115 
L 413.709075 271.145293 
L 423.080125 267.674242 
L 432.451175 238.587132 
L 441.822225 179.313295 
L 451.193275 223.575243 
L 460.564325 212.419086 
L 469.935375 223.197519 
L 479.306425 259.811465 
L 488.677475 192.034507 
L 498.048525 217.884219 
L 507.419575 268.116679 
L 516.790625 272.453608 
L 526.161675 273.282946 
L 535.532725 273.860804 
L 544.903775 273.916848 
L 554.274825 273.959184 
L 563.645875 273.954643 
L 573.016925 273.925151 
L 582.387975 273.964633 
L 591.759025 273.984611 
L 601.130075 273.99006 
L 610.501125 273.984611 
L 619.872175 273.984611 
L 629.243225 273.99006 
L 638.614275 273.99006 
L 647.985325 273.99006 
L 657.356375 273.99006 
L 666.727425 273.99006 
L 676.098475 273.99006 
L 685.469525 273.99006 
L 694.840575 273.99006 
L 704.211625 273.99006 
L 713.582675 273.99006 
L 722.953725 273.99006 
L 732.324775 273.99006 
L 741.695825 273.99006 
L 751.066875 273.99006 
L 760.437925 273.99006 
L 769.808975 273.99006 
L 779.180025 273.99006 
L 788.551075 273.99006 
L 797.922125 273.99006 
L 807.293175 273.99006 
L 816.664225 273.99006 
L 826.035275 273.99006 
L 835.406325 273.99006 
L 844.777375 273.99006 
L 854.148425 273.99006 
L 863.519475 273.99006 
L 872.890525 273.99006 
L 882.261575 273.99006 
L 891.632625 273.99006 
L 901.003675 273.99006 
L 910.374725 273.99006 
L 919.745775 273.99006 
L 929.116825 273.99006 
L 938.487875 273.99006 
L 947.858925 273.99006 
L 957.229975 273.99006 
L 966.601025 273.99006 
L 975.972075 273.99006 
L 985.343125 273.99006 
" clip-path="url(#p08b778ad73)" style="fill: none; stroke: #d9534f; stroke-linecap: square"/>
   </g>
   <g id="line2d_16">
    <path d="M 48.238125 273.99006 
L 57.609175 273.99006 
L 66.980225 273.99006 
L 76.351275 273.99006 
L 85.722325 273.99006 
L 95.093375 273.99006 
L 104.464425 273.99006 
L 113.835475 273.99006 
L 123.206525 273.99006 
L 132.577575 273.99006 
L 141.948625 273.99006 
L 151.319675 273.99006 
L 160.690725 273.99006 
L 170.061775 273.99006 
L 179.432825 273.99006 
L 188.803875 273.99006 
L 198.174925 273.99006 
L 207.545975 273.99006 
L 216.917025 273.99006 
L 226.288075 273.99006 
L 235.659125 273.99006 
L 245.030175 273.99006 
L 254.401225 273.99006 
L 263.772275 273.99006 
L 273.143325 273.99006 
L 282.514375 273.99006 
L 291.885425 273.99006 
L 301.256475 273.99006 
L 310.627525 273.99006 
L 319.998575 273.99006 
L 329.369625 273.99006 
L 338.740675 273.99006 
L 348.111725 273.99006 
L 357.482775 273.930124 
L 366.853825 273.890167 
L 376.224875 273.69038 
L 385.595925 273.797811 
L 394.966975 273.849801 
L 404.338025 273.649136 
L 413.709075 272.110921 
L 423.080125 263.262583 
L 432.451175 250.1782 
L 441.822225 258.898753 
L 451.193275 258.155322 
L 460.564325 268.39698 
L 469.935375 273.631437 
L 479.306425 273.941054 
L 488.677475 273.981757 
L 498.048525 273.978903 
L 507.419575 273.977952 
L 516.790625 273.9834 
L 526.161675 273.980071 
L 535.532725 273.99006 
L 544.903775 273.99006 
L 554.274825 273.950103 
L 563.645875 273.950103 
L 573.016925 273.99006 
L 582.387975 273.99006 
L 591.759025 273.99006 
L 601.130075 273.970081 
L 610.501125 273.99006 
L 619.872175 273.984611 
L 629.243225 273.99006 
L 638.614275 273.99006 
L 647.985325 273.99006 
L 657.356375 273.99006 
L 666.727425 273.99006 
L 676.098475 273.99006 
L 685.469525 273.99006 
L 694.840575 273.99006 
L 704.211625 273.99006 
L 713.582675 273.99006 
L 722.953725 273.99006 
L 732.324775 273.99006 
L 741.695825 273.99006 
L 751.066875 273.99006 
L 760.437925 273.99006 
L 769.808975 273.99006 
L 779.180025 273.99006 
L 788.551075 273.99006 
L 797.922125 273.99006 
L 807.293175 273.99006 
L 816.664225 273.99006 
L 826.035275 273.99006 
L 835.406325 273.99006 
L 844.777375 273.99006 
L 854.148425 273.99006 
L 863.519475 273.99006 
L 872.890525 273.99006 
L 882.261575 273.99006 
L 891.632625 273.99006 
L 901.003675 273.99006 
L 910.374725 273.99006 
L 919.745775 273.99006 
L 929.116825 273.99006 
L 938.487875 273.99006 
L 947.858925 273.99006 
L 957.229975 273.99006 
L 966.601025 273.99006 
L 975.972075 273.99006 
L 985.343125 273.99006 
" clip-path="url(#p08b778ad73)" style="fill: none; stroke: #d9534f; stroke-linecap: square"/>
   </g>
   <g id="line2d_17">
    <path d="M 48.238125 273.99006 
L 57.609175 273.99006 
L 66.980225 273.99006 
L 76.351275 273.99006 
L 85.722325 273.99006 
L 95.093375 273.99006 
L 104.464425 273.99006 
L 113.835475 273.99006 
L 123.206525 273.99006 
L 132.577575 273.99006 
L 141.948625 273.99006 
L 151.319675 273.99006 
L 160.690725 273.99006 
L 170.061775 273.99006 
L 179.432825 273.99006 
L 188.803875 273.99006 
L 198.174925 273.99006 
L 207.545975 273.99006 
L 216.917025 273.930124 
L 226.288075 273.930124 
L 235.659125 273.99006 
L 245.030175 273.99006 
L 254.401225 273.99006 
L 263.772275 273.960092 
L 273.143325 273.960092 
L 282.514375 273.99006 
L 291.885425 273.99006 
L 301.256475 273.99006 
L 310.627525 273.955097 
L 319.998575 273.902653 
L 329.369625 273.84022 
L 338.740675 273.870188 
L 348.111725 273.84476 
L 357.482775 273.581638 
L 366.853825 272.516177 
L 376.224875 271.996252 
L 385.595925 273.155344 
L 394.966975 273.208841 
L 404.338025 272.196812 
L 413.709075 269.963337 
L 423.080125 255.006484 
L 432.451175 172.577656 
L 441.822225 222.993252 
L 451.193275 239.635273 
L 460.564325 237.020657 
L 469.935375 271.428082 
L 479.306425 273.621007 
L 488.677475 273.61056 
L 498.048525 273.419707 
L 507.419575 273.229339 
L 516.790625 273.263588 
L 526.161675 273.542202 
L 535.532725 273.503786 
L 544.903775 273.45227 
L 554.274825 273.59707 
L 563.645875 273.700131 
L 573.016925 273.70491 
L 582.387975 273.70705 
L 591.759025 273.414008 
L 601.130075 273.320437 
L 610.501125 273.676369 
L 619.872175 273.760305 
L 629.243225 273.762446 
L 638.614275 273.807897 
L 647.985325 273.888169 
L 657.356375 273.910145 
L 666.727425 273.846213 
L 676.098475 273.936118 
L 685.469525 273.960092 
L 694.840575 273.960092 
L 704.211625 273.99006 
L 713.582675 273.99006 
L 722.953725 273.99006 
L 732.324775 273.99006 
L 741.695825 273.99006 
L 751.066875 273.99006 
L 760.437925 273.99006 
L 769.808975 273.99006 
L 779.180025 273.99006 
L 788.551075 273.99006 
L 797.922125 273.99006 
L 807.293175 273.99006 
L 816.664225 273.99006 
L 826.035275 273.99006 
L 835.406325 273.99006 
L 844.777375 273.99006 
L 854.148425 273.99006 
L 863.519475 273.99006 
L 872.890525 273.99006 
L 882.261575 273.99006 
L 891.632625 273.99006 
L 901.003675 273.99006 
L 910.374725 273.99006 
L 919.745775 273.99006 
L 929.116825 273.99006 
L 938.487875 273.99006 
L 947.858925 273.99006 
L 957.229975 273.99006 
L 966.601025 273.99006 
L 975.972075 273.99006 
L 985.343125 273.99006 
" clip-path="url(#p08b778ad73)" style="fill: none; stroke: #d9534f; stroke-linecap: square"/>
   </g>
   <g id="line2d_18">
    <path d="M 48.238125 273.99006 
L 57.609175 273.99006 
L 66.980225 273.99006 
L 76.351275 273.99006 
L 85.722325 273.99006 
L 95.093375 273.99006 
L 104.464425 273.99006 
L 113.835475 273.99006 
L 123.206525 273.99006 
L 132.577575 273.99006 
L 141.948625 273.99006 
L 151.319675 273.99006 
L 160.690725 273.99006 
L 170.061775 273.960092 
L 179.432825 273.930124 
L 188.803875 273.930124 
L 198.174925 273.930124 
L 207.545975 273.930124 
L 216.917025 273.930124 
L 226.288075 273.930124 
L 235.659125 273.930124 
L 245.030175 273.930124 
L 254.401225 273.930124 
L 263.772275 273.930124 
L 273.143325 273.930124 
L 282.514375 273.930124 
L 291.885425 273.930124 
L 301.256475 273.930124 
L 310.627525 273.930124 
L 319.998575 273.896221 
L 329.369625 273.863377 
L 338.740675 273.617503 
L 348.111725 273.53668 
L 357.482775 273.690704 
L 366.853825 273.676122 
L 376.224875 273.629535 
L 385.595925 273.624541 
L 394.966975 273.538464 
L 404.338025 273.528604 
L 413.709075 273.668152 
L 423.080125 273.733518 
L 432.451175 273.727662 
L 441.822225 273.604538 
L 451.193275 273.255318 
L 460.564325 273.341764 
L 469.935375 273.425173 
L 479.306425 273.149035 
L 488.677475 273.336925 
L 498.048525 273.255927 
L 507.419575 273.372024 
L 516.790625 273.3597 
L 526.161675 273.448696 
L 535.532725 273.455773 
L 544.903775 273.525555 
L 554.274825 273.370721 
L 563.645875 273.358612 
L 573.016925 273.435197 
L 582.387975 273.54508 
L 591.759025 273.607611 
L 601.130075 273.659503 
L 610.501125 273.606469 
L 619.872175 273.570507 
L 629.243225 273.735332 
L 638.614275 273.891594 
L 647.985325 273.91514 
L 657.356375 273.918137 
L 666.727425 273.960092 
L 676.098475 273.975076 
L 685.469525 273.99006 
L 694.840575 273.99006 
L 704.211625 273.970081 
L 713.582675 273.99006 
L 722.953725 273.99006 
L 732.324775 273.99006 
L 741.695825 273.99006 
L 751.066875 273.99006 
L 760.437925 273.99006 
L 769.808975 273.99006 
L 779.180025 273.99006 
L 788.551075 273.99006 
L 797.922125 273.99006 
L 807.293175 273.99006 
L 816.664225 273.99006 
L 826.035275 273.99006 
L 835.406325 273.99006 
L 844.777375 273.99006 
L 854.148425 273.99006 
L 863.519475 273.99006 
L 872.890525 273.99006 
L 882.261575 273.99006 
L 891.632625 273.99006 
L 901.003675 273.99006 
L 910.374725 273.99006 
L 919.745775 273.99006 
L 929.116825 273.99006 
L 938.487875 273.99006 
L 947.858925 273.99006 
L 957.229975 273.99006 
L 966.601025 273.99006 
L 975.972075 273.99006 
L 985.343125 273.99006 
" clip-path="url(#p08b778ad73)" style="fill: none; stroke: #f0ad4e; stroke-linecap: square"/>
   </g>
   <g id="line2d_19">
    <path d="M 48.238125 273.99006 
L 57.609175 273.99006 
L 66.980225 273.99006 
L 76.351275 273.99006 
L 85.722325 273.99006 
L 95.093375 273.99006 
L 104.464425 273.99006 
L 113.835475 273.99006 
L 123.206525 273.99006 
L 132.577575 273.99006 
L 141.948625 273.99006 
L 151.319675 273.99006 
L 160.690725 273.99006 
L 170.061775 273.99006 
L 179.432825 273.99006 
L 188.803875 273.99006 
L 198.174925 273.99006 
L 207.545975 273.99006 
L 216.917025 273.99006 
L 226.288075 273.99006 
L 235.659125 273.99006 
L 245.030175 273.99006 
L 254.401225 273.99006 
L 263.772275 273.99006 
L 273.143325 273.99006 
L 282.514375 273.99006 
L 291.885425 273.99006 
L 301.256475 273.99006 
L 310.627525 273.99006 
L 319.998575 273.984611 
L 329.369625 273.99006 
L 338.740675 273.99006 
L 348.111725 273.970081 
L 357.482775 273.962589 
L 366.853825 273.960092 
L 376.224875 273.831658 
L 385.595925 273.320774 
L 394.966975 273.159777 
L 404.338025 273.129947 
L 413.709075 272.766228 
L 423.080125 271.107759 
L 432.451175 246.509337 
L 441.822225 212.447616 
L 451.193275 230.306523 
L 460.564325 244.930158 
L 469.935375 249.890156 
L 479.306425 262.521718 
L 488.677475 219.056558 
L 498.048525 264.659056 
L 507.419575 271.722742 
L 516.790625 273.858758 
L 526.161675 273.966214 
L 535.532725 273.99006 
L 544.903775 273.968148 
L 554.274825 273.950103 
L 563.645875 273.987206 
L 573.016925 273.99006 
L 582.387975 273.99006 
L 591.759025 273.99006 
L 601.130075 273.99006 
L 610.501125 273.99006 
L 619.872175 273.99006 
L 629.243225 273.99006 
L 638.614275 273.99006 
L 647.985325 273.99006 
L 657.356375 273.99006 
L 666.727425 273.99006 
L 676.098475 273.99006 
L 685.469525 273.99006 
L 694.840575 273.99006 
L 704.211625 273.99006 
L 713.582675 273.99006 
L 722.953725 273.99006 
L 732.324775 273.99006 
L 741.695825 273.99006 
L 751.066875 273.99006 
L 760.437925 273.99006 
L 769.808975 273.99006 
L 779.180025 273.99006 
L 788.551075 273.99006 
L 797.922125 273.99006 
L 807.293175 273.99006 
L 816.664225 273.99006 
L 826.035275 273.99006 
L 835.406325 273.99006 
L 844.777375 273.99006 
L 854.148425 273.99006 
L 863.519475 273.99006 
L 872.890525 273.99006 
L 882.261575 273.99006 
L 891.632625 273.99006 
L 901.003675 273.99006 
L 910.374725 273.99006 
L 919.745775 273.99006 
L 929.116825 273.99006 
L 938.487875 273.99006 
L 947.858925 273.99006 
L 957.229975 273.99006 
L 966.601025 273.99006 
L 975.972075 273.99006 
L 985.343125 273.99006 
" clip-path="url(#p08b778ad73)" style="fill: none; stroke: #d9534f; stroke-linecap: square"/>
   </g>
   <g id="line2d_20">
    <path d="M 48.238125 273.99006 
L 57.609175 273.99006 
L 66.980225 273.99006 
L 76.351275 273.99006 
L 85.722325 273.99006 
L 95.093375 273.99006 
L 104.464425 273.99006 
L 113.835475 273.99006 
L 123.206525 273.99006 
L 132.577575 273.99006 
L 141.948625 273.99006 
L 151.319675 273.99006 
L 160.690725 273.99006 
L 170.061775 273.99006 
L 179.432825 273.99006 
L 188.803875 273.99006 
L 198.174925 273.99006 
L 207.545975 273.99006 
L 216.917025 273.99006 
L 226.288075 273.99006 
L 235.659125 273.99006 
L 245.030175 273.99006 
L 254.401225 273.99006 
L 263.772275 273.99006 
L 273.143325 273.99006 
L 282.514375 273.99006 
L 291.885425 273.99006 
L 301.256475 273.99006 
L 310.627525 273.979163 
L 319.998575 273.55348 
L 329.369625 273.664317 
L 338.740675 273.747561 
L 348.111725 273.346353 
L 357.482775 273.544367 
L 366.853825 273.600212 
L 376.224875 273.442423 
L 385.595925 273.159292 
L 394.966975 272.282801 
L 404.338025 270.653613 
L 413.709075 267.673738 
L 423.080125 262.030674 
L 432.451175 240.049995 
L 441.822225 255.577225 
L 451.193275 226.991506 
L 460.564325 258.736437 
L 469.935375 262.657003 
L 479.306425 264.400776 
L 488.677475 270.802308 
L 498.048525 272.259906 
L 507.419575 273.073285 
L 516.790625 273.440756 
L 526.161675 273.372855 
L 535.532725 273.497697 
L 544.903775 273.416559 
L 554.274825 273.334441 
L 563.645875 273.616069 
L 573.016925 273.827506 
L 582.387975 273.881604 
L 591.759025 273.867282 
L 601.130075 273.855113 
L 610.501125 273.864037 
L 619.872175 273.950881 
L 629.243225 273.970081 
L 638.614275 273.914686 
L 647.985325 273.91741 
L 657.356375 273.99006 
L 666.727425 273.99006 
L 676.098475 273.99006 
L 685.469525 273.99006 
L 694.840575 273.99006 
L 704.211625 273.99006 
L 713.582675 273.99006 
L 722.953725 273.99006 
L 732.324775 273.99006 
L 741.695825 273.99006 
L 751.066875 273.99006 
L 760.437925 273.99006 
L 769.808975 273.99006 
L 779.180025 273.99006 
L 788.551075 273.99006 
L 797.922125 273.99006 
L 807.293175 273.99006 
L 816.664225 273.99006 
L 826.035275 273.99006 
L 835.406325 273.99006 
L 844.777375 273.99006 
L 854.148425 273.99006 
L 863.519475 273.99006 
L 872.890525 273.99006 
L 882.261575 273.99006 
L 891.632625 273.99006 
L 901.003675 273.99006 
L 910.374725 273.99006 
L 919.745775 273.99006 
L 929.116825 273.99006 
L 938.487875 273.99006 
L 947.858925 273.99006 
L 957.229975 273.99006 
L 966.601025 273.99006 
L 975.972075 273.99006 
L 985.343125 273.99006 
" clip-path="url(#p08b778ad73)" style="fill: none; stroke: #d9534f; stroke-linecap: square"/>
   </g>
   <g id="line2d_21">
    <path d="M 48.238125 273.99006 
L 985.343125 273.99006 
" clip-path="url(#p08b778ad73)" style="fill: none; stroke: #dedede; stroke-width: 2; stroke-linecap: square"/>
   </g>
   <g id="text_18">
    <!-- FastQC: Per Sequence GC Content -->
    <g transform="translate(380.154375 19.3575) scale(0.16 -0.16)">
     <defs>
      <path id="DejaVuSans-46" d="M 628 4666 
L 3309 4666 
L 3309 4134 
L 1259 4134 
L 1259 2759 
L 3109 2759 
L 3109 2228 
L 1259 2228 
L 1259 0 
L 628 0 
L 628 4666 
z
" transform="scale(0.015625)"/>
      <path id="DejaVuSans-61" d="M 2194 1759 
Q 1497 1759 1228 1600 
Q 959 1441 959 1056 
Q 959 750 1161 570 
Q 1363 391 1709 391 
Q 2188 391 2477 730 
Q 2766 1069 2766 1631 
L 2766 1759 
L 2194 1759 
z
M 3341 1997 
L 3341 0 
L 2766 0 
L 2766 531 
Q 2569 213 2275 61 
Q 1981 -91 1556 -91 
Q 1019 -91 701 211 
Q 384 513 384 1019 
Q 384 1609 779 1909 
Q 1175 2209 1959 2209 
L 2766 2209 
L 2766 2266 
Q 2766 2663 2505 2880 
Q 2244 3097 1772 3097 
Q 1472 3097 1187 3025 
Q 903 2953 641 2809 
L 641 3341 
Q 956 3463 1253 3523 
Q 1550 3584 1831 3584 
Q 2591 3584 2966 3190 
Q 3341 2797 3341 1997 
z
" transform="scale(0.015625)"/>
      <path id="DejaVuSans-73" d="M 2834 3397 
L 2834 2853 
Q 2591 2978 2328 3040 
Q 2066 3103 1784 3103 
Q 1356 3103 1142 2972 
Q 928 2841 928 2578 
Q 928 2378 1081 2264 
Q 1234 2150 1697 2047 
L 1894 2003 
Q 2506 1872 2764 1633 
Q 3022 1394 3022 966 
Q 3022 478 2636 193 
Q 2250 -91 1575 -91 
Q 1294 -91 989 -36 
Q 684 19 347 128 
L 347 722 
Q 666 556 975 473 
Q 1284 391 1588 391 
Q 1994 391 2212 530 
Q 2431 669 2431 922 
Q 2431 1156 2273 1281 
Q 2116 1406 1581 1522 
L 1381 1569 
Q 847 1681 609 1914 
Q 372 2147 372 2553 
Q 372 3047 722 3315 
Q 1072 3584 1716 3584 
Q 2034 3584 2315 3537 
Q 2597 3491 2834 3397 
z
" transform="scale(0.015625)"/>
      <path id="DejaVuSans-51" d="M 2522 4238 
Q 1834 4238 1429 3725 
Q 1025 3213 1025 2328 
Q 1025 1447 1429 934 
Q 1834 422 2522 422 
Q 3209 422 3611 934 
Q 4013 1447 4013 2328 
Q 4013 3213 3611 3725 
Q 3209 4238 2522 4238 
z
M 3406 84 
L 4238 -825 
L 3475 -825 
L 2784 -78 
Q 2681 -84 2626 -87 
Q 2572 -91 2522 -91 
Q 1538 -91 948 567 
Q 359 1225 359 2328 
Q 359 3434 948 4092 
Q 1538 4750 2522 4750 
Q 3503 4750 4090 4092 
Q 4678 3434 4678 2328 
Q 4678 1516 4351 937 
Q 4025 359 3406 84 
z
" transform="scale(0.015625)"/>
      <path id="DejaVuSans-3a" d="M 750 794 
L 1409 794 
L 1409 0 
L 750 0 
L 750 794 
z
M 750 3309 
L 1409 3309 
L 1409 2516 
L 750 2516 
L 750 3309 
z
" transform="scale(0.015625)"/>
      <path id="DejaVuSans-50" d="M 1259 4147 
L 1259 2394 
L 2053 2394 
Q 2494 2394 2734 2622 
Q 2975 2850 2975 3272 
Q 2975 3691 2734 3919 
Q 2494 4147 2053 4147 
L 1259 4147 
z
M 628 4666 
L 2053 4666 
Q 2838 4666 3239 4311 
Q 3641 3956 3641 3272 
Q 3641 2581 3239 2228 
Q 2838 1875 2053 1875 
L 1259 1875 
L 1259 0 
L 628 0 
L 628 4666 
z
" transform="scale(0.015625)"/>
      <path id="DejaVuSans-65" d="M 3597 1894 
L 3597 1613 
L 953 1613 
Q 991 1019 1311 708 
Q 1631 397 2203 397 
Q 2534 397 2845 478 
Q 3156 559 3463 722 
L 3463 178 
Q 3153 47 2828 -22 
Q 2503 -91 2169 -91 
Q 1331 -91 842 396 
Q 353 884 353 1716 
Q 353 2575 817 3079 
Q 1281 3584 2069 3584 
Q 2775 3584 3186 3129 
Q 3597 2675 3597 1894 
z
M 3022 2063 
Q 3016 2534 2758 2815 
Q 2500 3097 2075 3097 
Q 1594 3097 1305 2825 
Q 1016 2553 972 2059 
L 3022 2063 
z
" transform="scale(0.015625)"/>
      <path id="DejaVuSans-72" d="M 2631 2963 
Q 2534 3019 2420 3045 
Q 2306 3072 2169 3072 
Q 1681 3072 1420 2755 
Q 1159 2438 1159 1844 
L 1159 0 
L 581 0 
L 581 3500 
L 1159 3500 
L 1159 2956 
Q 1341 3275 1631 3429 
Q 1922 3584 2338 3584 
Q 2397 3584 2469 3576 
Q 2541 3569 2628 3553 
L 2631 2963 
z
" transform="scale(0.015625)"/>
      <path id="DejaVuSans-53" d="M 3425 4513 
L 3425 3897 
Q 3066 4069 2747 4153 
Q 2428 4238 2131 4238 
Q 1616 4238 1336 4038 
Q 1056 3838 1056 3469 
Q 1056 3159 1242 3001 
Q 1428 2844 1947 2747 
L 2328 2669 
Q 3034 2534 3370 2195 
Q 3706 1856 3706 1288 
Q 3706 609 3251 259 
Q 2797 -91 1919 -91 
Q 1588 -91 1214 -16 
Q 841 59 441 206 
L 441 856 
Q 825 641 1194 531 
Q 1563 422 1919 422 
Q 2459 422 2753 634 
Q 3047 847 3047 1241 
Q 3047 1584 2836 1778 
Q 2625 1972 2144 2069 
L 1759 2144 
Q 1053 2284 737 2584 
Q 422 2884 422 3419 
Q 422 4038 858 4394 
Q 1294 4750 2059 4750 
Q 2388 4750 2728 4690 
Q 3069 4631 3425 4513 
z
" transform="scale(0.015625)"/>
      <path id="DejaVuSans-71" d="M 947 1747 
Q 947 1113 1208 752 
Q 1469 391 1925 391 
Q 2381 391 2643 752 
Q 2906 1113 2906 1747 
Q 2906 2381 2643 2742 
Q 2381 3103 1925 3103 
Q 1469 3103 1208 2742 
Q 947 2381 947 1747 
z
M 2906 525 
Q 2725 213 2448 61 
Q 2172 -91 1784 -91 
Q 1150 -91 751 415 
Q 353 922 353 1747 
Q 353 2572 751 3078 
Q 1150 3584 1784 3584 
Q 2172 3584 2448 3432 
Q 2725 3281 2906 2969 
L 2906 3500 
L 3481 3500 
L 3481 -1331 
L 2906 -1331 
L 2906 525 
z
" transform="scale(0.015625)"/>
      <path id="DejaVuSans-63" d="M 3122 3366 
L 3122 2828 
Q 2878 2963 2633 3030 
Q 2388 3097 2138 3097 
Q 1578 3097 1268 2742 
Q 959 2388 959 1747 
Q 959 1106 1268 751 
Q 1578 397 2138 397 
Q 2388 397 2633 464 
Q 2878 531 3122 666 
L 3122 134 
Q 2881 22 2623 -34 
Q 2366 -91 2075 -91 
Q 1284 -91 818 406 
Q 353 903 353 1747 
Q 353 2603 823 3093 
Q 1294 3584 2113 3584 
Q 2378 3584 2631 3529 
Q 2884 3475 3122 3366 
z
" transform="scale(0.015625)"/>
     </defs>
     <use xlink:href="#DejaVuSans-46"/>
     <use xlink:href="#DejaVuSans-61" x="48.394531"/>
     <use xlink:href="#DejaVuSans-73" x="109.673828"/>
     <use xlink:href="#DejaVuSans-74" x="161.773438"/>
     <use xlink:href="#DejaVuSans-51" x="200.982422"/>
     <use xlink:href="#DejaVuSans-43" x="279.693359"/>
     <use xlink:href="#DejaVuSans-3a" x="349.517578"/>
     <use xlink:href="#DejaVuSans-20" x="383.208984"/>
     <use xlink:href="#DejaVuSans-50" x="414.996094"/>
     <use xlink:href="#DejaVuSans-65" x="471.673828"/>
     <use xlink:href="#DejaVuSans-72" x="533.197266"/>
     <use xlink:href="#DejaVuSans-20" x="574.310547"/>
     <use xlink:href="#DejaVuSans-53" x="606.097656"/>
     <use xlink:href="#DejaVuSans-65" x="669.574219"/>
     <use xlink:href="#DejaVuSans-71" x="731.097656"/>
     <use xlink:href="#DejaVuSans-75" x="794.574219"/>
     <use xlink:href="#DejaVuSans-65" x="857.953125"/>
     <use xlink:href="#DejaVuSans-6e" x="919.476562"/>
     <use xlink:href="#DejaVuSans-63" x="982.855469"/>
     <use xlink:href="#DejaVuSans-65" x="1037.835938"/>
     <use xlink:href="#DejaVuSans-20" x="1099.359375"/>
     <use xlink:href="#DejaVuSans-47" x="1131.146484"/>
     <use xlink:href="#DejaVuSans-43" x="1208.636719"/>
     <use xlink:href="#DejaVuSans-20" x="1278.460938"/>
     <use xlink:href="#DejaVuSans-43" x="1310.248047"/>
     <use xlink:href="#DejaVuSans-6f" x="1380.072266"/>
     <use xlink:href="#DejaVuSans-6e" x="1441.253906"/>
     <use xlink:href="#DejaVuSans-74" x="1504.632812"/>
     <use xlink:href="#DejaVuSans-65" x="1543.841797"/>
     <use xlink:href="#DejaVuSans-6e" x="1605.365234"/>
     <use xlink:href="#DejaVuSans-74" x="1668.744141"/>
    </g>
   </g>
   <g id="legend_1">
    <g id="line2d_22">
     <path d="M 55.438125 291.525394 
L 63.438125 291.525394 
L 71.438125 291.525394 
" style="fill: none; stroke: #d9534f; stroke-linecap: square"/>
    </g>
    <g id="text_19">
     <!-- 252232567_N -->
     <g transform="translate(77.838125 294.325394) scale(0.08 -0.08)">
      <defs>
       <path id="DejaVuSans-37" d="M 525 4666 
L 3525 4666 
L 3525 4397 
L 1831 0 
L 1172 0 
L 2766 4134 
L 525 4134 
L 525 4666 
z
" transform="scale(0.015625)"/>
       <path id="DejaVuSans-5f" d="M 3263 -1063 
L 3263 -1509 
L -63 -1509 
L -63 -1063 
L 3263 -1063 
z
" transform="scale(0.015625)"/>
       <path id="DejaVuSans-4e" d="M 628 4666 
L 1478 4666 
L 3547 763 
L 3547 4666 
L 4159 4666 
L 4159 0 
L 3309 0 
L 1241 3903 
L 1241 0 
L 628 0 
L 628 4666 
z
" transform="scale(0.015625)"/>
      </defs>
      <use xlink:href="#DejaVuSans-32"/>
      <use xlink:href="#DejaVuSans-35" x="63.623047"/>
      <use xlink:href="#DejaVuSans-32" x="127.246094"/>
      <use xlink:href="#DejaVuSans-32" x="190.869141"/>
      <use xlink:href="#DejaVuSans-33" x="254.492188"/>
      <use xlink:href="#DejaVuSans-32" x="318.115234"/>
      <use xlink:href="#DejaVuSans-35" x="381.738281"/>
      <use xlink:href="#DejaVuSans-36" x="445.361328"/>
      <use xlink:href="#DejaVuSans-37" x="508.984375"/>
      <use xlink:href="#DejaVuSans-5f" x="572.607422"/>
      <use xlink:href="#DejaVuSans-4e" x="622.607422"/>
     </g>
    </g>
    <g id="line2d_23">
     <path d="M 55.438125 303.490394 
L 63.438125 303.490394 
L 71.438125 303.490394 
" style="fill: none; stroke: #d9534f; stroke-linecap: square"/>
    </g>
    <g id="text_20">
     <!-- 252232865_N -->
     <g transform="translate(77.838125 306.290394) scale(0.08 -0.08)">
      <use xlink:href="#DejaVuSans-32"/>
      <use xlink:href="#DejaVuSans-35" x="63.623047"/>
      <use xlink:href="#DejaVuSans-32" x="127.246094"/>
      <use xlink:href="#DejaVuSans-32" x="190.869141"/>
      <use xlink:href="#DejaVuSans-33" x="254.492188"/>
      <use xlink:href="#DejaVuSans-32" x="318.115234"/>
      <use xlink:href="#DejaVuSans-38" x="381.738281"/>
      <use xlink:href="#DejaVuSans-36" x="445.361328"/>
      <use xlink:href="#DejaVuSans-35" x="508.984375"/>
      <use xlink:href="#DejaVuSans-5f" x="572.607422"/>
      <use xlink:href="#DejaVuSans-4e" x="622.607422"/>
     </g>
    </g>
    <g id="line2d_24">
     <path d="M 55.438125 315.455394 
L 63.438125 315.455394 
L 71.438125 315.455394 
" style="fill: none; stroke: #f0ad4e; stroke-linecap: square"/>
    </g>
    <g id="text_21">
     <!-- 252233208_N -->
     <g transform="translate(77.838125 318.255394) scale(0.08 -0.08)">
      <use xlink:href="#DejaVuSans-32"/>
      <use xlink:href="#DejaVuSans-35" x="63.623047"/>
      <use xlink:href="#DejaVuSans-32" x="127.246094"/>
      <use xlink:href="#DejaVuSans-32" x="190.869141"/>
      <use xlink:href="#DejaVuSans-33" x="254.492188"/>
      <use xlink:href="#DejaVuSans-33" x="318.115234"/>
      <use xlink:href="#DejaVuSans-32" x="381.738281"/>
      <use xlink:href="#DejaVuSans-30" x="445.361328"/>
      <use xlink:href="#DejaVuSans-38" x="508.984375"/>
      <use xlink:href="#DejaVuSans-5f" x="572.607422"/>
      <use xlink:href="#DejaVuSans-4e" x="622.607422"/>
     </g>
    </g>
    <g id="line2d_25">
     <path d="M 265.193438 291.525394 
L 273.193438 291.525394 
L 281.193438 291.525394 
" style="fill: none; stroke: #d9534f; stroke-linecap: square"/>
    </g>
    <g id="text_22">
     <!-- 252233210_N -->
     <g transform="translate(287.593438 294.325394) scale(0.08 -0.08)">
      <use xlink:href="#DejaVuSans-32"/>
      <use xlink:href="#DejaVuSans-35" x="63.623047"/>
      <use xlink:href="#DejaVuSans-32" x="127.246094"/>
      <use xlink:href="#DejaVuSans-32" x="190.869141"/>
      <use xlink:href="#DejaVuSans-33" x="254.492188"/>
      <use xlink:href="#DejaVuSans-33" x="318.115234"/>
      <use xlink:href="#DejaVuSans-32" x="381.738281"/>
      <use xlink:href="#DejaVuSans-31" x="445.361328"/>
      <use xlink:href="#DejaVuSans-30" x="508.984375"/>
      <use xlink:href="#DejaVuSans-5f" x="572.607422"/>
      <use xlink:href="#DejaVuSans-4e" x="622.607422"/>
     </g>
    </g>
    <g id="line2d_26">
     <path d="M 265.193438 303.490394 
L 273.193438 303.490394 
L 281.193438 303.490394 
" style="fill: none; stroke: #d9534f; stroke-linecap: square"/>
    </g>
    <g id="text_23">
     <!-- 252234481_N -->
     <g transform="translate(287.593438 306.290394) scale(0.08 -0.08)">
      <use xlink:href="#DejaVuSans-32"/>
      <use xlink:href="#DejaVuSans-35" x="63.623047"/>
      <use xlink:href="#DejaVuSans-32" x="127.246094"/>
      <use xlink:href="#DejaVuSans-32" x="190.869141"/>
      <use xlink:href="#DejaVuSans-33" x="254.492188"/>
      <use xlink:href="#DejaVuSans-34" x="318.115234"/>
      <use xlink:href="#DejaVuSans-34" x="381.738281"/>
      <use xlink:href="#DejaVuSans-38" x="445.361328"/>
      <use xlink:href="#DejaVuSans-31" x="508.984375"/>
      <use xlink:href="#DejaVuSans-5f" x="572.607422"/>
      <use xlink:href="#DejaVuSans-4e" x="622.607422"/>
     </g>
    </g>
    <g id="line2d_27">
     <path d="M 474.94875 291.525394 
L 482.94875 291.525394 
L 490.94875 291.525394 
" style="fill: none; stroke: #d9534f; stroke-linecap: square"/>
    </g>
    <g id="text_24">
     <!-- 252236587_N -->
     <g transform="translate(497.34875 294.325394) scale(0.08 -0.08)">
      <use xlink:href="#DejaVuSans-32"/>
      <use xlink:href="#DejaVuSans-35" x="63.623047"/>
      <use xlink:href="#DejaVuSans-32" x="127.246094"/>
      <use xlink:href="#DejaVuSans-32" x="190.869141"/>
      <use xlink:href="#DejaVuSans-33" x="254.492188"/>
      <use xlink:href="#DejaVuSans-36" x="318.115234"/>
      <use xlink:href="#DejaVuSans-35" x="381.738281"/>
      <use xlink:href="#DejaVuSans-38" x="445.361328"/>
      <use xlink:href="#DejaVuSans-37" x="508.984375"/>
      <use xlink:href="#DejaVuSans-5f" x="572.607422"/>
      <use xlink:href="#DejaVuSans-4e" x="622.607422"/>
     </g>
    </g>
    <g id="line2d_28">
     <path d="M 474.94875 303.490394 
L 482.94875 303.490394 
L 490.94875 303.490394 
" style="fill: none; stroke: #d9534f; stroke-linecap: square"/>
    </g>
    <g id="text_25">
     <!-- 252238148_N -->
     <g transform="translate(497.34875 306.290394) scale(0.08 -0.08)">
      <use xlink:href="#DejaVuSans-32"/>
      <use xlink:href="#DejaVuSans-35" x="63.623047"/>
      <use xlink:href="#DejaVuSans-32" x="127.246094"/>
      <use xlink:href="#DejaVuSans-32" x="190.869141"/>
      <use xlink:href="#DejaVuSans-33" x="254.492188"/>
      <use xlink:href="#DejaVuSans-38" x="318.115234"/>
      <use xlink:href="#DejaVuSans-31" x="381.738281"/>
      <use xlink:href="#DejaVuSans-34" x="445.361328"/>
      <use xlink:href="#DejaVuSans-38" x="508.984375"/>
      <use xlink:href="#DejaVuSans-5f" x="572.607422"/>
      <use xlink:href="#DejaVuSans-4e" x="622.607422"/>
     </g>
    </g>
    <g id="line2d_29">
     <path d="M 684.704063 291.525394 
L 692.704063 291.525394 
L 700.704063 291.525394 
" style="fill: none; stroke: #d9534f; stroke-linecap: square"/>
    </g>
    <g id="text_26">
     <!-- 252303316B_N -->
     <g transform="translate(707.104063 294.325394) scale(0.08 -0.08)">
      <defs>
       <path id="DejaVuSans-42" d="M 1259 2228 
L 1259 519 
L 2272 519 
Q 2781 519 3026 730 
Q 3272 941 3272 1375 
Q 3272 1813 3026 2020 
Q 2781 2228 2272 2228 
L 1259 2228 
z
M 1259 4147 
L 1259 2741 
L 2194 2741 
Q 2656 2741 2882 2914 
Q 3109 3088 3109 3444 
Q 3109 3797 2882 3972 
Q 2656 4147 2194 4147 
L 1259 4147 
z
M 628 4666 
L 2241 4666 
Q 2963 4666 3353 4366 
Q 3744 4066 3744 3513 
Q 3744 3084 3544 2831 
Q 3344 2578 2956 2516 
Q 3422 2416 3680 2098 
Q 3938 1781 3938 1306 
Q 3938 681 3513 340 
Q 3088 0 2303 0 
L 628 0 
L 628 4666 
z
" transform="scale(0.015625)"/>
      </defs>
      <use xlink:href="#DejaVuSans-32"/>
      <use xlink:href="#DejaVuSans-35" x="63.623047"/>
      <use xlink:href="#DejaVuSans-32" x="127.246094"/>
      <use xlink:href="#DejaVuSans-33" x="190.869141"/>
      <use xlink:href="#DejaVuSans-30" x="254.492188"/>
      <use xlink:href="#DejaVuSans-33" x="318.115234"/>
      <use xlink:href="#DejaVuSans-33" x="381.738281"/>
      <use xlink:href="#DejaVuSans-31" x="445.361328"/>
      <use xlink:href="#DejaVuSans-36" x="508.984375"/>
      <use xlink:href="#DejaVuSans-42" x="572.607422"/>
      <use xlink:href="#DejaVuSans-5f" x="641.210938"/>
      <use xlink:href="#DejaVuSans-4e" x="691.210938"/>
     </g>
    </g>
    <g id="line2d_30">
     <path d="M 684.704063 303.490394 
L 692.704063 303.490394 
L 700.704063 303.490394 
" style="fill: none; stroke: #f0ad4e; stroke-linecap: square"/>
    </g>
    <g id="text_27">
     <!-- 252303316_N -->
     <g transform="translate(707.104063 306.290394) scale(0.08 -0.08)">
      <use xlink:href="#DejaVuSans-32"/>
      <use xlink:href="#DejaVuSans-35" x="63.623047"/>
      <use xlink:href="#DejaVuSans-32" x="127.246094"/>
      <use xlink:href="#DejaVuSans-33" x="190.869141"/>
      <use xlink:href="#DejaVuSans-30" x="254.492188"/>
      <use xlink:href="#DejaVuSans-33" x="318.115234"/>
      <use xlink:href="#DejaVuSans-33" x="381.738281"/>
      <use xlink:href="#DejaVuSans-31" x="445.361328"/>
      <use xlink:href="#DejaVuSans-36" x="508.984375"/>
      <use xlink:href="#DejaVuSans-5f" x="572.607422"/>
      <use xlink:href="#DejaVuSans-4e" x="622.607422"/>
     </g>
    </g>
    <g id="line2d_31">
     <path d="M 899.948125 291.525394 
L 907.948125 291.525394 
L 915.948125 291.525394 
" style="fill: none; stroke: #d9534f; stroke-linecap: square"/>
    </g>
    <g id="text_28">
     <!-- 252308239_N -->
     <g transform="translate(922.348125 294.325394) scale(0.08 -0.08)">
      <defs>
       <path id="DejaVuSans-39" d="M 703 97 
L 703 672 
Q 941 559 1184 500 
Q 1428 441 1663 441 
Q 2288 441 2617 861 
Q 2947 1281 2994 2138 
Q 2813 1869 2534 1725 
Q 2256 1581 1919 1581 
Q 1219 1581 811 2004 
Q 403 2428 403 3163 
Q 403 3881 828 4315 
Q 1253 4750 1959 4750 
Q 2769 4750 3195 4129 
Q 3622 3509 3622 2328 
Q 3622 1225 3098 567 
Q 2575 -91 1691 -91 
Q 1453 -91 1209 -44 
Q 966 3 703 97 
z
M 1959 2075 
Q 2384 2075 2632 2365 
Q 2881 2656 2881 3163 
Q 2881 3666 2632 3958 
Q 2384 4250 1959 4250 
Q 1534 4250 1286 3958 
Q 1038 3666 1038 3163 
Q 1038 2656 1286 2365 
Q 1534 2075 1959 2075 
z
" transform="scale(0.015625)"/>
      </defs>
      <use xlink:href="#DejaVuSans-32"/>
      <use xlink:href="#DejaVuSans-35" x="63.623047"/>
      <use xlink:href="#DejaVuSans-32" x="127.246094"/>
      <use xlink:href="#DejaVuSans-33" x="190.869141"/>
      <use xlink:href="#DejaVuSans-30" x="254.492188"/>
      <use xlink:href="#DejaVuSans-38" x="318.115234"/>
      <use xlink:href="#DejaVuSans-32" x="381.738281"/>
      <use xlink:href="#DejaVuSans-33" x="445.361328"/>
      <use xlink:href="#DejaVuSans-39" x="508.984375"/>
      <use xlink:href="#DejaVuSans-5f" x="572.607422"/>
      <use xlink:href="#DejaVuSans-4e" x="622.607422"/>
     </g>
    </g>
    <g id="line2d_32">
     <path d="M 899.948125 303.490394 
L 907.948125 303.490394 
L 915.948125 303.490394 
" style="fill: none; stroke: #d9534f; stroke-linecap: square"/>
    </g>
    <g id="text_29">
     <!-- 252308330_N -->
     <g transform="translate(922.348125 306.290394) scale(0.08 -0.08)">
      <use xlink:href="#DejaVuSans-32"/>
      <use xlink:href="#DejaVuSans-35" x="63.623047"/>
      <use xlink:href="#DejaVuSans-32" x="127.246094"/>
      <use xlink:href="#DejaVuSans-33" x="190.869141"/>
      <use xlink:href="#DejaVuSans-30" x="254.492188"/>
      <use xlink:href="#DejaVuSans-38" x="318.115234"/>
      <use xlink:href="#DejaVuSans-33" x="381.738281"/>
      <use xlink:href="#DejaVuSans-33" x="445.361328"/>
      <use xlink:href="#DejaVuSans-30" x="508.984375"/>
      <use xlink:href="#DejaVuSans-5f" x="572.607422"/>
      <use xlink:href="#DejaVuSans-4e" x="622.607422"/>
     </g>
    </g>
   </g>
  </g>
 </g>
 <defs>
  <clipPath id="p08b778ad73">
   <rect x="48.238125" y="31.48286" width="937.105" height="242.5072"/>
  </clipPath>
 </defs>
</svg>
