<?xml version="1.0" encoding="utf-8" standalone="no"?>
<!DOCTYPE svg PUBLIC "-//W3C//DTD SVG 1.1//EN"
  "http://www.w3.org/Graphics/SVG/1.1/DTD/svg11.dtd">
<svg xmlns:xlink="http://www.w3.org/1999/xlink" width="999.310185pt" height="388.844525pt" viewBox="0 0 999.310185 388.844525" xmlns="http://www.w3.org/2000/svg" version="1.1">
 <metadata>
  <rdf:RDF xmlns:dc="http://purl.org/dc/elements/1.1/" xmlns:cc="http://creativecommons.org/ns#" xmlns:rdf="http://www.w3.org/1999/02/22-rdf-syntax-ns#">
   <cc:Work>
    <dc:type rdf:resource="http://purl.org/dc/dcmitype/StillImage"/>
    <dc:date>2024-02-01T21:52:39.263105</dc:date>
    <dc:format>image/svg+xml</dc:format>
    <dc:creator>
     <cc:Agent>
      <dc:title>Matplotlib v3.6.2, https://matplotlib.org/</dc:title>
     </cc:Agent>
    </dc:creator>
   </cc:Work>
  </rdf:RDF>
 </metadata>
 <defs>
  <style type="text/css">*{stroke-linejoin: round; stroke-linecap: butt}</style>
 </defs>
 <g id="figure_1">
  <g id="axes_1">
   <g id="patch_1">
    <path d="M 32.968125 353.2239 
L 987.266478 353.2239 
L 987.266478 35.2559 
L 32.968125 35.2559 
z
" style="fill: #ffffff"/>
   </g>
   <g id="patch_2">
    <path d="M 32.968125 -676.386767 
L 944.040237 -676.386767 
L 944.040237 -4794.829433 
L 32.968125 -4794.829433 
z
" clip-path="url(#pccc4f52c56)" style="fill: #e6c3c3"/>
   </g>
   <g id="patch_3">
    <path d="M 32.968125 95.821233 
L 944.040237 95.821233 
L 944.040237 -676.386767 
L 32.968125 -676.386767 
z
" clip-path="url(#pccc4f52c56)" style="fill: #e6dcc3"/>
   </g>
   <g id="patch_4">
    <path d="M 32.968125 353.2239 
L 944.040237 353.2239 
L 944.040237 95.821233 
L 32.968125 95.821233 
z
" clip-path="url(#pccc4f52c56)" style="fill: #c3e6c3"/>
   </g>
   <g id="matplotlib.axis_1">
    <g id="xtick_1">
     <g id="text_1">
      <!-- 0 -->
      <g transform="translate(73.649367 366.30265) scale(0.08 -0.08)">
       <defs>
        <path id="DejaVuSans-30" d="M 2034 4250 
Q 1547 4250 1301 3770 
Q 1056 3291 1056 2328 
Q 1056 1369 1301 889 
Q 1547 409 2034 409 
Q 2525 409 2770 889 
Q 3016 1369 3016 2328 
Q 3016 3291 2770 3770 
Q 2525 4250 2034 4250 
z
M 2034 4750 
Q 2819 4750 3233 4129 
Q 3647 3509 3647 2328 
Q 3647 1150 3233 529 
Q 2819 -91 2034 -91 
Q 1250 -91 836 529 
Q 422 1150 422 2328 
Q 422 3509 836 4129 
Q 1250 4750 2034 4750 
z
" transform="scale(0.015625)"/>
       </defs>
       <use xlink:href="#DejaVuSans-30"/>
      </g>
     </g>
    </g>
    <g id="xtick_2">
     <g id="text_2">
      <!-- 1000 -->
      <g transform="translate(216.970337 366.30265) scale(0.08 -0.08)">
       <defs>
        <path id="DejaVuSans-31" d="M 794 531 
L 1825 531 
L 1825 4091 
L 703 3866 
L 703 4441 
L 1819 4666 
L 2450 4666 
L 2450 531 
L 3481 531 
L 3481 0 
L 794 0 
L 794 531 
z
" transform="scale(0.015625)"/>
       </defs>
       <use xlink:href="#DejaVuSans-31"/>
       <use xlink:href="#DejaVuSans-30" x="63.623047"/>
       <use xlink:href="#DejaVuSans-30" x="127.246094"/>
       <use xlink:href="#DejaVuSans-30" x="190.869141"/>
      </g>
     </g>
    </g>
    <g id="xtick_3">
     <g id="text_3">
      <!-- 2000 -->
      <g transform="translate(367.926306 366.30265) scale(0.08 -0.08)">
       <defs>
        <path id="DejaVuSans-32" d="M 1228 531 
L 3431 531 
L 3431 0 
L 469 0 
L 469 531 
Q 828 903 1448 1529 
Q 2069 2156 2228 2338 
Q 2531 2678 2651 2914 
Q 2772 3150 2772 3378 
Q 2772 3750 2511 3984 
Q 2250 4219 1831 4219 
Q 1534 4219 1204 4116 
Q 875 4013 500 3803 
L 500 4441 
Q 881 4594 1212 4672 
Q 1544 4750 1819 4750 
Q 2544 4750 2975 4387 
Q 3406 4025 3406 3419 
Q 3406 3131 3298 2873 
Q 3191 2616 2906 2266 
Q 2828 2175 2409 1742 
Q 1991 1309 1228 531 
z
" transform="scale(0.015625)"/>
       </defs>
       <use xlink:href="#DejaVuSans-32"/>
       <use xlink:href="#DejaVuSans-30" x="63.623047"/>
       <use xlink:href="#DejaVuSans-30" x="127.246094"/>
       <use xlink:href="#DejaVuSans-30" x="190.869141"/>
      </g>
     </g>
    </g>
    <g id="xtick_4">
     <g id="text_4">
      <!-- 3000 -->
      <g transform="translate(518.882276 366.30265) scale(0.08 -0.08)">
       <defs>
        <path id="DejaVuSans-33" d="M 2597 2516 
Q 3050 2419 3304 2112 
Q 3559 1806 3559 1356 
Q 3559 666 3084 287 
Q 2609 -91 1734 -91 
Q 1441 -91 1130 -33 
Q 819 25 488 141 
L 488 750 
Q 750 597 1062 519 
Q 1375 441 1716 441 
Q 2309 441 2620 675 
Q 2931 909 2931 1356 
Q 2931 1769 2642 2001 
Q 2353 2234 1838 2234 
L 1294 2234 
L 1294 2753 
L 1863 2753 
Q 2328 2753 2575 2939 
Q 2822 3125 2822 3475 
Q 2822 3834 2567 4026 
Q 2313 4219 1838 4219 
Q 1578 4219 1281 4162 
Q 984 4106 628 3988 
L 628 4550 
Q 988 4650 1302 4700 
Q 1616 4750 1894 4750 
Q 2613 4750 3031 4423 
Q 3450 4097 3450 3541 
Q 3450 3153 3228 2886 
Q 3006 2619 2597 2516 
z
" transform="scale(0.015625)"/>
       </defs>
       <use xlink:href="#DejaVuSans-33"/>
       <use xlink:href="#DejaVuSans-30" x="63.623047"/>
       <use xlink:href="#DejaVuSans-30" x="127.246094"/>
       <use xlink:href="#DejaVuSans-30" x="190.869141"/>
      </g>
     </g>
    </g>
    <g id="xtick_5">
     <g id="text_5">
      <!-- 4000 -->
      <g transform="translate(669.838246 366.30265) scale(0.08 -0.08)">
       <defs>
        <path id="DejaVuSans-34" d="M 2419 4116 
L 825 1625 
L 2419 1625 
L 2419 4116 
z
M 2253 4666 
L 3047 4666 
L 3047 1625 
L 3713 1625 
L 3713 1100 
L 3047 1100 
L 3047 0 
L 2419 0 
L 2419 1100 
L 313 1100 
L 313 1709 
L 2253 4666 
z
" transform="scale(0.015625)"/>
       </defs>
       <use xlink:href="#DejaVuSans-34"/>
       <use xlink:href="#DejaVuSans-30" x="63.623047"/>
       <use xlink:href="#DejaVuSans-30" x="127.246094"/>
       <use xlink:href="#DejaVuSans-30" x="190.869141"/>
      </g>
     </g>
    </g>
    <g id="xtick_6">
     <g id="text_6">
      <!-- 5000 -->
      <g transform="translate(820.794215 366.30265) scale(0.08 -0.08)">
       <defs>
        <path id="DejaVuSans-35" d="M 691 4666 
L 3169 4666 
L 3169 4134 
L 1269 4134 
L 1269 2991 
Q 1406 3038 1543 3061 
Q 1681 3084 1819 3084 
Q 2600 3084 3056 2656 
Q 3513 2228 3513 1497 
Q 3513 744 3044 326 
Q 2575 -91 1722 -91 
Q 1428 -91 1123 -41 
Q 819 9 494 109 
L 494 744 
Q 775 591 1075 516 
Q 1375 441 1709 441 
Q 2250 441 2565 725 
Q 2881 1009 2881 1497 
Q 2881 1984 2565 2268 
Q 2250 2553 1709 2553 
Q 1456 2553 1204 2497 
Q 953 2441 691 2322 
L 691 4666 
z
" transform="scale(0.015625)"/>
       </defs>
       <use xlink:href="#DejaVuSans-35"/>
       <use xlink:href="#DejaVuSans-30" x="63.623047"/>
       <use xlink:href="#DejaVuSans-30" x="127.246094"/>
       <use xlink:href="#DejaVuSans-30" x="190.869141"/>
      </g>
     </g>
    </g>
    <g id="xtick_7">
     <g id="text_7">
      <!-- 6000 -->
      <g transform="translate(971.750185 366.30265) scale(0.08 -0.08)">
       <defs>
        <path id="DejaVuSans-36" d="M 2113 2584 
Q 1688 2584 1439 2293 
Q 1191 2003 1191 1497 
Q 1191 994 1439 701 
Q 1688 409 2113 409 
Q 2538 409 2786 701 
Q 3034 994 3034 1497 
Q 3034 2003 2786 2293 
Q 2538 2584 2113 2584 
z
M 3366 4563 
L 3366 3988 
Q 3128 4100 2886 4159 
Q 2644 4219 2406 4219 
Q 1781 4219 1451 3797 
Q 1122 3375 1075 2522 
Q 1259 2794 1537 2939 
Q 1816 3084 2150 3084 
Q 2853 3084 3261 2657 
Q 3669 2231 3669 1497 
Q 3669 778 3244 343 
Q 2819 -91 2113 -91 
Q 1303 -91 875 529 
Q 447 1150 447 2328 
Q 447 3434 972 4092 
Q 1497 4750 2381 4750 
Q 2619 4750 2861 4703 
Q 3103 4656 3366 4563 
z
" transform="scale(0.015625)"/>
       </defs>
       <use xlink:href="#DejaVuSans-36"/>
       <use xlink:href="#DejaVuSans-30" x="63.623047"/>
       <use xlink:href="#DejaVuSans-30" x="127.246094"/>
       <use xlink:href="#DejaVuSans-30" x="190.869141"/>
      </g>
     </g>
    </g>
    <g id="text_8">
     <!-- Position (bp) -->
     <g transform="translate(478.814177 379.564837) scale(0.1 -0.1)">
      <defs>
       <path id="DejaVuSans-50" d="M 1259 4147 
L 1259 2394 
L 2053 2394 
Q 2494 2394 2734 2622 
Q 2975 2850 2975 3272 
Q 2975 3691 2734 3919 
Q 2494 4147 2053 4147 
L 1259 4147 
z
M 628 4666 
L 2053 4666 
Q 2838 4666 3239 4311 
Q 3641 3956 3641 3272 
Q 3641 2581 3239 2228 
Q 2838 1875 2053 1875 
L 1259 1875 
L 1259 0 
L 628 0 
L 628 4666 
z
" transform="scale(0.015625)"/>
       <path id="DejaVuSans-6f" d="M 1959 3097 
Q 1497 3097 1228 2736 
Q 959 2375 959 1747 
Q 959 1119 1226 758 
Q 1494 397 1959 397 
Q 2419 397 2687 759 
Q 2956 1122 2956 1747 
Q 2956 2369 2687 2733 
Q 2419 3097 1959 3097 
z
M 1959 3584 
Q 2709 3584 3137 3096 
Q 3566 2609 3566 1747 
Q 3566 888 3137 398 
Q 2709 -91 1959 -91 
Q 1206 -91 779 398 
Q 353 888 353 1747 
Q 353 2609 779 3096 
Q 1206 3584 1959 3584 
z
" transform="scale(0.015625)"/>
       <path id="DejaVuSans-73" d="M 2834 3397 
L 2834 2853 
Q 2591 2978 2328 3040 
Q 2066 3103 1784 3103 
Q 1356 3103 1142 2972 
Q 928 2841 928 2578 
Q 928 2378 1081 2264 
Q 1234 2150 1697 2047 
L 1894 2003 
Q 2506 1872 2764 1633 
Q 3022 1394 3022 966 
Q 3022 478 2636 193 
Q 2250 -91 1575 -91 
Q 1294 -91 989 -36 
Q 684 19 347 128 
L 347 722 
Q 666 556 975 473 
Q 1284 391 1588 391 
Q 1994 391 2212 530 
Q 2431 669 2431 922 
Q 2431 1156 2273 1281 
Q 2116 1406 1581 1522 
L 1381 1569 
Q 847 1681 609 1914 
Q 372 2147 372 2553 
Q 372 3047 722 3315 
Q 1072 3584 1716 3584 
Q 2034 3584 2315 3537 
Q 2597 3491 2834 3397 
z
" transform="scale(0.015625)"/>
       <path id="DejaVuSans-69" d="M 603 3500 
L 1178 3500 
L 1178 0 
L 603 0 
L 603 3500 
z
M 603 4863 
L 1178 4863 
L 1178 4134 
L 603 4134 
L 603 4863 
z
" transform="scale(0.015625)"/>
       <path id="DejaVuSans-74" d="M 1172 4494 
L 1172 3500 
L 2356 3500 
L 2356 3053 
L 1172 3053 
L 1172 1153 
Q 1172 725 1289 603 
Q 1406 481 1766 481 
L 2356 481 
L 2356 0 
L 1766 0 
Q 1100 0 847 248 
Q 594 497 594 1153 
L 594 3053 
L 172 3053 
L 172 3500 
L 594 3500 
L 594 4494 
L 1172 4494 
z
" transform="scale(0.015625)"/>
       <path id="DejaVuSans-6e" d="M 3513 2113 
L 3513 0 
L 2938 0 
L 2938 2094 
Q 2938 2591 2744 2837 
Q 2550 3084 2163 3084 
Q 1697 3084 1428 2787 
Q 1159 2491 1159 1978 
L 1159 0 
L 581 0 
L 581 3500 
L 1159 3500 
L 1159 2956 
Q 1366 3272 1645 3428 
Q 1925 3584 2291 3584 
Q 2894 3584 3203 3211 
Q 3513 2838 3513 2113 
z
" transform="scale(0.015625)"/>
       <path id="DejaVuSans-20" transform="scale(0.015625)"/>
       <path id="DejaVuSans-28" d="M 1984 4856 
Q 1566 4138 1362 3434 
Q 1159 2731 1159 2009 
Q 1159 1288 1364 580 
Q 1569 -128 1984 -844 
L 1484 -844 
Q 1016 -109 783 600 
Q 550 1309 550 2009 
Q 550 2706 781 3412 
Q 1013 4119 1484 4856 
L 1984 4856 
z
" transform="scale(0.015625)"/>
       <path id="DejaVuSans-62" d="M 3116 1747 
Q 3116 2381 2855 2742 
Q 2594 3103 2138 3103 
Q 1681 3103 1420 2742 
Q 1159 2381 1159 1747 
Q 1159 1113 1420 752 
Q 1681 391 2138 391 
Q 2594 391 2855 752 
Q 3116 1113 3116 1747 
z
M 1159 2969 
Q 1341 3281 1617 3432 
Q 1894 3584 2278 3584 
Q 2916 3584 3314 3078 
Q 3713 2572 3713 1747 
Q 3713 922 3314 415 
Q 2916 -91 2278 -91 
Q 1894 -91 1617 61 
Q 1341 213 1159 525 
L 1159 0 
L 581 0 
L 581 4863 
L 1159 4863 
L 1159 2969 
z
" transform="scale(0.015625)"/>
       <path id="DejaVuSans-70" d="M 1159 525 
L 1159 -1331 
L 581 -1331 
L 581 3500 
L 1159 3500 
L 1159 2969 
Q 1341 3281 1617 3432 
Q 1894 3584 2278 3584 
Q 2916 3584 3314 3078 
Q 3713 2572 3713 1747 
Q 3713 922 3314 415 
Q 2916 -91 2278 -91 
Q 1894 -91 1617 61 
Q 1341 213 1159 525 
z
M 3116 1747 
Q 3116 2381 2855 2742 
Q 2594 3103 2138 3103 
Q 1681 3103 1420 2742 
Q 1159 2381 1159 1747 
Q 1159 1113 1420 752 
Q 1681 391 2138 391 
Q 2594 391 2855 752 
Q 3116 1113 3116 1747 
z
" transform="scale(0.015625)"/>
       <path id="DejaVuSans-29" d="M 513 4856 
L 1013 4856 
Q 1481 4119 1714 3412 
Q 1947 2706 1947 2009 
Q 1947 1309 1714 600 
Q 1481 -109 1013 -844 
L 513 -844 
Q 928 -128 1133 580 
Q 1338 1288 1338 2009 
Q 1338 2731 1133 3434 
Q 928 4138 513 4856 
z
" transform="scale(0.015625)"/>
      </defs>
      <use xlink:href="#DejaVuSans-50"/>
      <use xlink:href="#DejaVuSans-6f" x="56.677734"/>
      <use xlink:href="#DejaVuSans-73" x="117.859375"/>
      <use xlink:href="#DejaVuSans-69" x="169.958984"/>
      <use xlink:href="#DejaVuSans-74" x="197.742188"/>
      <use xlink:href="#DejaVuSans-69" x="236.951172"/>
      <use xlink:href="#DejaVuSans-6f" x="264.734375"/>
      <use xlink:href="#DejaVuSans-6e" x="325.916016"/>
      <use xlink:href="#DejaVuSans-20" x="389.294922"/>
      <use xlink:href="#DejaVuSans-28" x="421.082031"/>
      <use xlink:href="#DejaVuSans-62" x="460.095703"/>
      <use xlink:href="#DejaVuSans-70" x="523.572266"/>
      <use xlink:href="#DejaVuSans-29" x="587.048828"/>
     </g>
    </g>
   </g>
   <g id="matplotlib.axis_2">
    <g id="ytick_1">
     <g id="line2d_1">
      <path d="M 32.968125 353.2239 
L 987.266478 353.2239 
" clip-path="url(#pccc4f52c56)" style="fill: none; stroke: #dedede; stroke-linecap: square"/>
     </g>
     <g id="text_9">
      <!-- 0 -->
      <g transform="translate(20.878125 356.263275) scale(0.08 -0.08)">
       <use xlink:href="#DejaVuSans-30"/>
      </g>
     </g>
    </g>
    <g id="ytick_2">
     <g id="line2d_2">
      <path d="M 32.968125 301.743367 
L 987.266478 301.743367 
" clip-path="url(#pccc4f52c56)" style="fill: none; stroke: #dedede; stroke-linecap: square"/>
     </g>
     <g id="text_10">
      <!-- 1 -->
      <g transform="translate(20.878125 304.782742) scale(0.08 -0.08)">
       <use xlink:href="#DejaVuSans-31"/>
      </g>
     </g>
    </g>
    <g id="ytick_3">
     <g id="line2d_3">
      <path d="M 32.968125 250.262833 
L 987.266478 250.262833 
" clip-path="url(#pccc4f52c56)" style="fill: none; stroke: #dedede; stroke-linecap: square"/>
     </g>
     <g id="text_11">
      <!-- 2 -->
      <g transform="translate(20.878125 253.302208) scale(0.08 -0.08)">
       <use xlink:href="#DejaVuSans-32"/>
      </g>
     </g>
    </g>
    <g id="ytick_4">
     <g id="line2d_4">
      <path d="M 32.968125 198.7823 
L 987.266478 198.7823 
" clip-path="url(#pccc4f52c56)" style="fill: none; stroke: #dedede; stroke-linecap: square"/>
     </g>
     <g id="text_12">
      <!-- 3 -->
      <g transform="translate(20.878125 201.821675) scale(0.08 -0.08)">
       <use xlink:href="#DejaVuSans-33"/>
      </g>
     </g>
    </g>
    <g id="ytick_5">
     <g id="line2d_5">
      <path d="M 32.968125 147.301767 
L 987.266478 147.301767 
" clip-path="url(#pccc4f52c56)" style="fill: none; stroke: #dedede; stroke-linecap: square"/>
     </g>
     <g id="text_13">
      <!-- 4 -->
      <g transform="translate(20.878125 150.341142) scale(0.08 -0.08)">
       <use xlink:href="#DejaVuSans-34"/>
      </g>
     </g>
    </g>
    <g id="ytick_6">
     <g id="line2d_6">
      <path d="M 32.968125 95.821233 
L 987.266478 95.821233 
" clip-path="url(#pccc4f52c56)" style="fill: none; stroke: #dedede; stroke-linecap: square"/>
     </g>
     <g id="text_14">
      <!-- 5 -->
      <g transform="translate(20.878125 98.860608) scale(0.08 -0.08)">
       <use xlink:href="#DejaVuSans-35"/>
      </g>
     </g>
    </g>
    <g id="ytick_7">
     <g id="line2d_7">
      <path d="M 32.968125 44.3407 
L 987.266478 44.3407 
" clip-path="url(#pccc4f52c56)" style="fill: none; stroke: #dedede; stroke-linecap: square"/>
     </g>
     <g id="text_15">
      <!-- 6 -->
      <g transform="translate(20.878125 47.380075) scale(0.08 -0.08)">
       <use xlink:href="#DejaVuSans-36"/>
      </g>
     </g>
    </g>
    <g id="text_16">
     <!-- % of Sequences -->
     <g transform="translate(14.798437 234.257869) rotate(-90) scale(0.1 -0.1)">
      <defs>
       <path id="DejaVuSans-25" d="M 4653 2053 
Q 4381 2053 4226 1822 
Q 4072 1591 4072 1178 
Q 4072 772 4226 539 
Q 4381 306 4653 306 
Q 4919 306 5073 539 
Q 5228 772 5228 1178 
Q 5228 1588 5073 1820 
Q 4919 2053 4653 2053 
z
M 4653 2450 
Q 5147 2450 5437 2106 
Q 5728 1763 5728 1178 
Q 5728 594 5436 251 
Q 5144 -91 4653 -91 
Q 4153 -91 3862 251 
Q 3572 594 3572 1178 
Q 3572 1766 3864 2108 
Q 4156 2450 4653 2450 
z
M 1428 4353 
Q 1159 4353 1004 4120 
Q 850 3888 850 3481 
Q 850 3069 1003 2837 
Q 1156 2606 1428 2606 
Q 1700 2606 1854 2837 
Q 2009 3069 2009 3481 
Q 2009 3884 1853 4118 
Q 1697 4353 1428 4353 
z
M 4250 4750 
L 4750 4750 
L 1831 -91 
L 1331 -91 
L 4250 4750 
z
M 1428 4750 
Q 1922 4750 2215 4408 
Q 2509 4066 2509 3481 
Q 2509 2891 2217 2550 
Q 1925 2209 1428 2209 
Q 931 2209 642 2551 
Q 353 2894 353 3481 
Q 353 4063 643 4406 
Q 934 4750 1428 4750 
z
" transform="scale(0.015625)"/>
       <path id="DejaVuSans-66" d="M 2375 4863 
L 2375 4384 
L 1825 4384 
Q 1516 4384 1395 4259 
Q 1275 4134 1275 3809 
L 1275 3500 
L 2222 3500 
L 2222 3053 
L 1275 3053 
L 1275 0 
L 697 0 
L 697 3053 
L 147 3053 
L 147 3500 
L 697 3500 
L 697 3744 
Q 697 4328 969 4595 
Q 1241 4863 1831 4863 
L 2375 4863 
z
" transform="scale(0.015625)"/>
       <path id="DejaVuSans-53" d="M 3425 4513 
L 3425 3897 
Q 3066 4069 2747 4153 
Q 2428 4238 2131 4238 
Q 1616 4238 1336 4038 
Q 1056 3838 1056 3469 
Q 1056 3159 1242 3001 
Q 1428 2844 1947 2747 
L 2328 2669 
Q 3034 2534 3370 2195 
Q 3706 1856 3706 1288 
Q 3706 609 3251 259 
Q 2797 -91 1919 -91 
Q 1588 -91 1214 -16 
Q 841 59 441 206 
L 441 856 
Q 825 641 1194 531 
Q 1563 422 1919 422 
Q 2459 422 2753 634 
Q 3047 847 3047 1241 
Q 3047 1584 2836 1778 
Q 2625 1972 2144 2069 
L 1759 2144 
Q 1053 2284 737 2584 
Q 422 2884 422 3419 
Q 422 4038 858 4394 
Q 1294 4750 2059 4750 
Q 2388 4750 2728 4690 
Q 3069 4631 3425 4513 
z
" transform="scale(0.015625)"/>
       <path id="DejaVuSans-65" d="M 3597 1894 
L 3597 1613 
L 953 1613 
Q 991 1019 1311 708 
Q 1631 397 2203 397 
Q 2534 397 2845 478 
Q 3156 559 3463 722 
L 3463 178 
Q 3153 47 2828 -22 
Q 2503 -91 2169 -91 
Q 1331 -91 842 396 
Q 353 884 353 1716 
Q 353 2575 817 3079 
Q 1281 3584 2069 3584 
Q 2775 3584 3186 3129 
Q 3597 2675 3597 1894 
z
M 3022 2063 
Q 3016 2534 2758 2815 
Q 2500 3097 2075 3097 
Q 1594 3097 1305 2825 
Q 1016 2553 972 2059 
L 3022 2063 
z
" transform="scale(0.015625)"/>
       <path id="DejaVuSans-71" d="M 947 1747 
Q 947 1113 1208 752 
Q 1469 391 1925 391 
Q 2381 391 2643 752 
Q 2906 1113 2906 1747 
Q 2906 2381 2643 2742 
Q 2381 3103 1925 3103 
Q 1469 3103 1208 2742 
Q 947 2381 947 1747 
z
M 2906 525 
Q 2725 213 2448 61 
Q 2172 -91 1784 -91 
Q 1150 -91 751 415 
Q 353 922 353 1747 
Q 353 2572 751 3078 
Q 1150 3584 1784 3584 
Q 2172 3584 2448 3432 
Q 2725 3281 2906 2969 
L 2906 3500 
L 3481 3500 
L 3481 -1331 
L 2906 -1331 
L 2906 525 
z
" transform="scale(0.015625)"/>
       <path id="DejaVuSans-75" d="M 544 1381 
L 544 3500 
L 1119 3500 
L 1119 1403 
Q 1119 906 1312 657 
Q 1506 409 1894 409 
Q 2359 409 2629 706 
Q 2900 1003 2900 1516 
L 2900 3500 
L 3475 3500 
L 3475 0 
L 2900 0 
L 2900 538 
Q 2691 219 2414 64 
Q 2138 -91 1772 -91 
Q 1169 -91 856 284 
Q 544 659 544 1381 
z
M 1991 3584 
L 1991 3584 
z
" transform="scale(0.015625)"/>
       <path id="DejaVuSans-63" d="M 3122 3366 
L 3122 2828 
Q 2878 2963 2633 3030 
Q 2388 3097 2138 3097 
Q 1578 3097 1268 2742 
Q 959 2388 959 1747 
Q 959 1106 1268 751 
Q 1578 397 2138 397 
Q 2388 397 2633 464 
Q 2878 531 3122 666 
L 3122 134 
Q 2881 22 2623 -34 
Q 2366 -91 2075 -91 
Q 1284 -91 818 406 
Q 353 903 353 1747 
Q 353 2603 823 3093 
Q 1294 3584 2113 3584 
Q 2378 3584 2631 3529 
Q 2884 3475 3122 3366 
z
" transform="scale(0.015625)"/>
      </defs>
      <use xlink:href="#DejaVuSans-25"/>
      <use xlink:href="#DejaVuSans-20" x="95.019531"/>
      <use xlink:href="#DejaVuSans-6f" x="126.806641"/>
      <use xlink:href="#DejaVuSans-66" x="187.988281"/>
      <use xlink:href="#DejaVuSans-20" x="223.193359"/>
      <use xlink:href="#DejaVuSans-53" x="254.980469"/>
      <use xlink:href="#DejaVuSans-65" x="318.457031"/>
      <use xlink:href="#DejaVuSans-71" x="379.980469"/>
      <use xlink:href="#DejaVuSans-75" x="443.457031"/>
      <use xlink:href="#DejaVuSans-65" x="506.835938"/>
      <use xlink:href="#DejaVuSans-6e" x="568.359375"/>
      <use xlink:href="#DejaVuSans-63" x="631.738281"/>
      <use xlink:href="#DejaVuSans-65" x="686.71875"/>
      <use xlink:href="#DejaVuSans-73" x="748.242188"/>
     </g>
    </g>
   </g>
   <g id="line2d_8">
    <path d="M 76.345323 351.789902 
L 76.496279 351.789902 
L 76.647235 351.789902 
L 76.798191 351.789902 
L 76.949147 351.789902 
L 77.100103 351.789902 
L 77.251059 351.789902 
L 77.402015 351.789902 
L 77.552971 351.789902 
L 84.345989 347.997773 
L 98.686806 338.310319 
L 113.782403 327.512313 
L 128.878 320.500062 
L 143.973597 313.688571 
L 159.069194 310.505095 
L 174.164791 308.325418 
L 189.260388 305.586482 
L 204.355985 298.87537 
L 219.451582 294.415636 
L 234.547179 292.788048 
L 249.642776 291.21065 
L 264.738373 288.837383 
L 279.83397 284.449349 
L 294.929567 281.036433 
L 310.025164 279.251106 
L 325.120761 278.290327 
L 340.216358 277.049919 
L 355.311955 276.504999 
L 370.407552 275.6446 
L 385.503149 275.071001 
L 400.598746 275.071001 
L 415.694343 274.827222 
L 430.78994 274.354002 
L 445.885537 274.354002 
L 460.981134 274.052863 
L 476.076731 273.579643 
L 491.172328 272.489805 
L 506.267924 272.203005 
L 521.363521 272.203005 
L 536.459118 272.203005 
L 551.554715 272.203005 
L 566.650312 272.203005 
L 581.745909 272.203005 
L 596.841506 271.650916 
L 611.937103 271.486006 
L 627.0327 271.486006 
L 642.128297 271.486006 
L 657.223894 271.486006 
L 672.319491 271.486006 
L 687.415088 271.486006 
L 702.510685 271.486006 
L 717.606282 271.486006 
L 732.701879 271.486006 
L 747.797476 271.486006 
L 762.893073 271.486006 
L 777.98867 271.486006 
L 793.084267 271.486006 
L 808.179864 271.486006 
L 823.275461 271.486006 
L 838.371058 271.486006 
L 848.937976 271.486006 
" clip-path="url(#pccc4f52c56)" style="fill: none; stroke: #7cb5ec; stroke-linecap: square"/>
   </g>
   <g id="line2d_9">
    <path d="M 76.345323 352.506901 
L 76.496279 352.506901 
L 76.647235 352.506901 
L 76.798191 352.506901 
L 76.949147 352.506901 
L 77.100103 352.506901 
L 77.251059 352.506901 
L 77.402015 352.506901 
L 77.552971 352.506901 
L 84.345989 350.244371 
L 98.686806 346.821098 
L 113.782403 345.6022 
L 128.878 342.468914 
L 143.973597 341.751915 
L 159.069194 341.328885 
L 174.164791 340.396787 
L 189.260388 340.260557 
L 204.355985 338.969958 
L 219.451582 338.03786 
L 234.547179 336.732921 
L 249.642776 336.732921 
L 264.738373 335.220053 
L 279.83397 333.348686 
L 294.929567 333.147926 
L 310.025164 332.531307 
L 325.120761 331.391278 
L 340.216358 329.91426 
L 355.311955 329.562931 
L 370.407552 329.562931 
L 385.503149 329.562931 
L 400.598746 329.562931 
L 415.694343 329.562931 
L 430.78994 328.888952 
L 445.885537 328.845932 
L 460.981134 328.845932 
L 476.076731 328.415732 
L 491.172328 326.766634 
L 506.267924 326.694934 
L 521.363521 326.694934 
L 536.459118 326.694934 
L 551.554715 326.694934 
L 566.650312 326.694934 
L 581.745909 326.694934 
L 596.841506 326.694934 
L 611.937103 326.694934 
L 627.0327 326.307755 
L 642.128297 325.977935 
L 657.223894 325.977935 
L 672.319491 325.977935 
L 687.415088 325.977935 
L 702.510685 325.977935 
L 717.606282 325.977935 
L 732.701879 325.977935 
L 747.797476 325.382826 
L 762.893073 325.260936 
L 777.98867 325.260936 
L 793.084267 325.260936 
L 808.179864 325.260936 
L 823.275461 325.260936 
L 838.371058 325.260936 
L 848.937976 325.260936 
" clip-path="url(#pccc4f52c56)" style="fill: none; stroke: #434348; stroke-linecap: square"/>
   </g>
   <g id="line2d_10">
    <path d="M 76.345323 353.2239 
L 76.496279 353.2239 
L 76.647235 353.2239 
L 76.798191 353.2239 
L 76.949147 353.2239 
L 77.100103 353.2239 
L 77.251059 353.2239 
L 77.402015 353.2239 
L 77.552971 353.2239 
L 80.57209 302.293961 
L 87.365109 270.634809 
L 94.912907 270.634809 
L 102.460706 270.634809 
L 110.008504 270.634809 
L 117.556303 270.634809 
L 125.104101 270.634809 
L 132.6519 270.634809 
L 140.199698 270.634809 
L 147.747497 264.578276 
L 155.295295 243.105112 
L 162.843094 240.352142 
L 170.390892 215.575415 
L 177.93869 215.575415 
L 185.486489 189.6975 
L 193.034287 188.045718 
L 200.582086 181.438591 
L 208.129884 160.516021 
L 215.677683 160.516021 
L 223.225481 160.516021 
L 230.77328 160.516021 
L 238.321078 160.516021 
L 245.868877 160.516021 
L 253.416675 160.516021 
L 260.964474 160.516021 
L 268.512272 160.516021 
L 276.060071 160.516021 
L 283.607869 148.953548 
L 291.155668 119.221476 
L 298.703466 105.456627 
L 306.251265 105.456627 
L 313.799063 105.456627 
L 321.346862 105.456627 
L 328.89466 84.534058 
L 336.442459 77.92693 
L 343.990257 77.92693 
L 351.538056 77.92693 
L 359.085854 77.92693 
L 366.633653 77.92693 
L 374.181451 77.92693 
L 381.72925 77.92693 
L 389.277048 77.92693 
L 396.824846 66.915052 
L 404.372645 50.397233 
L 411.920443 50.397233 
L 419.468242 50.397233 
L 427.01604 50.397233 
L 434.563839 50.397233 
L 442.111637 50.397233 
L 449.659436 50.397233 
L 457.207234 50.397233 
L 464.755033 50.397233 
L 472.302831 50.397233 
L 479.85063 50.397233 
L 487.398428 50.397233 
L 494.946227 50.397233 
L 502.494025 50.397233 
L 510.041824 50.397233 
L 517.589622 50.397233 
L 525.137421 50.397233 
L 532.685219 50.397233 
L 540.233018 50.397233 
L 547.780816 50.397233 
L 555.328615 50.397233 
L 562.876413 50.397233 
" clip-path="url(#pccc4f52c56)" style="fill: none; stroke: #90ed7d; stroke-linecap: square"/>
   </g>
   <g id="line2d_11">
    <path d="M 76.345323 353.2239 
L 76.496279 353.2239 
L 76.647235 353.2239 
L 76.798191 353.2239 
L 76.949147 353.2239 
L 77.100103 353.2239 
L 77.251059 353.2239 
L 77.402015 353.2239 
L 77.552971 353.2239 
L 84.345989 320.448663 
L 98.686806 304.061044 
L 113.782403 304.061044 
L 128.878 294.228473 
L 143.973597 290.014514 
L 159.069194 283.342412 
L 174.164791 275.967984 
L 189.260388 266.556808 
L 204.355985 257.356331 
L 219.451582 254.898188 
L 234.547179 247.874923 
L 249.642776 247.874923 
L 264.738373 247.874923 
L 279.83397 247.874923 
L 294.929567 242.326544 
L 310.025164 237.059095 
L 325.120761 233.828393 
L 340.216358 233.828393 
L 355.311955 227.156291 
L 370.407552 226.805128 
L 385.503149 226.805128 
L 400.598746 226.805128 
L 415.694343 226.805128 
L 430.78994 226.805128 
L 445.885537 221.607912 
L 460.981134 219.781863 
L 476.076731 219.781863 
L 491.172328 219.781863 
L 506.267924 219.781863 
L 521.363521 219.781863 
L 536.459118 219.781863 
L 551.554715 219.781863 
L 566.650312 219.781863 
L 581.745909 219.781863 
L 596.841506 219.781863 
L 611.937103 219.781863 
L 627.0327 219.781863 
L 642.128297 219.781863 
L 652.544259 219.781863 
" clip-path="url(#pccc4f52c56)" style="fill: none; stroke: #f7a35c; stroke-linecap: square"/>
   </g>
   <g id="line2d_12">
    <path d="M 76.345323 353.2239 
L 76.496279 353.2239 
L 76.647235 353.2239 
L 76.798191 353.2239 
L 76.949147 353.2239 
L 77.100103 353.2239 
L 77.251059 353.2239 
L 77.402015 353.2239 
L 77.552971 353.2239 
L 84.345989 353.2239 
L 98.686806 353.2239 
L 113.782403 350.625292 
L 128.878 340.020162 
L 143.973597 339.17737 
L 159.069194 339.17737 
L 174.164791 339.17737 
L 189.260388 339.17737 
L 204.355985 339.17737 
L 219.451582 339.17737 
L 234.547179 339.17737 
L 249.642776 339.17737 
L 264.738373 339.17737 
L 279.83397 333.839688 
L 294.929567 332.154105 
L 310.025164 332.154105 
L 325.120761 327.729448 
L 340.216358 325.13084 
L 355.311955 320.846648 
L 370.407552 318.107574 
L 385.503149 318.107574 
L 400.598746 318.107574 
L 415.694343 318.107574 
L 430.78994 318.107574 
L 445.885537 318.107574 
L 460.981134 318.107574 
L 476.076731 318.107574 
L 491.172328 318.107574 
L 506.267924 318.107574 
L 521.363521 318.107574 
L 536.459118 318.107574 
L 551.554715 317.124317 
L 566.650312 311.084309 
L 581.745909 311.084309 
L 596.841506 311.084309 
L 611.937103 311.084309 
L 627.0327 311.084309 
L 642.128297 311.084309 
L 652.544259 311.084309 
" clip-path="url(#pccc4f52c56)" style="fill: none; stroke: #8085e9; stroke-linecap: square"/>
   </g>
   <g id="line2d_13">
    <path d="M 76.345323 352.634788 
L 76.496279 352.37296 
L 76.647235 352.307504 
L 76.798191 352.17659 
L 76.949147 352.17659 
L 77.100103 352.111133 
L 77.251059 352.111133 
L 77.402015 352.045676 
L 77.552971 351.980219 
L 84.345989 349.51104 
L 98.686806 346.478568 
L 113.782403 345.314744 
L 128.878 341.420059 
L 143.973597 333.033723 
L 159.069194 332.22533 
L 174.164791 331.386173 
L 189.260388 330.276024 
L 204.355985 328.809135 
L 219.451582 327.248643 
L 234.547179 324.05042 
L 249.642776 319.679863 
L 264.738373 319.101879 
L 279.83397 318.438801 
L 294.929567 318.102352 
L 310.025164 317.862125 
L 325.120761 317.609462 
L 340.216358 317.473311 
L 355.311955 317.229157 
L 370.407552 316.962748 
L 385.503149 316.920855 
L 400.598746 316.646591 
L 415.694343 316.562806 
L 430.78994 316.455457 
L 445.885537 316.437129 
L 460.981134 316.3972 
L 476.076731 316.371672 
L 491.172328 316.331089 
L 506.267924 316.306215 
L 521.363521 316.306215 
L 536.459118 316.267596 
L 551.554715 316.240758 
L 566.650312 316.219812 
L 581.745909 316.175301 
L 596.841506 316.145191 
L 611.937103 316.109844 
L 627.0327 316.109844 
L 642.128297 316.109844 
L 657.223894 316.109844 
L 672.319491 316.109844 
L 687.415088 316.109844 
L 702.510685 316.109844 
L 717.606282 316.109844 
L 732.701879 316.109844 
L 747.797476 316.109844 
L 762.893073 316.109844 
L 777.98867 316.109844 
L 793.084267 316.109844 
L 808.179864 316.109844 
L 823.275461 316.109844 
L 837.91819 316.109844 
" clip-path="url(#pccc4f52c56)" style="fill: none; stroke: #f15c80; stroke-linecap: square"/>
   </g>
   <g id="line2d_14">
    <path d="M 76.345323 352.896616 
L 76.496279 352.896616 
L 76.647235 352.831159 
L 76.798191 352.831159 
L 76.949147 352.831159 
L 77.100103 352.831159 
L 77.251059 352.831159 
L 77.402015 352.700245 
L 77.552971 352.700245 
L 84.345989 352.255138 
L 98.686806 351.845378 
L 113.782403 351.179681 
L 128.878 350.377835 
L 143.973597 349.399909 
L 159.069194 348.257031 
L 174.164791 347.42442 
L 189.260388 346.231141 
L 204.355985 345.52617 
L 219.451582 344.41013 
L 234.547179 344.109683 
L 249.642776 343.872074 
L 264.738373 343.738542 
L 279.83397 343.62792 
L 294.929567 343.565082 
L 310.025164 343.34711 
L 325.120761 343.274453 
L 340.216358 343.224706 
L 355.311955 343.166449 
L 370.407552 343.085283 
L 385.503149 342.793345 
L 400.598746 342.641485 
L 415.694343 342.619884 
L 430.78994 342.578646 
L 445.885537 342.48897 
L 460.981134 342.48897 
L 476.076731 342.48897 
L 491.172328 342.439878 
L 506.267924 342.423513 
L 521.363521 342.423513 
L 536.459118 342.423513 
L 551.554715 342.39864 
L 566.650312 342.33711 
L 581.745909 342.2926 
L 596.841506 342.2926 
L 611.937103 342.2926 
L 627.0327 342.2926 
L 642.128297 342.2926 
L 657.223894 342.2926 
L 672.319491 342.2926 
L 687.415088 342.2926 
L 702.510685 342.2926 
L 717.606282 342.2926 
L 732.701879 342.2926 
L 747.797476 342.2926 
L 762.893073 342.2926 
L 777.98867 342.2926 
L 793.084267 342.2926 
L 808.179864 342.2926 
L 823.275461 342.2926 
L 837.91819 342.2926 
" clip-path="url(#pccc4f52c56)" style="fill: none; stroke: #e4d354; stroke-linecap: square"/>
   </g>
   <g id="line2d_15">
    <path d="M 76.345323 352.44259 
L 76.496279 351.661279 
L 76.647235 351.661279 
L 76.798191 351.661279 
L 76.949147 351.661279 
L 77.100103 351.661279 
L 77.251059 351.661279 
L 77.402015 351.661279 
L 77.552971 351.661279 
L 84.345989 351.287987 
L 98.686806 349.606433 
L 113.782403 347.387512 
L 128.878 343.863803 
L 143.973597 341.738639 
L 159.069194 339.855681 
L 174.164791 339.160315 
L 189.260388 339.12125 
L 204.355985 337.550816 
L 219.451582 335.128754 
L 234.547179 333.698956 
L 249.642776 333.691143 
L 264.738373 332.753571 
L 279.83397 332.128523 
L 294.929567 332.128523 
L 310.025164 331.753494 
L 325.120761 331.347213 
L 340.216358 331.347213 
L 355.311955 331.144072 
L 370.407552 330.565902 
L 385.503149 330.565902 
L 400.598746 330.565902 
L 415.694343 330.565902 
L 430.78994 330.565902 
L 445.885537 330.565902 
L 460.981134 330.565902 
L 476.076731 330.565902 
L 491.172328 330.565902 
L 506.267924 330.565902 
L 521.363521 330.565902 
L 536.459118 330.565902 
L 551.554715 330.565902 
L 566.650312 330.565902 
L 581.745909 330.565902 
L 596.841506 330.565902 
L 611.937103 330.565902 
L 627.0327 330.565902 
L 642.128297 330.565902 
L 657.223894 330.565902 
L 672.319491 330.565902 
L 687.415088 330.565902 
L 702.510685 330.565902 
L 717.606282 330.565902 
L 730.135628 330.565902 
" clip-path="url(#pccc4f52c56)" style="fill: none; stroke: #2b908f; stroke-linecap: square"/>
   </g>
   <g id="line2d_16">
    <path d="M 76.345323 353.2239 
L 76.496279 353.2239 
L 76.647235 353.2239 
L 76.798191 352.44259 
L 76.949147 352.44259 
L 77.100103 352.44259 
L 77.251059 352.44259 
L 77.402015 352.44259 
L 77.552971 352.44259 
L 84.345989 352.44259 
L 98.686806 352.356646 
L 113.782403 350.911222 
L 128.878 350.653389 
L 143.973597 347.58284 
L 159.069194 346.465566 
L 174.164791 344.691992 
L 189.260388 343.848177 
L 204.355985 341.465181 
L 219.451582 340.379159 
L 234.547179 339.941626 
L 249.642776 339.855681 
L 264.738373 339.160315 
L 279.83397 339.160315 
L 294.929567 339.160315 
L 310.025164 338.54308 
L 325.120761 338.379005 
L 340.216358 338.379005 
L 355.311955 338.379005 
L 370.407552 338.379005 
L 385.503149 338.379005 
L 400.598746 338.379005 
L 415.694343 338.379005 
L 430.78994 337.621134 
L 445.885537 336.816384 
L 460.981134 336.816384 
L 476.076731 336.816384 
L 491.172328 336.816384 
L 506.267924 336.816384 
L 521.363521 336.816384 
L 536.459118 336.816384 
L 551.554715 336.816384 
L 566.650312 336.816384 
L 581.745909 336.816384 
L 596.841506 336.816384 
L 611.937103 336.816384 
L 627.0327 336.816384 
L 642.128297 336.816384 
L 657.223894 336.816384 
L 672.319491 336.816384 
L 687.415088 336.816384 
L 702.510685 336.816384 
L 717.606282 336.816384 
L 730.135628 336.816384 
" clip-path="url(#pccc4f52c56)" style="fill: none; stroke: #f45b5b; stroke-linecap: square"/>
   </g>
   <g id="line2d_17">
    <path d="M 76.345323 352.934838 
L 76.496279 352.862572 
L 76.647235 352.862572 
L 76.798191 352.862572 
L 76.949147 352.862572 
L 77.100103 352.862572 
L 77.251059 352.862572 
L 77.402015 352.790307 
L 77.552971 352.718041 
L 84.345989 352.219409 
L 98.686806 351.085562 
L 113.782403 349.801403 
L 128.878 348.690682 
L 143.973597 347.49541 
L 159.069194 346.529219 
L 174.164791 345.227717 
L 189.260388 344.177698 
L 204.355985 342.840786 
L 219.451582 341.325377 
L 234.547179 339.890183 
L 249.642776 338.508466 
L 264.738373 337.224307 
L 279.83397 335.786223 
L 294.929567 334.486165 
L 310.025164 333.434701 
L 325.120761 332.209078 
L 340.216358 331.483532 
L 355.311955 330.640193 
L 370.407552 330.262244 
L 385.503149 330.062068 
L 400.598746 329.698572 
L 415.694343 329.207167 
L 430.78994 328.833554 
L 445.885537 328.751894 
L 460.981134 328.655058 
L 476.076731 328.581347 
L 491.172328 328.581347 
L 506.267924 328.581347 
L 521.363521 328.581347 
L 536.459118 328.510527 
L 551.554715 328.509082 
L 566.650312 328.45416 
L 581.745909 328.292285 
L 596.841506 328.292285 
L 611.937103 328.292285 
L 627.0327 328.292285 
L 642.128297 328.292285 
L 657.223894 328.292285 
L 672.319491 328.292285 
L 687.415088 328.292285 
L 702.510685 328.292285 
L 717.606282 328.292285 
L 732.701879 328.292285 
L 747.797476 328.292285 
L 762.893073 328.292285 
L 777.98867 328.292285 
L 793.084267 328.292285 
L 808.179864 328.292285 
L 823.275461 328.292285 
L 838.371058 328.292285 
L 853.466655 328.292285 
L 868.562252 328.292285 
L 883.657849 328.292285 
L 898.753446 328.292285 
L 913.849043 328.292285 
L 928.94464 328.292285 
L 941.775897 328.292285 
" clip-path="url(#pccc4f52c56)" style="fill: none; stroke: #91e8e1; stroke-linecap: square"/>
   </g>
   <g id="line2d_18">
    <path d="M 76.345323 352.790307 
L 76.496279 352.790307 
L 76.647235 352.790307 
L 76.798191 352.790307 
L 76.949147 352.790307 
L 77.100103 352.718041 
L 77.251059 352.718041 
L 77.402015 352.718041 
L 77.552971 352.718041 
L 84.345989 352.107799 
L 98.686806 350.976441 
L 113.782403 349.86572 
L 128.878 347.88998 
L 143.973597 346.792989 
L 159.069194 345.59049 
L 174.164791 343.331469 
L 189.260388 341.504596 
L 204.355985 340.297038 
L 219.451582 338.904481 
L 234.547179 337.313916 
L 249.642776 335.765988 
L 264.738373 334.536028 
L 279.83397 333.448432 
L 294.929567 332.000953 
L 310.025164 330.583103 
L 325.120761 329.859725 
L 340.216358 329.059022 
L 355.311955 328.126074 
L 370.407552 327.088341 
L 385.503149 326.21465 
L 400.598746 325.629299 
L 415.694343 325.346018 
L 430.78994 324.932659 
L 445.885537 324.800413 
L 460.981134 324.751273 
L 476.076731 324.651546 
L 491.172328 324.606742 
L 506.267924 324.606742 
L 521.363521 324.606742 
L 536.459118 324.606742 
L 551.554715 324.58723 
L 566.650312 324.534476 
L 581.745909 324.534476 
L 596.841506 324.534476 
L 611.937103 324.478832 
L 627.0327 324.462211 
L 642.128297 324.462211 
L 657.223894 324.462211 
L 672.319491 324.462211 
L 687.415088 324.462211 
L 702.510685 324.462211 
L 717.606282 324.462211 
L 732.701879 324.462211 
L 747.797476 324.462211 
L 762.893073 324.462211 
L 777.98867 324.462211 
L 793.084267 324.462211 
L 808.179864 324.462211 
L 823.275461 324.462211 
L 838.371058 324.462211 
L 853.466655 324.462211 
L 868.562252 324.457875 
L 883.657849 324.389945 
L 898.753446 324.389945 
L 913.849043 324.389945 
L 928.94464 324.389945 
L 941.775897 324.389945 
" clip-path="url(#pccc4f52c56)" style="fill: none; stroke: #7cb5ec; stroke-linecap: square"/>
   </g>
   <g id="line2d_19">
    <path d="M 76.345323 352.761984 
L 76.496279 352.761984 
L 76.647235 352.761984 
L 76.798191 352.761984 
L 76.949147 352.761984 
L 77.100103 352.761984 
L 77.251059 352.761984 
L 77.402015 352.761984 
L 77.552971 352.300068 
L 84.345989 350.852731 
L 98.686806 349.242184 
L 113.782403 348.941939 
L 128.878 347.773292 
L 143.973597 347.126609 
L 159.069194 344.452116 
L 174.164791 341.689859 
L 189.260388 339.943816 
L 204.355985 338.567307 
L 219.451582 334.927409 
L 234.547179 333.356895 
L 249.642776 331.924955 
L 264.738373 329.20427 
L 279.83397 327.684567 
L 294.929567 326.548254 
L 310.025164 325.439655 
L 325.120761 325.047027 
L 340.216358 325.047027 
L 355.311955 324.714447 
L 370.407552 324.234055 
L 385.503149 324.077003 
L 400.598746 323.661279 
L 415.694343 323.661279 
L 430.78994 323.587372 
L 445.885537 323.199363 
L 460.981134 323.199363 
L 476.076731 323.199363 
L 491.172328 323.199363 
L 506.267924 323.199363 
L 521.363521 323.037692 
L 536.459118 322.737447 
L 551.554715 322.737447 
L 566.650312 322.737447 
L 581.745909 322.737447 
L 596.841506 322.737447 
L 611.937103 322.737447 
L 627.0327 322.737447 
L 642.128297 322.737447 
L 657.223894 322.737447 
L 672.319491 322.737447 
L 687.415088 322.737447 
L 702.510685 322.737447 
L 717.606282 322.737447 
L 732.701879 322.737447 
L 747.797476 322.737447 
L 762.893073 322.737447 
L 777.98867 322.737447 
L 793.084267 322.737447 
L 808.179864 322.737447 
L 823.275461 322.737447 
L 838.371058 322.737447 
L 853.466655 322.737447 
L 868.562252 322.737447 
L 883.657849 322.737447 
L 898.753446 322.737447 
L 913.849043 322.737447 
L 928.94464 322.737447 
L 943.134501 322.737447 
" clip-path="url(#pccc4f52c56)" style="fill: none; stroke: #434348; stroke-linecap: square"/>
   </g>
   <g id="line2d_20">
    <path d="M 76.345323 353.2239 
L 76.496279 353.2239 
L 76.647235 352.761984 
L 76.798191 352.761984 
L 76.949147 352.761984 
L 77.100103 352.761984 
L 77.251059 352.761984 
L 77.402015 352.761984 
L 77.552971 352.300068 
L 84.345989 351.868947 
L 98.686806 351.172993 
L 113.782403 350.105967 
L 128.878 348.840318 
L 143.973597 347.759434 
L 159.069194 346.475308 
L 174.164791 345.602287 
L 189.260388 343.463616 
L 204.355985 341.2418 
L 219.451582 340.022342 
L 234.547179 337.546472 
L 249.642776 334.322299 
L 264.738373 331.375275 
L 279.83397 330.603876 
L 294.929567 329.763189 
L 310.025164 328.358964 
L 325.120761 327.065599 
L 340.216358 326.502062 
L 355.311955 325.726043 
L 370.407552 325.093218 
L 385.503149 325.047027 
L 400.598746 325.047027 
L 415.694343 325.047027 
L 430.78994 324.876118 
L 445.885537 324.585111 
L 460.981134 324.585111 
L 476.076731 324.585111 
L 491.172328 324.307961 
L 506.267924 324.123195 
L 521.363521 324.123195 
L 536.459118 324.123195 
L 551.554715 324.123195 
L 566.650312 324.123195 
L 581.745909 324.123195 
L 596.841506 324.123195 
L 611.937103 324.123195 
L 627.0327 324.123195 
L 642.128297 324.123195 
L 657.223894 324.123195 
L 672.319491 324.123195 
L 687.415088 324.123195 
L 702.510685 324.123195 
L 717.606282 324.123195 
L 732.701879 324.123195 
L 747.797476 324.123195 
L 762.893073 324.123195 
L 777.98867 324.123195 
L 793.084267 324.123195 
L 808.179864 324.123195 
L 823.275461 324.123195 
L 838.371058 324.123195 
L 853.466655 324.123195 
L 868.562252 324.123195 
L 883.657849 324.123195 
L 898.753446 324.123195 
L 913.849043 324.123195 
L 928.94464 324.123195 
L 943.134501 324.123195 
" clip-path="url(#pccc4f52c56)" style="fill: none; stroke: #90ed7d; stroke-linecap: square"/>
   </g>
   <g id="line2d_21">
    <path d="M 76.345323 353.094896 
L 76.496279 353.094896 
L 76.647235 352.965891 
L 76.798191 352.707882 
L 76.949147 352.707882 
L 77.100103 352.707882 
L 77.251059 352.707882 
L 77.402015 352.707882 
L 77.552971 352.707882 
L 84.345989 351.913788 
L 98.686806 350.541897 
L 113.782403 349.284103 
L 128.878 348.35656 
L 143.973597 347.078126 
L 159.069194 345.054045 
L 174.164791 343.364087 
L 189.260388 341.928267 
L 204.355985 340.453745 
L 219.451582 337.693049 
L 234.547179 335.377418 
L 249.642776 333.446221 
L 264.738373 331.11898 
L 279.83397 328.82657 
L 294.929567 327.842266 
L 310.025164 326.699286 
L 325.120761 325.557596 
L 340.216358 325.08931 
L 355.311955 324.708747 
L 370.407552 324.329473 
L 385.503149 323.705092 
L 400.598746 323.64833 
L 415.694343 323.431602 
L 430.78994 323.37613 
L 445.885537 323.154243 
L 460.981134 323.036848 
L 476.076731 322.929775 
L 491.172328 322.778839 
L 506.267924 322.700147 
L 521.363521 322.438268 
L 536.459118 322.391826 
L 551.554715 322.391826 
L 566.650312 322.391826 
L 581.745909 322.366025 
L 596.841506 322.262821 
L 611.937103 322.262821 
L 627.0327 322.23057 
L 642.128297 322.133817 
L 657.223894 322.049964 
L 672.319491 322.004812 
L 687.415088 322.004812 
L 702.510685 322.004812 
L 717.606282 322.004812 
L 732.701879 322.004812 
L 747.797476 322.004812 
L 762.893073 322.004812 
L 777.98867 322.004812 
L 793.084267 322.004812 
L 808.179864 322.004812 
L 823.275461 322.004812 
L 838.371058 322.004812 
L 853.466655 322.004812 
L 868.562252 322.004812 
L 883.657849 322.004812 
L 898.753446 322.004812 
L 913.849043 322.004812 
L 928.94464 322.004812 
L 943.889281 322.004812 
" clip-path="url(#pccc4f52c56)" style="fill: none; stroke: #f7a35c; stroke-linecap: square"/>
   </g>
   <g id="line2d_22">
    <path d="M 76.345323 353.2239 
L 76.496279 353.2239 
L 76.647235 353.2239 
L 76.798191 353.2239 
L 76.949147 353.2239 
L 77.100103 353.2239 
L 77.251059 353.2239 
L 77.402015 353.2239 
L 77.552971 353.2239 
L 84.345989 352.897089 
L 98.686806 351.810011 
L 113.782403 351.239811 
L 128.878 350.567697 
L 143.973597 349.585973 
L 159.069194 348.63908 
L 174.164791 347.261312 
L 189.260388 345.842263 
L 204.355985 344.504486 
L 219.451582 342.965463 
L 234.547179 341.004594 
L 249.642776 339.048886 
L 264.738373 336.022441 
L 279.83397 334.048672 
L 294.929567 332.092964 
L 310.025164 330.744867 
L 325.120761 329.550285 
L 340.216358 328.83173 
L 355.311955 328.25379 
L 370.407552 327.643599 
L 385.503149 327.552006 
L 400.598746 327.281096 
L 415.694343 327.008897 
L 430.78994 326.545771 
L 445.885537 326.270991 
L 460.981134 326.261961 
L 476.076731 326.261961 
L 491.172328 326.261961 
L 506.267924 326.224549 
L 521.363521 326.132956 
L 536.459118 326.132956 
L 551.554715 326.132956 
L 566.650312 326.132956 
L 581.745909 326.132956 
L 596.841506 326.132956 
L 611.937103 326.132956 
L 627.0327 326.132956 
L 642.128297 326.020722 
L 657.223894 326.003952 
L 672.319491 326.003952 
L 687.415088 325.881398 
L 702.510685 325.874947 
L 717.606282 325.874947 
L 732.701879 325.874947 
L 747.797476 325.874947 
L 762.893073 325.874947 
L 777.98867 325.874947 
L 793.084267 325.874947 
L 808.179864 325.874947 
L 823.275461 325.874947 
L 838.371058 325.874947 
L 853.466655 325.874947 
L 868.562252 325.874947 
L 883.657849 325.874947 
L 898.753446 325.874947 
L 913.849043 325.874947 
L 928.94464 325.874947 
L 943.889281 325.874947 
" clip-path="url(#pccc4f52c56)" style="fill: none; stroke: #8085e9; stroke-linecap: square"/>
   </g>
   <g id="line2d_23">
    <path d="M 76.345323 353.2239 
L 76.496279 353.2239 
L 76.647235 353.2239 
L 76.798191 353.2239 
L 76.949147 353.2239 
L 77.100103 353.2239 
L 77.251059 353.2239 
L 77.402015 353.2239 
L 77.552971 353.2239 
L 84.345989 352.719189 
L 98.686806 317.944593 
L 113.782403 311.88806 
L 128.878 307.7999 
L 143.973597 301.970487 
L 159.069194 271.990647 
L 174.164791 263.05726 
L 189.260388 254.805233 
L 204.355985 247.310273 
L 219.451582 247.234567 
L 234.547179 247.234567 
L 249.642776 245.871847 
L 264.738373 237.241287 
L 279.83397 230.12486 
L 294.929567 224.522567 
L 310.025164 224.522567 
L 325.120761 224.522567 
L 340.216358 224.522567 
L 355.311955 224.522567 
L 370.407552 224.522567 
L 385.503149 224.522567 
L 400.598746 224.522567 
L 415.694343 224.522567 
L 430.78994 224.522567 
L 445.885537 224.522567 
L 460.981134 224.522567 
L 476.076731 224.522567 
L 491.172328 224.522567 
L 506.267924 224.522567 
L 521.363521 224.522567 
L 536.459118 224.522567 
L 551.554715 224.522567 
L 566.650312 224.522567 
L 581.745909 224.522567 
L 593.218563 224.522567 
" clip-path="url(#pccc4f52c56)" style="fill: none; stroke: #f15c80; stroke-linecap: square"/>
   </g>
   <g id="line2d_24">
    <path d="M 76.345323 353.2239 
L 76.496279 353.2239 
L 76.647235 353.2239 
L 76.798191 353.2239 
L 76.949147 353.2239 
L 77.100103 353.2239 
L 77.251059 353.2239 
L 77.402015 353.2239 
L 77.552971 353.2239 
L 84.345989 353.2239 
L 98.686806 353.2239 
L 113.782403 353.2239 
L 128.878 353.2239 
L 143.973597 353.2239 
L 159.069194 353.2239 
L 174.164791 353.2239 
L 189.260388 353.2239 
L 204.355985 353.2239 
L 219.451582 353.2239 
L 234.547179 353.2239 
L 249.642776 353.2239 
L 264.738373 353.2239 
L 279.83397 353.2239 
L 294.929567 353.2239 
L 310.025164 353.2239 
L 325.120761 353.2239 
L 340.216358 353.2239 
L 355.311955 353.2239 
L 370.407552 353.2239 
L 385.503149 353.2239 
L 400.598746 353.2239 
L 415.694343 347.243073 
L 430.78994 345.653233 
L 445.885537 345.653233 
L 460.981134 345.653233 
L 476.076731 345.653233 
L 491.172328 345.653233 
L 506.267924 345.653233 
L 521.363521 345.653233 
L 536.459118 345.653233 
L 551.554715 345.653233 
L 566.650312 345.653233 
L 581.745909 345.653233 
L 593.218563 345.653233 
" clip-path="url(#pccc4f52c56)" style="fill: none; stroke: #e4d354; stroke-linecap: square"/>
   </g>
   <g id="line2d_25">
    <path d="M 76.345323 353.2239 
L 76.496279 353.2239 
L 76.647235 353.2239 
L 76.798191 353.2239 
L 76.949147 353.2239 
L 77.100103 353.2239 
L 77.251059 353.2239 
L 77.402015 353.2239 
L 77.552971 353.2239 
L 84.345989 352.615908 
L 98.686806 352.297101 
L 113.782403 351.921302 
L 128.878 351.655959 
L 143.973597 351.429972 
L 159.069194 351.294126 
L 174.164791 351.078296 
L 189.260388 350.852309 
L 204.355985 350.44985 
L 219.451582 350.14134 
L 234.547179 349.929319 
L 249.642776 349.683018 
L 264.738373 349.429101 
L 279.83397 349.095199 
L 294.929567 348.874291 
L 310.025164 348.503571 
L 325.120761 348.178556 
L 340.216358 348.145547 
L 355.311955 348.145547 
L 370.407552 348.145547 
L 385.503149 348.145547 
L 400.598746 348.145547 
L 415.694343 348.060485 
L 430.78994 347.82942 
L 445.885537 347.764671 
L 460.981134 347.764671 
L 476.076731 347.764671 
L 491.172328 347.685956 
L 506.267924 347.637712 
L 521.363521 347.637712 
L 536.459118 347.637712 
L 551.554715 347.637712 
L 566.650312 347.637712 
L 581.745909 347.637712 
L 596.841506 347.637712 
L 611.937103 347.637712 
L 627.0327 347.529797 
L 642.128297 347.510753 
L 657.223894 347.510753 
L 672.319491 347.510753 
L 687.415088 347.510753 
L 702.510685 347.510753 
L 717.606282 347.510753 
L 732.701879 347.510753 
L 747.797476 347.510753 
L 762.893073 347.510753 
L 777.98867 347.510753 
L 790.819927 347.510753 
" clip-path="url(#pccc4f52c56)" style="fill: none; stroke: #2b908f; stroke-linecap: square"/>
   </g>
   <g id="line2d_26">
    <path d="M 76.345323 353.007541 
L 76.496279 353.007541 
L 76.647235 353.007541 
L 76.798191 353.007541 
L 76.949147 353.007541 
L 77.100103 353.007541 
L 77.251059 353.007541 
L 77.402015 353.007541 
L 77.552971 353.007541 
L 84.345989 352.548378 
L 98.686806 352.187539 
L 113.782403 351.891127 
L 128.878 350.402575 
L 143.973597 348.381779 
L 159.069194 347.522832 
L 174.164791 346.646577 
L 189.260388 346.021299 
L 204.355985 345.415493 
L 219.451582 344.530583 
L 234.547179 343.976703 
L 249.642776 340.9758 
L 264.738373 339.915639 
L 279.83397 339.736061 
L 294.929567 339.593264 
L 310.025164 339.428831 
L 325.120761 339.376904 
L 340.216358 339.376904 
L 355.311955 339.376904 
L 370.407552 339.184345 
L 385.503149 339.048038 
L 400.598746 338.944186 
L 415.694343 338.944186 
L 430.78994 338.944186 
L 445.885537 338.944186 
L 460.981134 338.944186 
L 476.076731 338.944186 
L 491.172328 338.853315 
L 506.267924 338.727826 
L 521.363521 338.567721 
L 536.459118 338.511467 
L 551.554715 338.511467 
L 566.650312 338.511467 
L 581.745909 338.511467 
L 596.841506 338.511467 
L 611.937103 338.511467 
L 627.0327 338.511467 
L 642.128297 338.511467 
L 657.223894 338.511467 
L 672.319491 338.511467 
L 687.415088 338.511467 
L 702.510685 338.511467 
L 717.606282 338.511467 
L 732.701879 338.511467 
L 747.797476 338.511467 
L 762.893073 338.511467 
L 777.98867 338.511467 
L 793.084267 338.511467 
L 808.179864 338.511467 
L 823.275461 338.511467 
L 838.371058 338.511467 
L 851.504227 338.511467 
" clip-path="url(#pccc4f52c56)" style="fill: none; stroke: #f45b5b; stroke-linecap: square"/>
   </g>
   <g id="line2d_27">
    <path d="M 32.968125 353.2239 
L 987.266478 353.2239 
" clip-path="url(#pccc4f52c56)" style="fill: none; stroke: #dedede; stroke-width: 2; stroke-linecap: square"/>
   </g>
   <g id="text_17">
    <!-- FastQC: Adapter Content -->
    <g transform="translate(410.819802 19.3575) scale(0.16 -0.16)">
     <defs>
      <path id="DejaVuSans-46" d="M 628 4666 
L 3309 4666 
L 3309 4134 
L 1259 4134 
L 1259 2759 
L 3109 2759 
L 3109 2228 
L 1259 2228 
L 1259 0 
L 628 0 
L 628 4666 
z
" transform="scale(0.015625)"/>
      <path id="DejaVuSans-61" d="M 2194 1759 
Q 1497 1759 1228 1600 
Q 959 1441 959 1056 
Q 959 750 1161 570 
Q 1363 391 1709 391 
Q 2188 391 2477 730 
Q 2766 1069 2766 1631 
L 2766 1759 
L 2194 1759 
z
M 3341 1997 
L 3341 0 
L 2766 0 
L 2766 531 
Q 2569 213 2275 61 
Q 1981 -91 1556 -91 
Q 1019 -91 701 211 
Q 384 513 384 1019 
Q 384 1609 779 1909 
Q 1175 2209 1959 2209 
L 2766 2209 
L 2766 2266 
Q 2766 2663 2505 2880 
Q 2244 3097 1772 3097 
Q 1472 3097 1187 3025 
Q 903 2953 641 2809 
L 641 3341 
Q 956 3463 1253 3523 
Q 1550 3584 1831 3584 
Q 2591 3584 2966 3190 
Q 3341 2797 3341 1997 
z
" transform="scale(0.015625)"/>
      <path id="DejaVuSans-51" d="M 2522 4238 
Q 1834 4238 1429 3725 
Q 1025 3213 1025 2328 
Q 1025 1447 1429 934 
Q 1834 422 2522 422 
Q 3209 422 3611 934 
Q 4013 1447 4013 2328 
Q 4013 3213 3611 3725 
Q 3209 4238 2522 4238 
z
M 3406 84 
L 4238 -825 
L 3475 -825 
L 2784 -78 
Q 2681 -84 2626 -87 
Q 2572 -91 2522 -91 
Q 1538 -91 948 567 
Q 359 1225 359 2328 
Q 359 3434 948 4092 
Q 1538 4750 2522 4750 
Q 3503 4750 4090 4092 
Q 4678 3434 4678 2328 
Q 4678 1516 4351 937 
Q 4025 359 3406 84 
z
" transform="scale(0.015625)"/>
      <path id="DejaVuSans-43" d="M 4122 4306 
L 4122 3641 
Q 3803 3938 3442 4084 
Q 3081 4231 2675 4231 
Q 1875 4231 1450 3742 
Q 1025 3253 1025 2328 
Q 1025 1406 1450 917 
Q 1875 428 2675 428 
Q 3081 428 3442 575 
Q 3803 722 4122 1019 
L 4122 359 
Q 3791 134 3420 21 
Q 3050 -91 2638 -91 
Q 1578 -91 968 557 
Q 359 1206 359 2328 
Q 359 3453 968 4101 
Q 1578 4750 2638 4750 
Q 3056 4750 3426 4639 
Q 3797 4528 4122 4306 
z
" transform="scale(0.015625)"/>
      <path id="DejaVuSans-3a" d="M 750 794 
L 1409 794 
L 1409 0 
L 750 0 
L 750 794 
z
M 750 3309 
L 1409 3309 
L 1409 2516 
L 750 2516 
L 750 3309 
z
" transform="scale(0.015625)"/>
      <path id="DejaVuSans-41" d="M 2188 4044 
L 1331 1722 
L 3047 1722 
L 2188 4044 
z
M 1831 4666 
L 2547 4666 
L 4325 0 
L 3669 0 
L 3244 1197 
L 1141 1197 
L 716 0 
L 50 0 
L 1831 4666 
z
" transform="scale(0.015625)"/>
      <path id="DejaVuSans-64" d="M 2906 2969 
L 2906 4863 
L 3481 4863 
L 3481 0 
L 2906 0 
L 2906 525 
Q 2725 213 2448 61 
Q 2172 -91 1784 -91 
Q 1150 -91 751 415 
Q 353 922 353 1747 
Q 353 2572 751 3078 
Q 1150 3584 1784 3584 
Q 2172 3584 2448 3432 
Q 2725 3281 2906 2969 
z
M 947 1747 
Q 947 1113 1208 752 
Q 1469 391 1925 391 
Q 2381 391 2643 752 
Q 2906 1113 2906 1747 
Q 2906 2381 2643 2742 
Q 2381 3103 1925 3103 
Q 1469 3103 1208 2742 
Q 947 2381 947 1747 
z
" transform="scale(0.015625)"/>
      <path id="DejaVuSans-72" d="M 2631 2963 
Q 2534 3019 2420 3045 
Q 2306 3072 2169 3072 
Q 1681 3072 1420 2755 
Q 1159 2438 1159 1844 
L 1159 0 
L 581 0 
L 581 3500 
L 1159 3500 
L 1159 2956 
Q 1341 3275 1631 3429 
Q 1922 3584 2338 3584 
Q 2397 3584 2469 3576 
Q 2541 3569 2628 3553 
L 2631 2963 
z
" transform="scale(0.015625)"/>
     </defs>
     <use xlink:href="#DejaVuSans-46"/>
     <use xlink:href="#DejaVuSans-61" x="48.394531"/>
     <use xlink:href="#DejaVuSans-73" x="109.673828"/>
     <use xlink:href="#DejaVuSans-74" x="161.773438"/>
     <use xlink:href="#DejaVuSans-51" x="200.982422"/>
     <use xlink:href="#DejaVuSans-43" x="279.693359"/>
     <use xlink:href="#DejaVuSans-3a" x="349.517578"/>
     <use xlink:href="#DejaVuSans-20" x="383.208984"/>
     <use xlink:href="#DejaVuSans-41" x="414.996094"/>
     <use xlink:href="#DejaVuSans-64" x="481.654297"/>
     <use xlink:href="#DejaVuSans-61" x="545.130859"/>
     <use xlink:href="#DejaVuSans-70" x="606.410156"/>
     <use xlink:href="#DejaVuSans-74" x="669.886719"/>
     <use xlink:href="#DejaVuSans-65" x="709.095703"/>
     <use xlink:href="#DejaVuSans-72" x="770.619141"/>
     <use xlink:href="#DejaVuSans-20" x="811.732422"/>
     <use xlink:href="#DejaVuSans-43" x="843.519531"/>
     <use xlink:href="#DejaVuSans-6f" x="913.34375"/>
     <use xlink:href="#DejaVuSans-6e" x="974.525391"/>
     <use xlink:href="#DejaVuSans-74" x="1037.904297"/>
     <use xlink:href="#DejaVuSans-65" x="1077.113281"/>
     <use xlink:href="#DejaVuSans-6e" x="1138.636719"/>
     <use xlink:href="#DejaVuSans-74" x="1202.015625"/>
    </g>
   </g>
  </g>
 </g>
 <defs>
  <clipPath id="pccc4f52c56">
   <rect x="32.968125" y="35.2559" width="954.298353" height="317.968"/>
  </clipPath>
 </defs>
</svg>
